<svg width="534" height="251" viewBox="0 0 534 251" fill="none" xmlns="http://www.w3.org/2000/svg">
<path d="M257.5 68L258.008 129" stroke="black" stroke-width="3"/>
<circle cx="257.5" cy="47.5" r="19.5" stroke="black" stroke-width="2"/>
<path d="M257.5 90L276 78.5" stroke="black" stroke-width="2"/>
<path d="M257.5 89.5L239 78" stroke="black" stroke-width="2"/>
<path d="M257.5 128L244 143.5" stroke="black" stroke-width="2"/>
<path d="M258 128L271.5 143.5" stroke="black" stroke-width="2"/>
<circle cx="251" cy="44" r="3" fill="black"/>
<circle cx="262" cy="44" r="3" fill="black"/>
<path d="M247 53C250.333 57.6667 258.9 64.2 266.5 53" stroke="black"/>
<path d="M310.665 4.20312L314.849 14.6445L319.032 4.20312H321.221V17H319.533V12.0166L319.691 6.6377L315.49 17H314.198L310.006 6.66406L310.173 12.0166V17H308.485V4.20312H310.665ZM327.892 17.1758C326.603 17.1758 325.554 16.7539 324.745 15.9102C323.937 15.0605 323.532 13.9268 323.532 12.5088V12.21C323.532 11.2666 323.711 10.4258 324.068 9.6875C324.432 8.94336 324.936 8.36328 325.58 7.94727C326.23 7.52539 326.934 7.31445 327.689 7.31445C328.926 7.31445 329.887 7.72168 330.572 8.53613C331.258 9.35059 331.601 10.5166 331.601 12.0342V12.7109H325.158C325.182 13.6484 325.454 14.4072 325.976 14.9873C326.503 15.5615 327.171 15.8486 327.979 15.8486C328.554 15.8486 329.04 15.7314 329.438 15.4971C329.837 15.2627 330.186 14.9521 330.484 14.5654L331.478 15.3389C330.681 16.5635 329.485 17.1758 327.892 17.1758ZM327.689 8.65039C327.033 8.65039 326.482 8.89062 326.037 9.37109C325.592 9.8457 325.316 10.5137 325.211 11.375H329.975V11.252C329.928 10.4258 329.705 9.78711 329.307 9.33594C328.908 8.87891 328.369 8.65039 327.689 8.65039ZM337.894 11.8057C337.894 10.4814 338.069 9.20996 338.421 7.99121C338.778 6.77246 339.309 5.66504 340.012 4.66895C340.715 3.67285 341.444 2.96973 342.2 2.55957L342.534 3.63184C341.679 4.28809 340.976 5.29004 340.425 6.6377C339.88 7.98535 339.581 9.49414 339.528 11.1641L339.52 11.9111C339.52 14.1729 339.933 16.1357 340.759 17.7998C341.257 18.7959 341.849 19.5752 342.534 20.1377L342.2 21.1309C341.421 20.6973 340.677 19.9707 339.968 18.9512C338.585 16.959 337.894 14.5771 337.894 11.8057ZM349.724 4.20312H351.42V13.2646C351.42 14.4893 351.051 15.4473 350.312 16.1387C349.58 16.8301 348.602 17.1758 347.377 17.1758C346.105 17.1758 345.115 16.8506 344.406 16.2002C343.697 15.5498 343.343 14.6387 343.343 13.4668H345.03C345.03 14.1992 345.229 14.7705 345.628 15.1807C346.032 15.5908 346.615 15.7959 347.377 15.7959C348.074 15.7959 348.637 15.5762 349.064 15.1367C349.498 14.6973 349.718 14.082 349.724 13.291V4.20312ZM359.91 17C359.816 16.8125 359.74 16.4785 359.682 15.998C358.926 16.7832 358.023 17.1758 356.975 17.1758C356.037 17.1758 355.267 16.9121 354.663 16.3848C354.065 15.8516 353.767 15.1777 353.767 14.3633C353.767 13.373 354.142 12.6055 354.892 12.0605C355.647 11.5098 356.708 11.2344 358.073 11.2344H359.655V10.4873C359.655 9.91895 359.485 9.46777 359.146 9.13379C358.806 8.79395 358.305 8.62402 357.643 8.62402C357.062 8.62402 356.576 8.77051 356.184 9.06348C355.791 9.35645 355.595 9.71094 355.595 10.127H353.96C353.96 9.65234 354.127 9.19531 354.461 8.75586C354.801 8.31055 355.258 7.95898 355.832 7.70117C356.412 7.44336 357.048 7.31445 357.739 7.31445C358.835 7.31445 359.693 7.58984 360.314 8.14062C360.936 8.68555 361.258 9.43848 361.281 10.3994V14.7764C361.281 15.6494 361.393 16.3438 361.615 16.8594V17H359.91ZM357.212 15.7607C357.722 15.7607 358.205 15.6289 358.662 15.3652C359.119 15.1016 359.45 14.7588 359.655 14.3369V12.3857H358.381C356.389 12.3857 355.393 12.9688 355.393 14.1348C355.393 14.6445 355.562 15.043 355.902 15.3301C356.242 15.6172 356.679 15.7607 357.212 15.7607ZM367.645 15.8486C368.225 15.8486 368.731 15.6729 369.165 15.3213C369.599 14.9697 369.839 14.5303 369.886 14.0029H371.424C371.395 14.5479 371.207 15.0664 370.861 15.5586C370.516 16.0508 370.053 16.4434 369.473 16.7363C368.898 17.0293 368.289 17.1758 367.645 17.1758C366.35 17.1758 365.318 16.7451 364.551 15.8838C363.789 15.0166 363.408 13.833 363.408 12.333V12.0605C363.408 11.1348 363.578 10.3115 363.918 9.59082C364.258 8.87012 364.744 8.31055 365.377 7.91211C366.016 7.51367 366.769 7.31445 367.636 7.31445C368.702 7.31445 369.587 7.63379 370.29 8.27246C370.999 8.91113 371.377 9.74023 371.424 10.7598H369.886C369.839 10.1445 369.604 9.64062 369.183 9.24805C368.767 8.84961 368.251 8.65039 367.636 8.65039C366.81 8.65039 366.168 8.94922 365.711 9.54688C365.26 10.1387 365.034 10.9971 365.034 12.1221V12.4297C365.034 13.5254 365.26 14.3691 365.711 14.9609C366.162 15.5527 366.807 15.8486 367.645 15.8486ZM375.906 12.5967L374.887 13.6602V17H373.261V3.5H374.887V11.665L375.757 10.6191L378.719 7.49023H380.696L376.996 11.4629L381.127 17H379.22L375.906 12.5967ZM387.095 17V4.20312H391.278C392.667 4.20312 393.71 4.49023 394.407 5.06445C395.11 5.63867 395.462 6.48828 395.462 7.61328C395.462 8.21094 395.292 8.74121 394.952 9.2041C394.612 9.66113 394.149 10.0156 393.563 10.2676C394.255 10.4609 394.8 10.8301 395.198 11.375C395.603 11.9141 395.805 12.5586 395.805 13.3086C395.805 14.457 395.433 15.3594 394.688 16.0156C393.944 16.6719 392.893 17 391.533 17H387.095ZM388.782 11.0146V15.6201H391.568C392.354 15.6201 392.972 15.418 393.423 15.0137C393.88 14.6035 394.108 14.041 394.108 13.3262C394.108 11.7852 393.271 11.0146 391.595 11.0146H388.782ZM388.782 9.66113H391.331C392.069 9.66113 392.658 9.47656 393.098 9.10742C393.543 8.73828 393.766 8.2373 393.766 7.60449C393.766 6.90137 393.561 6.3916 393.15 6.0752C392.74 5.75293 392.116 5.5918 391.278 5.5918H388.782V9.66113ZM403.926 16.0596C403.293 16.8037 402.364 17.1758 401.14 17.1758C400.126 17.1758 399.353 16.8828 398.819 16.2969C398.292 15.7051 398.025 14.832 398.02 13.6777V7.49023H399.646V13.6338C399.646 15.0752 400.231 15.7959 401.403 15.7959C402.646 15.7959 403.472 15.333 403.882 14.4072V7.49023H405.508V17H403.961L403.926 16.0596ZM412.583 8.94922C412.337 8.9082 412.07 8.8877 411.783 8.8877C410.717 8.8877 409.993 9.3418 409.612 10.25V17H407.986V7.49023H409.568L409.595 8.58887C410.128 7.73926 410.884 7.31445 411.862 7.31445C412.179 7.31445 412.419 7.35547 412.583 7.4375V8.94922ZM418.683 8.94922C418.437 8.9082 418.17 8.8877 417.883 8.8877C416.816 8.8877 416.093 9.3418 415.712 10.25V17H414.086V7.49023H415.668L415.694 8.58887C416.228 7.73926 416.983 7.31445 417.962 7.31445C418.278 7.31445 418.519 7.35547 418.683 7.4375V8.94922ZM426.057 16.0596C425.424 16.8037 424.495 17.1758 423.271 17.1758C422.257 17.1758 421.483 16.8828 420.95 16.2969C420.423 15.7051 420.156 14.832 420.15 13.6777V7.49023H421.776V13.6338C421.776 15.0752 422.362 15.7959 423.534 15.7959C424.776 15.7959 425.603 15.333 426.013 14.4072V7.49023H427.639V17H426.092L426.057 16.0596ZM435.654 14.4775C435.654 14.0381 435.487 13.6982 435.153 13.458C434.825 13.2119 434.248 13.001 433.422 12.8252C432.602 12.6494 431.948 12.4385 431.462 12.1924C430.981 11.9463 430.624 11.6533 430.39 11.3135C430.161 10.9736 430.047 10.5693 430.047 10.1006C430.047 9.32129 430.375 8.66211 431.031 8.12305C431.693 7.58398 432.537 7.31445 433.562 7.31445C434.641 7.31445 435.514 7.59277 436.182 8.14941C436.855 8.70605 437.192 9.41797 437.192 10.2852H435.558C435.558 9.83984 435.367 9.45605 434.986 9.13379C434.611 8.81152 434.137 8.65039 433.562 8.65039C432.971 8.65039 432.508 8.7793 432.174 9.03711C431.84 9.29492 431.673 9.63184 431.673 10.0479C431.673 10.4404 431.828 10.7363 432.139 10.9355C432.449 11.1348 433.009 11.3252 433.817 11.5068C434.632 11.6885 435.291 11.9053 435.795 12.1572C436.299 12.4092 436.671 12.7139 436.911 13.0713C437.157 13.4229 437.28 13.8535 437.28 14.3633C437.28 15.2129 436.94 15.8955 436.261 16.4111C435.581 16.9209 434.699 17.1758 433.615 17.1758C432.854 17.1758 432.18 17.041 431.594 16.7715C431.008 16.502 430.548 16.127 430.214 15.6465C429.886 15.1602 429.722 14.6357 429.722 14.0732H431.348C431.377 14.6182 431.594 15.0518 431.998 15.374C432.408 15.6904 432.947 15.8486 433.615 15.8486C434.23 15.8486 434.723 15.7256 435.092 15.4795C435.467 15.2275 435.654 14.8936 435.654 14.4775ZM443.151 11.8936C443.151 13.2002 442.979 14.4541 442.633 15.6553C442.293 16.8506 441.769 17.9551 441.06 18.9688C440.356 19.9824 439.618 20.7031 438.845 21.1309L438.502 20.1377C439.404 19.4463 440.128 18.374 440.673 16.9209C441.224 15.4619 441.505 13.8447 441.517 12.0693V11.7881C441.517 10.5576 441.388 9.41504 441.13 8.36035C440.872 7.2998 440.512 6.35059 440.049 5.5127C439.592 4.6748 439.076 4.02148 438.502 3.55273L438.845 2.55957C439.618 2.9873 440.354 3.70215 441.051 4.7041C441.754 5.70605 442.278 6.81055 442.624 8.01758C442.976 9.22461 443.151 10.5166 443.151 11.8936Z" fill="black"/>
<path d="M281.506 32.2738C281.463 32.5464 281.648 32.8031 281.921 32.847L286.363 33.5627C286.636 33.6066 286.893 33.4212 286.936 33.1486C286.98 32.8759 286.795 32.6193 286.522 32.5754L282.573 31.9392L283.209 27.9901C283.253 27.7175 283.068 27.4609 282.795 27.417C282.523 27.3731 282.266 27.5585 282.222 27.8311L281.506 32.2738ZM302.957 16.5947L281.707 31.9481L282.293 32.7586L303.543 17.4053L302.957 16.5947Z" fill="black"/>
<path d="M8.55176 187.66H3.19043L1.98633 191H0.246094L5.13281 178.203H6.60938L11.5049 191H9.77344L8.55176 187.66ZM3.7002 186.271H8.05078L5.87109 180.286L3.7002 186.271ZM18.5098 188.478C18.5098 188.038 18.3428 187.698 18.0088 187.458C17.6807 187.212 17.1035 187.001 16.2773 186.825C15.457 186.649 14.8037 186.438 14.3174 186.192C13.8369 185.946 13.4795 185.653 13.2451 185.313C13.0166 184.974 12.9023 184.569 12.9023 184.101C12.9023 183.321 13.2305 182.662 13.8867 182.123C14.5488 181.584 15.3926 181.314 16.418 181.314C17.4961 181.314 18.3691 181.593 19.0371 182.149C19.7109 182.706 20.0479 183.418 20.0479 184.285H18.4131C18.4131 183.84 18.2227 183.456 17.8418 183.134C17.4668 182.812 16.9922 182.65 16.418 182.65C15.8262 182.65 15.3633 182.779 15.0293 183.037C14.6953 183.295 14.5283 183.632 14.5283 184.048C14.5283 184.44 14.6836 184.736 14.9941 184.936C15.3047 185.135 15.8643 185.325 16.6729 185.507C17.4873 185.688 18.1465 185.905 18.6504 186.157C19.1543 186.409 19.5264 186.714 19.7666 187.071C20.0127 187.423 20.1357 187.854 20.1357 188.363C20.1357 189.213 19.7959 189.896 19.1162 190.411C18.4365 190.921 17.5547 191.176 16.4707 191.176C15.709 191.176 15.0352 191.041 14.4492 190.771C13.8633 190.502 13.4033 190.127 13.0693 189.646C12.7412 189.16 12.5771 188.636 12.5771 188.073H14.2031C14.2324 188.618 14.4492 189.052 14.8535 189.374C15.2637 189.69 15.8027 189.849 16.4707 189.849C17.0859 189.849 17.5781 189.726 17.9473 189.479C18.3223 189.228 18.5098 188.894 18.5098 188.478ZM24.46 179.188V181.49H26.2354V182.747H24.46V188.645C24.46 189.025 24.5391 189.312 24.6973 189.506C24.8555 189.693 25.125 189.787 25.5059 189.787C25.6934 189.787 25.9512 189.752 26.2793 189.682V191C25.8516 191.117 25.4355 191.176 25.0312 191.176C24.3047 191.176 23.7568 190.956 23.3877 190.517C23.0186 190.077 22.834 189.453 22.834 188.645V182.747H21.1025V181.49H22.834V179.188H24.46ZM32.7393 182.949C32.4932 182.908 32.2266 182.888 31.9395 182.888C30.873 182.888 30.1494 183.342 29.7686 184.25V191H28.1426V181.49H29.7246L29.751 182.589C30.2842 181.739 31.04 181.314 32.0186 181.314C32.335 181.314 32.5752 181.355 32.7393 181.438V182.949ZM33.6357 186.157C33.6357 185.226 33.8174 184.388 34.1807 183.644C34.5498 182.899 35.0596 182.325 35.71 181.921C36.3662 181.517 37.1133 181.314 37.9512 181.314C39.2461 181.314 40.292 181.763 41.0889 182.659C41.8916 183.556 42.293 184.748 42.293 186.236V186.351C42.293 187.276 42.1143 188.108 41.7568 188.847C41.4053 189.579 40.8984 190.15 40.2363 190.561C39.5801 190.971 38.8242 191.176 37.9688 191.176C36.6797 191.176 35.6338 190.728 34.8311 189.831C34.0342 188.935 33.6357 187.748 33.6357 186.271V186.157ZM35.2705 186.351C35.2705 187.405 35.5137 188.252 36 188.891C36.4922 189.529 37.1484 189.849 37.9688 189.849C38.7949 189.849 39.4512 189.526 39.9375 188.882C40.4238 188.231 40.667 187.323 40.667 186.157C40.667 185.114 40.418 184.271 39.9199 183.626C39.4277 182.976 38.7715 182.65 37.9512 182.65C37.1484 182.65 36.501 182.97 36.0088 183.608C35.5166 184.247 35.2705 185.161 35.2705 186.351ZM45.8701 181.49L45.9229 182.686C46.6494 181.771 47.5986 181.314 48.7705 181.314C50.7803 181.314 51.7939 182.448 51.8115 184.716V191H50.1855V184.707C50.1797 184.021 50.0215 183.515 49.7109 183.187C49.4062 182.858 48.9287 182.694 48.2783 182.694C47.751 182.694 47.2881 182.835 46.8896 183.116C46.4912 183.397 46.1807 183.767 45.958 184.224V191H44.332V181.49H45.8701ZM60.1348 191C60.041 190.812 59.9648 190.479 59.9062 189.998C59.1504 190.783 58.248 191.176 57.1992 191.176C56.2617 191.176 55.4912 190.912 54.8877 190.385C54.29 189.852 53.9912 189.178 53.9912 188.363C53.9912 187.373 54.3662 186.605 55.1162 186.061C55.8721 185.51 56.9326 185.234 58.2979 185.234H59.8799V184.487C59.8799 183.919 59.71 183.468 59.3701 183.134C59.0303 182.794 58.5293 182.624 57.8672 182.624C57.2871 182.624 56.8008 182.771 56.4082 183.063C56.0156 183.356 55.8193 183.711 55.8193 184.127H54.1846C54.1846 183.652 54.3516 183.195 54.6855 182.756C55.0254 182.311 55.4824 181.959 56.0566 181.701C56.6367 181.443 57.2725 181.314 57.9639 181.314C59.0596 181.314 59.918 181.59 60.5391 182.141C61.1602 182.686 61.4824 183.438 61.5059 184.399V188.776C61.5059 189.649 61.6172 190.344 61.8398 190.859V191H60.1348ZM57.4365 189.761C57.9463 189.761 58.4297 189.629 58.8867 189.365C59.3438 189.102 59.6748 188.759 59.8799 188.337V186.386H58.6055C56.6133 186.386 55.6172 186.969 55.6172 188.135C55.6172 188.645 55.7871 189.043 56.127 189.33C56.4668 189.617 56.9033 189.761 57.4365 189.761ZM69.9258 190.06C69.293 190.804 68.3643 191.176 67.1396 191.176C66.126 191.176 65.3525 190.883 64.8193 190.297C64.292 189.705 64.0254 188.832 64.0195 187.678V181.49H65.6455V187.634C65.6455 189.075 66.2314 189.796 67.4033 189.796C68.6455 189.796 69.4717 189.333 69.8818 188.407V181.49H71.5078V191H69.9609L69.9258 190.06ZM76.1924 179.188V181.49H77.9678V182.747H76.1924V188.645C76.1924 189.025 76.2715 189.312 76.4297 189.506C76.5879 189.693 76.8574 189.787 77.2383 189.787C77.4258 189.787 77.6836 189.752 78.0117 189.682V191C77.584 191.117 77.168 191.176 76.7637 191.176C76.0371 191.176 75.4893 190.956 75.1201 190.517C74.751 190.077 74.5664 189.453 74.5664 188.645V182.747H72.835V181.49H74.5664V179.188H76.1924ZM79.8223 193.549L78.8994 192.916C79.4502 192.148 79.7373 191.357 79.7607 190.543V189.075H81.3516V190.35C81.3516 190.941 81.2051 191.533 80.9121 192.125C80.625 192.717 80.2617 193.191 79.8223 193.549ZM91.8984 185.296C90.4512 184.88 89.3965 184.37 88.7344 183.767C88.0781 183.157 87.75 182.407 87.75 181.517C87.75 180.509 88.1514 179.677 88.9541 179.021C89.7627 178.358 90.8115 178.027 92.1006 178.027C92.9795 178.027 93.7617 178.197 94.4473 178.537C95.1387 178.877 95.6719 179.346 96.0469 179.943C96.4277 180.541 96.6182 181.194 96.6182 181.903H94.9219C94.9219 181.13 94.6758 180.523 94.1836 180.084C93.6914 179.639 92.9971 179.416 92.1006 179.416C91.2686 179.416 90.6182 179.601 90.1494 179.97C89.6865 180.333 89.4551 180.84 89.4551 181.49C89.4551 182.012 89.6748 182.454 90.1143 182.817C90.5596 183.175 91.3125 183.503 92.373 183.802C93.4395 184.101 94.2715 184.432 94.8691 184.795C95.4727 185.152 95.918 185.571 96.2051 186.052C96.498 186.532 96.6445 187.098 96.6445 187.748C96.6445 188.785 96.2402 189.617 95.4316 190.244C94.623 190.865 93.542 191.176 92.1885 191.176C91.3096 191.176 90.4893 191.009 89.7275 190.675C88.9658 190.335 88.377 189.872 87.9609 189.286C87.5508 188.7 87.3457 188.035 87.3457 187.291H89.042C89.042 188.064 89.3262 188.677 89.8945 189.128C90.4688 189.573 91.2334 189.796 92.1885 189.796C93.0791 189.796 93.7617 189.614 94.2363 189.251C94.7109 188.888 94.9482 188.393 94.9482 187.766C94.9482 187.139 94.7285 186.655 94.2891 186.315C93.8496 185.97 93.0527 185.63 91.8984 185.296ZM106.594 186.351C106.594 187.798 106.263 188.964 105.601 189.849C104.938 190.733 104.042 191.176 102.911 191.176C101.757 191.176 100.849 190.81 100.187 190.077V194.656H98.5605V181.49H100.046L100.125 182.545C100.787 181.725 101.707 181.314 102.885 181.314C104.027 181.314 104.93 181.745 105.592 182.606C106.26 183.468 106.594 184.666 106.594 186.201V186.351ZM104.968 186.166C104.968 185.094 104.739 184.247 104.282 183.626C103.825 183.005 103.198 182.694 102.401 182.694C101.417 182.694 100.679 183.131 100.187 184.004V188.548C100.673 189.415 101.417 189.849 102.419 189.849C103.198 189.849 103.816 189.541 104.273 188.926C104.736 188.305 104.968 187.385 104.968 186.166ZM110.435 191H108.809V181.49H110.435V191ZM108.677 178.968C108.677 178.704 108.756 178.481 108.914 178.3C109.078 178.118 109.318 178.027 109.635 178.027C109.951 178.027 110.191 178.118 110.355 178.3C110.52 178.481 110.602 178.704 110.602 178.968C110.602 179.231 110.52 179.451 110.355 179.627C110.191 179.803 109.951 179.891 109.635 179.891C109.318 179.891 109.078 179.803 108.914 179.627C108.756 179.451 108.677 179.231 108.677 178.968ZM112.649 186.166C112.649 184.707 112.995 183.535 113.687 182.65C114.378 181.76 115.283 181.314 116.402 181.314C117.516 181.314 118.397 181.695 119.048 182.457V177.5H120.674V191H119.18L119.101 189.98C118.45 190.777 117.545 191.176 116.385 191.176C115.283 191.176 114.384 190.725 113.687 189.822C112.995 188.92 112.649 187.742 112.649 186.289V186.166ZM114.275 186.351C114.275 187.429 114.498 188.272 114.943 188.882C115.389 189.491 116.004 189.796 116.789 189.796C117.82 189.796 118.573 189.333 119.048 188.407V184.039C118.562 183.143 117.814 182.694 116.807 182.694C116.01 182.694 115.389 183.002 114.943 183.617C114.498 184.232 114.275 185.144 114.275 186.351ZM127.151 191.176C125.862 191.176 124.813 190.754 124.005 189.91C123.196 189.061 122.792 187.927 122.792 186.509V186.21C122.792 185.267 122.971 184.426 123.328 183.688C123.691 182.943 124.195 182.363 124.84 181.947C125.49 181.525 126.193 181.314 126.949 181.314C128.186 181.314 129.146 181.722 129.832 182.536C130.518 183.351 130.86 184.517 130.86 186.034V186.711H124.418C124.441 187.648 124.714 188.407 125.235 188.987C125.763 189.562 126.431 189.849 127.239 189.849C127.813 189.849 128.3 189.731 128.698 189.497C129.097 189.263 129.445 188.952 129.744 188.565L130.737 189.339C129.94 190.563 128.745 191.176 127.151 191.176ZM126.949 182.65C126.293 182.65 125.742 182.891 125.297 183.371C124.852 183.846 124.576 184.514 124.471 185.375H129.234V185.252C129.188 184.426 128.965 183.787 128.566 183.336C128.168 182.879 127.629 182.65 126.949 182.65ZM137.347 182.949C137.101 182.908 136.834 182.888 136.547 182.888C135.48 182.888 134.757 183.342 134.376 184.25V191H132.75V181.49H134.332L134.358 182.589C134.892 181.739 135.647 181.314 136.626 181.314C136.942 181.314 137.183 181.355 137.347 181.438V182.949ZM146.329 186.966L146.575 188.653L146.936 187.133L149.467 178.203H150.891L153.36 187.133L153.712 188.68L153.984 186.957L155.971 178.203H157.667L154.564 191H153.026L150.39 181.675L150.188 180.699L149.985 181.675L147.252 191H145.714L142.62 178.203H144.308L146.329 186.966ZM160.919 182.642C161.64 181.757 162.577 181.314 163.731 181.314C165.741 181.314 166.755 182.448 166.772 184.716V191H165.146V184.707C165.141 184.021 164.982 183.515 164.672 183.187C164.367 182.858 163.89 182.694 163.239 182.694C162.712 182.694 162.249 182.835 161.851 183.116C161.452 183.397 161.142 183.767 160.919 184.224V191H159.293V177.5H160.919V182.642ZM170.974 191H169.348V181.49H170.974V191ZM169.216 178.968C169.216 178.704 169.295 178.481 169.453 178.3C169.617 178.118 169.857 178.027 170.174 178.027C170.49 178.027 170.73 178.118 170.895 178.3C171.059 178.481 171.141 178.704 171.141 178.968C171.141 179.231 171.059 179.451 170.895 179.627C170.73 179.803 170.49 179.891 170.174 179.891C169.857 179.891 169.617 179.803 169.453 179.627C169.295 179.451 169.216 179.231 169.216 178.968ZM179.121 188.478C179.121 188.038 178.954 187.698 178.62 187.458C178.292 187.212 177.715 187.001 176.889 186.825C176.068 186.649 175.415 186.438 174.929 186.192C174.448 185.946 174.091 185.653 173.856 185.313C173.628 184.974 173.514 184.569 173.514 184.101C173.514 183.321 173.842 182.662 174.498 182.123C175.16 181.584 176.004 181.314 177.029 181.314C178.107 181.314 178.98 181.593 179.648 182.149C180.322 182.706 180.659 183.418 180.659 184.285H179.024C179.024 183.84 178.834 183.456 178.453 183.134C178.078 182.812 177.604 182.65 177.029 182.65C176.438 182.65 175.975 182.779 175.641 183.037C175.307 183.295 175.14 183.632 175.14 184.048C175.14 184.44 175.295 184.736 175.605 184.936C175.916 185.135 176.476 185.325 177.284 185.507C178.099 185.688 178.758 185.905 179.262 186.157C179.766 186.409 180.138 186.714 180.378 187.071C180.624 187.423 180.747 187.854 180.747 188.363C180.747 189.213 180.407 189.896 179.728 190.411C179.048 190.921 178.166 191.176 177.082 191.176C176.32 191.176 175.646 191.041 175.061 190.771C174.475 190.502 174.015 190.127 173.681 189.646C173.353 189.16 173.188 188.636 173.188 188.073H174.814C174.844 188.618 175.061 189.052 175.465 189.374C175.875 189.69 176.414 189.849 177.082 189.849C177.697 189.849 178.189 189.726 178.559 189.479C178.934 189.228 179.121 188.894 179.121 188.478ZM190.898 186.351C190.898 187.798 190.567 188.964 189.905 189.849C189.243 190.733 188.347 191.176 187.216 191.176C186.062 191.176 185.153 190.81 184.491 190.077V194.656H182.865V181.49H184.351L184.43 182.545C185.092 181.725 186.012 181.314 187.189 181.314C188.332 181.314 189.234 181.745 189.896 182.606C190.564 183.468 190.898 184.666 190.898 186.201V186.351ZM189.272 186.166C189.272 185.094 189.044 184.247 188.587 183.626C188.13 183.005 187.503 182.694 186.706 182.694C185.722 182.694 184.983 183.131 184.491 184.004V188.548C184.978 189.415 185.722 189.849 186.724 189.849C187.503 189.849 188.121 189.541 188.578 188.926C189.041 188.305 189.272 187.385 189.272 186.166ZM196.919 191.176C195.63 191.176 194.581 190.754 193.772 189.91C192.964 189.061 192.56 187.927 192.56 186.509V186.21C192.56 185.267 192.738 184.426 193.096 183.688C193.459 182.943 193.963 182.363 194.607 181.947C195.258 181.525 195.961 181.314 196.717 181.314C197.953 181.314 198.914 181.722 199.6 182.536C200.285 183.351 200.628 184.517 200.628 186.034V186.711H194.186C194.209 187.648 194.481 188.407 195.003 188.987C195.53 189.562 196.198 189.849 197.007 189.849C197.581 189.849 198.067 189.731 198.466 189.497C198.864 189.263 199.213 188.952 199.512 188.565L200.505 189.339C199.708 190.563 198.513 191.176 196.919 191.176ZM196.717 182.65C196.061 182.65 195.51 182.891 195.064 183.371C194.619 183.846 194.344 184.514 194.238 185.375H199.002V185.252C198.955 184.426 198.732 183.787 198.334 183.336C197.936 182.879 197.396 182.65 196.717 182.65ZM207.114 182.949C206.868 182.908 206.602 182.888 206.314 182.888C205.248 182.888 204.524 183.342 204.144 184.25V191H202.518V181.49H204.1L204.126 182.589C204.659 181.739 205.415 181.314 206.394 181.314C206.71 181.314 206.95 181.355 207.114 181.438V182.949ZM212.388 191.176C211.099 191.176 210.05 190.754 209.241 189.91C208.433 189.061 208.028 187.927 208.028 186.509V186.21C208.028 185.267 208.207 184.426 208.564 183.688C208.928 182.943 209.432 182.363 210.076 181.947C210.727 181.525 211.43 181.314 212.186 181.314C213.422 181.314 214.383 181.722 215.068 182.536C215.754 183.351 216.097 184.517 216.097 186.034V186.711H209.654C209.678 187.648 209.95 188.407 210.472 188.987C210.999 189.562 211.667 189.849 212.476 189.849C213.05 189.849 213.536 189.731 213.935 189.497C214.333 189.263 214.682 188.952 214.98 188.565L215.974 189.339C215.177 190.563 213.981 191.176 212.388 191.176ZM212.186 182.65C211.529 182.65 210.979 182.891 210.533 183.371C210.088 183.846 209.812 184.514 209.707 185.375H214.471V185.252C214.424 184.426 214.201 183.787 213.803 183.336C213.404 182.879 212.865 182.65 212.186 182.65ZM222.583 182.949C222.337 182.908 222.07 182.888 221.783 182.888C220.717 182.888 219.993 183.342 219.612 184.25V191H217.986V181.49H219.568L219.595 182.589C220.128 181.739 220.884 181.314 221.862 181.314C222.179 181.314 222.419 181.355 222.583 181.438V182.949ZM222.943 193.549L222.021 192.916C222.571 192.148 222.858 191.357 222.882 190.543V189.075H224.473V190.35C224.473 190.941 224.326 191.533 224.033 192.125C223.746 192.717 223.383 193.191 222.943 193.549ZM232.945 189.62H239.01V191H231.249V178.203H232.945V189.62ZM242.446 191H240.82V181.49H242.446V191ZM240.688 178.968C240.688 178.704 240.768 178.481 240.926 178.3C241.09 178.118 241.33 178.027 241.646 178.027C241.963 178.027 242.203 178.118 242.367 178.3C242.531 178.481 242.613 178.704 242.613 178.968C242.613 179.231 242.531 179.451 242.367 179.627C242.203 179.803 241.963 179.891 241.646 179.891C241.33 179.891 241.09 179.803 240.926 179.627C240.768 179.451 240.688 179.231 240.688 178.968ZM250.928 191C250.834 190.812 250.758 190.479 250.699 189.998C249.943 190.783 249.041 191.176 247.992 191.176C247.055 191.176 246.284 190.912 245.681 190.385C245.083 189.852 244.784 189.178 244.784 188.363C244.784 187.373 245.159 186.605 245.909 186.061C246.665 185.51 247.726 185.234 249.091 185.234H250.673V184.487C250.673 183.919 250.503 183.468 250.163 183.134C249.823 182.794 249.322 182.624 248.66 182.624C248.08 182.624 247.594 182.771 247.201 183.063C246.809 183.356 246.612 183.711 246.612 184.127H244.978C244.978 183.652 245.145 183.195 245.479 182.756C245.818 182.311 246.275 181.959 246.85 181.701C247.43 181.443 248.065 181.314 248.757 181.314C249.853 181.314 250.711 181.59 251.332 182.141C251.953 182.686 252.275 183.438 252.299 184.399V188.776C252.299 189.649 252.41 190.344 252.633 190.859V191H250.928ZM248.229 189.761C248.739 189.761 249.223 189.629 249.68 189.365C250.137 189.102 250.468 188.759 250.673 188.337V186.386H249.398C247.406 186.386 246.41 186.969 246.41 188.135C246.41 188.645 246.58 189.043 246.92 189.33C247.26 189.617 247.696 189.761 248.229 189.761ZM259.444 182.949C259.198 182.908 258.932 182.888 258.645 182.888C257.578 182.888 256.854 183.342 256.474 184.25V191H254.848V181.49H256.43L256.456 182.589C256.989 181.739 257.745 181.314 258.724 181.314C259.04 181.314 259.28 181.355 259.444 181.438V182.949ZM259.805 193.549L258.882 192.916C259.433 192.148 259.72 191.357 259.743 190.543V189.075H261.334V190.35C261.334 190.941 261.188 191.533 260.895 192.125C260.607 192.717 260.244 193.191 259.805 193.549ZM273.727 191C273.633 190.812 273.557 190.479 273.498 189.998C272.742 190.783 271.84 191.176 270.791 191.176C269.854 191.176 269.083 190.912 268.479 190.385C267.882 189.852 267.583 189.178 267.583 188.363C267.583 187.373 267.958 186.605 268.708 186.061C269.464 185.51 270.524 185.234 271.89 185.234H273.472V184.487C273.472 183.919 273.302 183.468 272.962 183.134C272.622 182.794 272.121 182.624 271.459 182.624C270.879 182.624 270.393 182.771 270 183.063C269.607 183.356 269.411 183.711 269.411 184.127H267.776C267.776 183.652 267.943 183.195 268.277 182.756C268.617 182.311 269.074 181.959 269.648 181.701C270.229 181.443 270.864 181.314 271.556 181.314C272.651 181.314 273.51 181.59 274.131 182.141C274.752 182.686 275.074 183.438 275.098 184.399V188.776C275.098 189.649 275.209 190.344 275.432 190.859V191H273.727ZM271.028 189.761C271.538 189.761 272.021 189.629 272.479 189.365C272.936 189.102 273.267 188.759 273.472 188.337V186.386H272.197C270.205 186.386 269.209 186.969 269.209 188.135C269.209 188.645 269.379 189.043 269.719 189.33C270.059 189.617 270.495 189.761 271.028 189.761ZM279.185 181.49L279.237 182.686C279.964 181.771 280.913 181.314 282.085 181.314C284.095 181.314 285.108 182.448 285.126 184.716V191H283.5V184.707C283.494 184.021 283.336 183.515 283.025 183.187C282.721 182.858 282.243 182.694 281.593 182.694C281.065 182.694 280.603 182.835 280.204 183.116C279.806 183.397 279.495 183.767 279.272 184.224V191H277.646V181.49H279.185ZM287.183 186.166C287.183 184.707 287.528 183.535 288.22 182.65C288.911 181.76 289.816 181.314 290.936 181.314C292.049 181.314 292.931 181.695 293.581 182.457V177.5H295.207V191H293.713L293.634 189.98C292.983 190.777 292.078 191.176 290.918 191.176C289.816 191.176 288.917 190.725 288.22 189.822C287.528 188.92 287.183 187.742 287.183 186.289V186.166ZM288.809 186.351C288.809 187.429 289.031 188.272 289.477 188.882C289.922 189.491 290.537 189.796 291.322 189.796C292.354 189.796 293.106 189.333 293.581 188.407V184.039C293.095 183.143 292.348 182.694 291.34 182.694C290.543 182.694 289.922 183.002 289.477 183.617C289.031 184.232 288.809 185.144 288.809 186.351ZM303.97 191H302.344V177.5H303.97V191ZM310.526 191.176C309.237 191.176 308.188 190.754 307.38 189.91C306.571 189.061 306.167 187.927 306.167 186.509V186.21C306.167 185.267 306.346 184.426 306.703 183.688C307.066 182.943 307.57 182.363 308.215 181.947C308.865 181.525 309.568 181.314 310.324 181.314C311.561 181.314 312.521 181.722 313.207 182.536C313.893 183.351 314.235 184.517 314.235 186.034V186.711H307.793C307.816 187.648 308.089 188.407 308.61 188.987C309.138 189.562 309.806 189.849 310.614 189.849C311.188 189.849 311.675 189.731 312.073 189.497C312.472 189.263 312.82 188.952 313.119 188.565L314.112 189.339C313.315 190.563 312.12 191.176 310.526 191.176ZM310.324 182.65C309.668 182.65 309.117 182.891 308.672 183.371C308.227 183.846 307.951 184.514 307.846 185.375H312.609V185.252C312.562 184.426 312.34 183.787 311.941 183.336C311.543 182.879 311.004 182.65 310.324 182.65ZM321.996 191C321.902 190.812 321.826 190.479 321.768 189.998C321.012 190.783 320.109 191.176 319.061 191.176C318.123 191.176 317.353 190.912 316.749 190.385C316.151 189.852 315.853 189.178 315.853 188.363C315.853 187.373 316.228 186.605 316.978 186.061C317.733 185.51 318.794 185.234 320.159 185.234H321.741V184.487C321.741 183.919 321.571 183.468 321.231 183.134C320.892 182.794 320.391 182.624 319.729 182.624C319.148 182.624 318.662 182.771 318.27 183.063C317.877 183.356 317.681 183.711 317.681 184.127H316.046C316.046 183.652 316.213 183.195 316.547 182.756C316.887 182.311 317.344 181.959 317.918 181.701C318.498 181.443 319.134 181.314 319.825 181.314C320.921 181.314 321.779 181.59 322.4 182.141C323.021 182.686 323.344 183.438 323.367 184.399V188.776C323.367 189.649 323.479 190.344 323.701 190.859V191H321.996ZM319.298 189.761C319.808 189.761 320.291 189.629 320.748 189.365C321.205 189.102 321.536 188.759 321.741 188.337V186.386H320.467C318.475 186.386 317.479 186.969 317.479 188.135C317.479 188.645 317.648 189.043 317.988 189.33C318.328 189.617 318.765 189.761 319.298 189.761ZM331.453 188.478C331.453 188.038 331.286 187.698 330.952 187.458C330.624 187.212 330.047 187.001 329.221 186.825C328.4 186.649 327.747 186.438 327.261 186.192C326.78 185.946 326.423 185.653 326.188 185.313C325.96 184.974 325.846 184.569 325.846 184.101C325.846 183.321 326.174 182.662 326.83 182.123C327.492 181.584 328.336 181.314 329.361 181.314C330.439 181.314 331.312 181.593 331.98 182.149C332.654 182.706 332.991 183.418 332.991 184.285H331.356C331.356 183.84 331.166 183.456 330.785 183.134C330.41 182.812 329.936 182.65 329.361 182.65C328.77 182.65 328.307 182.779 327.973 183.037C327.639 183.295 327.472 183.632 327.472 184.048C327.472 184.44 327.627 184.736 327.938 184.936C328.248 185.135 328.808 185.325 329.616 185.507C330.431 185.688 331.09 185.905 331.594 186.157C332.098 186.409 332.47 186.714 332.71 187.071C332.956 187.423 333.079 187.854 333.079 188.363C333.079 189.213 332.739 189.896 332.06 190.411C331.38 190.921 330.498 191.176 329.414 191.176C328.652 191.176 327.979 191.041 327.393 190.771C326.807 190.502 326.347 190.127 326.013 189.646C325.685 189.16 325.521 188.636 325.521 188.073H327.146C327.176 188.618 327.393 189.052 327.797 189.374C328.207 189.69 328.746 189.849 329.414 189.849C330.029 189.849 330.521 189.726 330.891 189.479C331.266 189.228 331.453 188.894 331.453 188.478ZM337.403 179.188V181.49H339.179V182.747H337.403V188.645C337.403 189.025 337.482 189.312 337.641 189.506C337.799 189.693 338.068 189.787 338.449 189.787C338.637 189.787 338.895 189.752 339.223 189.682V191C338.795 191.117 338.379 191.176 337.975 191.176C337.248 191.176 336.7 190.956 336.331 190.517C335.962 190.077 335.777 189.453 335.777 188.645V182.747H334.046V181.49H335.777V179.188H337.403ZM347.317 191H345.691V181.49H347.317V191ZM345.56 178.968C345.56 178.704 345.639 178.481 345.797 178.3C345.961 178.118 346.201 178.027 346.518 178.027C346.834 178.027 347.074 178.118 347.238 178.3C347.402 178.481 347.484 178.704 347.484 178.968C347.484 179.231 347.402 179.451 347.238 179.627C347.074 179.803 346.834 179.891 346.518 179.891C346.201 179.891 345.961 179.803 345.797 179.627C345.639 179.451 345.56 179.231 345.56 178.968ZM351.457 181.49L351.501 182.545C352.198 181.725 353.139 181.314 354.322 181.314C355.652 181.314 356.558 181.824 357.038 182.844C357.354 182.387 357.765 182.018 358.269 181.736C358.778 181.455 359.379 181.314 360.07 181.314C362.156 181.314 363.217 182.419 363.252 184.628V191H361.626V184.725C361.626 184.045 361.471 183.538 361.16 183.204C360.85 182.864 360.328 182.694 359.596 182.694C358.992 182.694 358.491 182.876 358.093 183.239C357.694 183.597 357.463 184.08 357.398 184.689V191H355.764V184.769C355.764 183.386 355.087 182.694 353.733 182.694C352.667 182.694 351.938 183.148 351.545 184.057V191H349.919V181.49H351.457ZM373.746 186.351C373.746 187.798 373.415 188.964 372.753 189.849C372.091 190.733 371.194 191.176 370.063 191.176C368.909 191.176 368.001 190.81 367.339 190.077V194.656H365.713V181.49H367.198L367.277 182.545C367.939 181.725 368.859 181.314 370.037 181.314C371.18 181.314 372.082 181.745 372.744 182.606C373.412 183.468 373.746 184.666 373.746 186.201V186.351ZM372.12 186.166C372.12 185.094 371.892 184.247 371.435 183.626C370.978 183.005 370.351 182.694 369.554 182.694C368.569 182.694 367.831 183.131 367.339 184.004V188.548C367.825 189.415 368.569 189.849 369.571 189.849C370.351 189.849 370.969 189.541 371.426 188.926C371.889 188.305 372.12 187.385 372.12 186.166ZM375.39 186.157C375.39 185.226 375.571 184.388 375.935 183.644C376.304 182.899 376.813 182.325 377.464 181.921C378.12 181.517 378.867 181.314 379.705 181.314C381 181.314 382.046 181.763 382.843 182.659C383.646 183.556 384.047 184.748 384.047 186.236V186.351C384.047 187.276 383.868 188.108 383.511 188.847C383.159 189.579 382.652 190.15 381.99 190.561C381.334 190.971 380.578 191.176 379.723 191.176C378.434 191.176 377.388 190.728 376.585 189.831C375.788 188.935 375.39 187.748 375.39 186.271V186.157ZM377.024 186.351C377.024 187.405 377.268 188.252 377.754 188.891C378.246 189.529 378.902 189.849 379.723 189.849C380.549 189.849 381.205 189.526 381.691 188.882C382.178 188.231 382.421 187.323 382.421 186.157C382.421 185.114 382.172 184.271 381.674 183.626C381.182 182.976 380.525 182.65 379.705 182.65C378.902 182.65 378.255 182.97 377.763 183.608C377.271 184.247 377.024 185.161 377.024 186.351ZM390.683 182.949C390.437 182.908 390.17 182.888 389.883 182.888C388.816 182.888 388.093 183.342 387.712 184.25V191H386.086V181.49H387.668L387.694 182.589C388.228 181.739 388.983 181.314 389.962 181.314C390.278 181.314 390.519 181.355 390.683 181.438V182.949ZM394.831 179.188V181.49H396.606V182.747H394.831V188.645C394.831 189.025 394.91 189.312 395.068 189.506C395.227 189.693 395.496 189.787 395.877 189.787C396.064 189.787 396.322 189.752 396.65 189.682V191C396.223 191.117 395.807 191.176 395.402 191.176C394.676 191.176 394.128 190.956 393.759 190.517C393.39 190.077 393.205 189.453 393.205 188.645V182.747H391.474V181.49H393.205V179.188H394.831ZM404.385 191C404.291 190.812 404.215 190.479 404.156 189.998C403.4 190.783 402.498 191.176 401.449 191.176C400.512 191.176 399.741 190.912 399.138 190.385C398.54 189.852 398.241 189.178 398.241 188.363C398.241 187.373 398.616 186.605 399.366 186.061C400.122 185.51 401.183 185.234 402.548 185.234H404.13V184.487C404.13 183.919 403.96 183.468 403.62 183.134C403.28 182.794 402.779 182.624 402.117 182.624C401.537 182.624 401.051 182.771 400.658 183.063C400.266 183.356 400.069 183.711 400.069 184.127H398.435C398.435 183.652 398.602 183.195 398.936 182.756C399.275 182.311 399.732 181.959 400.307 181.701C400.887 181.443 401.522 181.314 402.214 181.314C403.31 181.314 404.168 181.59 404.789 182.141C405.41 182.686 405.732 183.438 405.756 184.399V188.776C405.756 189.649 405.867 190.344 406.09 190.859V191H404.385ZM401.687 189.761C402.196 189.761 402.68 189.629 403.137 189.365C403.594 189.102 403.925 188.759 404.13 188.337V186.386H402.855C400.863 186.386 399.867 186.969 399.867 188.135C399.867 188.645 400.037 189.043 400.377 189.33C400.717 189.617 401.153 189.761 401.687 189.761ZM409.843 181.49L409.896 182.686C410.622 181.771 411.571 181.314 412.743 181.314C414.753 181.314 415.767 182.448 415.784 184.716V191H414.158V184.707C414.152 184.021 413.994 183.515 413.684 183.187C413.379 182.858 412.901 182.694 412.251 182.694C411.724 182.694 411.261 182.835 410.862 183.116C410.464 183.397 410.153 183.767 409.931 184.224V191H408.305V181.49H409.843ZM420.442 179.188V181.49H422.218V182.747H420.442V188.645C420.442 189.025 420.521 189.312 420.68 189.506C420.838 189.693 421.107 189.787 421.488 189.787C421.676 189.787 421.934 189.752 422.262 189.682V191C421.834 191.117 421.418 191.176 421.014 191.176C420.287 191.176 419.739 190.956 419.37 190.517C419.001 190.077 418.816 189.453 418.816 188.645V182.747H417.085V181.49H418.816V179.188H420.442ZM425.892 191H424.266V177.5H425.892V191ZM431.613 188.618L433.828 181.49H435.568L431.745 192.468C431.153 194.05 430.213 194.841 428.924 194.841L428.616 194.814L428.01 194.7V193.382L428.449 193.417C429 193.417 429.428 193.306 429.732 193.083C430.043 192.86 430.298 192.453 430.497 191.861L430.857 190.895L427.465 181.49H429.24L431.613 188.618ZM444.876 186.228H440.587V184.9H444.876V186.228ZM451.187 191V178.203H454.799C455.912 178.203 456.896 178.449 457.752 178.941C458.607 179.434 459.267 180.134 459.729 181.042C460.198 181.95 460.436 182.993 460.441 184.171V184.988C460.441 186.195 460.207 187.253 459.738 188.161C459.275 189.069 458.61 189.767 457.743 190.253C456.882 190.739 455.877 190.988 454.729 191H451.187ZM452.874 179.592V189.62H454.649C455.95 189.62 456.961 189.216 457.682 188.407C458.408 187.599 458.771 186.447 458.771 184.953V184.206C458.771 182.753 458.429 181.625 457.743 180.822C457.063 180.014 456.097 179.604 454.843 179.592H452.874ZM466.69 191.176C465.401 191.176 464.353 190.754 463.544 189.91C462.735 189.061 462.331 187.927 462.331 186.509V186.21C462.331 185.267 462.51 184.426 462.867 183.688C463.23 182.943 463.734 182.363 464.379 181.947C465.029 181.525 465.732 181.314 466.488 181.314C467.725 181.314 468.686 181.722 469.371 182.536C470.057 183.351 470.399 184.517 470.399 186.034V186.711H463.957C463.98 187.648 464.253 188.407 464.774 188.987C465.302 189.562 465.97 189.849 466.778 189.849C467.353 189.849 467.839 189.731 468.237 189.497C468.636 189.263 468.984 188.952 469.283 188.565L470.276 189.339C469.479 190.563 468.284 191.176 466.69 191.176ZM466.488 182.65C465.832 182.65 465.281 182.891 464.836 183.371C464.391 183.846 464.115 184.514 464.01 185.375H468.773V185.252C468.727 184.426 468.504 183.787 468.105 183.336C467.707 182.879 467.168 182.65 466.488 182.65ZM475.304 188.794L477.659 181.49H479.32L475.91 191H474.671L471.226 181.49H472.887L475.304 188.794ZM484.708 191.176C483.419 191.176 482.37 190.754 481.562 189.91C480.753 189.061 480.349 187.927 480.349 186.509V186.21C480.349 185.267 480.527 184.426 480.885 183.688C481.248 182.943 481.752 182.363 482.396 181.947C483.047 181.525 483.75 181.314 484.506 181.314C485.742 181.314 486.703 181.722 487.389 182.536C488.074 183.351 488.417 184.517 488.417 186.034V186.711H481.975C481.998 187.648 482.271 188.407 482.792 188.987C483.319 189.562 483.987 189.849 484.796 189.849C485.37 189.849 485.856 189.731 486.255 189.497C486.653 189.263 487.002 188.952 487.301 188.565L488.294 189.339C487.497 190.563 486.302 191.176 484.708 191.176ZM484.506 182.65C483.85 182.65 483.299 182.891 482.854 183.371C482.408 183.846 482.133 184.514 482.027 185.375H486.791V185.252C486.744 184.426 486.521 183.787 486.123 183.336C485.725 182.879 485.186 182.65 484.506 182.65ZM492.073 191H490.447V177.5H492.073V191ZM494.253 186.157C494.253 185.226 494.435 184.388 494.798 183.644C495.167 182.899 495.677 182.325 496.327 181.921C496.983 181.517 497.73 181.314 498.568 181.314C499.863 181.314 500.909 181.763 501.706 182.659C502.509 183.556 502.91 184.748 502.91 186.236V186.351C502.91 187.276 502.731 188.108 502.374 188.847C502.022 189.579 501.516 190.15 500.854 190.561C500.197 190.971 499.441 191.176 498.586 191.176C497.297 191.176 496.251 190.728 495.448 189.831C494.651 188.935 494.253 187.748 494.253 186.271V186.157ZM495.888 186.351C495.888 187.405 496.131 188.252 496.617 188.891C497.109 189.529 497.766 189.849 498.586 189.849C499.412 189.849 500.068 189.526 500.555 188.882C501.041 188.231 501.284 187.323 501.284 186.157C501.284 185.114 501.035 184.271 500.537 183.626C500.045 182.976 499.389 182.65 498.568 182.65C497.766 182.65 497.118 182.97 496.626 183.608C496.134 184.247 495.888 185.161 495.888 186.351ZM512.982 186.351C512.982 187.798 512.651 188.964 511.989 189.849C511.327 190.733 510.431 191.176 509.3 191.176C508.146 191.176 507.237 190.81 506.575 190.077V194.656H504.949V181.49H506.435L506.514 182.545C507.176 181.725 508.096 181.314 509.273 181.314C510.416 181.314 511.318 181.745 511.98 182.606C512.648 183.468 512.982 184.666 512.982 186.201V186.351ZM511.356 186.166C511.356 185.094 511.128 184.247 510.671 183.626C510.214 183.005 509.587 182.694 508.79 182.694C507.806 182.694 507.067 183.131 506.575 184.004V188.548C507.062 189.415 507.806 189.849 508.808 189.849C509.587 189.849 510.205 189.541 510.662 188.926C511.125 188.305 511.356 187.385 511.356 186.166ZM519.003 191.176C517.714 191.176 516.665 190.754 515.856 189.91C515.048 189.061 514.644 187.927 514.644 186.509V186.21C514.644 185.267 514.822 184.426 515.18 183.688C515.543 182.943 516.047 182.363 516.691 181.947C517.342 181.525 518.045 181.314 518.801 181.314C520.037 181.314 520.998 181.722 521.684 182.536C522.369 183.351 522.712 184.517 522.712 186.034V186.711H516.27C516.293 187.648 516.565 188.407 517.087 188.987C517.614 189.562 518.282 189.849 519.091 189.849C519.665 189.849 520.151 189.731 520.55 189.497C520.948 189.263 521.297 188.952 521.596 188.565L522.589 189.339C521.792 190.563 520.597 191.176 519.003 191.176ZM518.801 182.65C518.145 182.65 517.594 182.891 517.148 183.371C516.703 183.846 516.428 184.514 516.322 185.375H521.086V185.252C521.039 184.426 520.816 183.787 520.418 183.336C520.02 182.879 519.48 182.65 518.801 182.65ZM529.198 182.949C528.952 182.908 528.686 182.888 528.398 182.888C527.332 182.888 526.608 183.342 526.228 184.25V191H524.602V181.49H526.184L526.21 182.589C526.743 181.739 527.499 181.314 528.478 181.314C528.794 181.314 529.034 181.355 529.198 181.438V182.949ZM529.646 190.147C529.646 189.866 529.729 189.632 529.893 189.444C530.062 189.257 530.314 189.163 530.648 189.163C530.982 189.163 531.234 189.257 531.404 189.444C531.58 189.632 531.668 189.866 531.668 190.147C531.668 190.417 531.58 190.643 531.404 190.824C531.234 191.006 530.982 191.097 530.648 191.097C530.314 191.097 530.062 191.006 529.893 190.824C529.729 190.643 529.646 190.417 529.646 190.147Z" fill="black"/>
<path d="M256.939 250.061C257.525 250.646 258.475 250.646 259.061 250.061L268.607 240.515C269.192 239.929 269.192 238.979 268.607 238.393C268.021 237.808 267.071 237.808 266.485 238.393L258 246.879L249.515 238.393C248.929 237.808 247.979 237.808 247.393 238.393C246.808 238.979 246.808 239.929 247.393 240.515L256.939 250.061ZM256.5 220L256.5 249L259.5 249L259.5 220L256.5 220Z" fill="black"/>
</svg>
