<svg width="364" height="271" viewBox="0 0 364 271" fill="none" xmlns="http://www.w3.org/2000/svg">
<path d="M176.5 68L177.008 129" stroke="black" stroke-width="3"/>
<circle cx="176.5" cy="47.5" r="19.5" stroke="black" stroke-width="2"/>
<path d="M176.5 90L195 78.5" stroke="black" stroke-width="2"/>
<path d="M176.5 89.5L158 78" stroke="black" stroke-width="2"/>
<path d="M176.5 128L163 143.5" stroke="black" stroke-width="2"/>
<path d="M177 128L190.5 143.5" stroke="black" stroke-width="2"/>
<circle cx="170" cy="44" r="3" fill="black"/>
<circle cx="181" cy="44" r="3" fill="black"/>
<path d="M166 53C169.333 57.6667 177.9 64.2 185.5 53" stroke="black"/>
<path d="M229.665 4.20312L233.849 14.6445L238.032 4.20312H240.221V17H238.533V12.0166L238.691 6.6377L234.49 17H233.198L229.006 6.66406L229.173 12.0166V17H227.485V4.20312H229.665ZM246.892 17.1758C245.603 17.1758 244.554 16.7539 243.745 15.9102C242.937 15.0605 242.532 13.9268 242.532 12.5088V12.21C242.532 11.2666 242.711 10.4258 243.068 9.6875C243.432 8.94336 243.936 8.36328 244.58 7.94727C245.23 7.52539 245.934 7.31445 246.689 7.31445C247.926 7.31445 248.887 7.72168 249.572 8.53613C250.258 9.35059 250.601 10.5166 250.601 12.0342V12.7109H244.158C244.182 13.6484 244.454 14.4072 244.976 14.9873C245.503 15.5615 246.171 15.8486 246.979 15.8486C247.554 15.8486 248.04 15.7314 248.438 15.4971C248.837 15.2627 249.186 14.9521 249.484 14.5654L250.478 15.3389C249.681 16.5635 248.485 17.1758 246.892 17.1758ZM246.689 8.65039C246.033 8.65039 245.482 8.89062 245.037 9.37109C244.592 9.8457 244.316 10.5137 244.211 11.375H248.975V11.252C248.928 10.4258 248.705 9.78711 248.307 9.33594C247.908 8.87891 247.369 8.65039 246.689 8.65039ZM256.894 11.8057C256.894 10.4814 257.069 9.20996 257.421 7.99121C257.778 6.77246 258.309 5.66504 259.012 4.66895C259.715 3.67285 260.444 2.96973 261.2 2.55957L261.534 3.63184C260.679 4.28809 259.976 5.29004 259.425 6.6377C258.88 7.98535 258.581 9.49414 258.528 11.1641L258.52 11.9111C258.52 14.1729 258.933 16.1357 259.759 17.7998C260.257 18.7959 260.849 19.5752 261.534 20.1377L261.2 21.1309C260.421 20.6973 259.677 19.9707 258.968 18.9512C257.585 16.959 256.894 14.5771 256.894 11.8057ZM268.724 4.20312H270.42V13.2646C270.42 14.4893 270.051 15.4473 269.312 16.1387C268.58 16.8301 267.602 17.1758 266.377 17.1758C265.105 17.1758 264.115 16.8506 263.406 16.2002C262.697 15.5498 262.343 14.6387 262.343 13.4668H264.03C264.03 14.1992 264.229 14.7705 264.628 15.1807C265.032 15.5908 265.615 15.7959 266.377 15.7959C267.074 15.7959 267.637 15.5762 268.064 15.1367C268.498 14.6973 268.718 14.082 268.724 13.291V4.20312ZM278.91 17C278.816 16.8125 278.74 16.4785 278.682 15.998C277.926 16.7832 277.023 17.1758 275.975 17.1758C275.037 17.1758 274.267 16.9121 273.663 16.3848C273.065 15.8516 272.767 15.1777 272.767 14.3633C272.767 13.373 273.142 12.6055 273.892 12.0605C274.647 11.5098 275.708 11.2344 277.073 11.2344H278.655V10.4873C278.655 9.91895 278.485 9.46777 278.146 9.13379C277.806 8.79395 277.305 8.62402 276.643 8.62402C276.062 8.62402 275.576 8.77051 275.184 9.06348C274.791 9.35645 274.595 9.71094 274.595 10.127H272.96C272.96 9.65234 273.127 9.19531 273.461 8.75586C273.801 8.31055 274.258 7.95898 274.832 7.70117C275.412 7.44336 276.048 7.31445 276.739 7.31445C277.835 7.31445 278.693 7.58984 279.314 8.14062C279.936 8.68555 280.258 9.43848 280.281 10.3994V14.7764C280.281 15.6494 280.393 16.3438 280.615 16.8594V17H278.91ZM276.212 15.7607C276.722 15.7607 277.205 15.6289 277.662 15.3652C278.119 15.1016 278.45 14.7588 278.655 14.3369V12.3857H277.381C275.389 12.3857 274.393 12.9688 274.393 14.1348C274.393 14.6445 274.562 15.043 274.902 15.3301C275.242 15.6172 275.679 15.7607 276.212 15.7607ZM286.645 15.8486C287.225 15.8486 287.731 15.6729 288.165 15.3213C288.599 14.9697 288.839 14.5303 288.886 14.0029H290.424C290.395 14.5479 290.207 15.0664 289.861 15.5586C289.516 16.0508 289.053 16.4434 288.473 16.7363C287.898 17.0293 287.289 17.1758 286.645 17.1758C285.35 17.1758 284.318 16.7451 283.551 15.8838C282.789 15.0166 282.408 13.833 282.408 12.333V12.0605C282.408 11.1348 282.578 10.3115 282.918 9.59082C283.258 8.87012 283.744 8.31055 284.377 7.91211C285.016 7.51367 285.769 7.31445 286.636 7.31445C287.702 7.31445 288.587 7.63379 289.29 8.27246C289.999 8.91113 290.377 9.74023 290.424 10.7598H288.886C288.839 10.1445 288.604 9.64062 288.183 9.24805C287.767 8.84961 287.251 8.65039 286.636 8.65039C285.81 8.65039 285.168 8.94922 284.711 9.54688C284.26 10.1387 284.034 10.9971 284.034 12.1221V12.4297C284.034 13.5254 284.26 14.3691 284.711 14.9609C285.162 15.5527 285.807 15.8486 286.645 15.8486ZM294.906 12.5967L293.887 13.6602V17H292.261V3.5H293.887V11.665L294.757 10.6191L297.719 7.49023H299.696L295.996 11.4629L300.127 17H298.22L294.906 12.5967ZM306.095 17V4.20312H310.278C311.667 4.20312 312.71 4.49023 313.407 5.06445C314.11 5.63867 314.462 6.48828 314.462 7.61328C314.462 8.21094 314.292 8.74121 313.952 9.2041C313.612 9.66113 313.149 10.0156 312.563 10.2676C313.255 10.4609 313.8 10.8301 314.198 11.375C314.603 11.9141 314.805 12.5586 314.805 13.3086C314.805 14.457 314.433 15.3594 313.688 16.0156C312.944 16.6719 311.893 17 310.533 17H306.095ZM307.782 11.0146V15.6201H310.568C311.354 15.6201 311.972 15.418 312.423 15.0137C312.88 14.6035 313.108 14.041 313.108 13.3262C313.108 11.7852 312.271 11.0146 310.595 11.0146H307.782ZM307.782 9.66113H310.331C311.069 9.66113 311.658 9.47656 312.098 9.10742C312.543 8.73828 312.766 8.2373 312.766 7.60449C312.766 6.90137 312.561 6.3916 312.15 6.0752C311.74 5.75293 311.116 5.5918 310.278 5.5918H307.782V9.66113ZM322.926 16.0596C322.293 16.8037 321.364 17.1758 320.14 17.1758C319.126 17.1758 318.353 16.8828 317.819 16.2969C317.292 15.7051 317.025 14.832 317.02 13.6777V7.49023H318.646V13.6338C318.646 15.0752 319.231 15.7959 320.403 15.7959C321.646 15.7959 322.472 15.333 322.882 14.4072V7.49023H324.508V17H322.961L322.926 16.0596ZM331.583 8.94922C331.337 8.9082 331.07 8.8877 330.783 8.8877C329.717 8.8877 328.993 9.3418 328.612 10.25V17H326.986V7.49023H328.568L328.595 8.58887C329.128 7.73926 329.884 7.31445 330.862 7.31445C331.179 7.31445 331.419 7.35547 331.583 7.4375V8.94922ZM337.683 8.94922C337.437 8.9082 337.17 8.8877 336.883 8.8877C335.816 8.8877 335.093 9.3418 334.712 10.25V17H333.086V7.49023H334.668L334.694 8.58887C335.228 7.73926 335.983 7.31445 336.962 7.31445C337.278 7.31445 337.519 7.35547 337.683 7.4375V8.94922ZM345.057 16.0596C344.424 16.8037 343.495 17.1758 342.271 17.1758C341.257 17.1758 340.483 16.8828 339.95 16.2969C339.423 15.7051 339.156 14.832 339.15 13.6777V7.49023H340.776V13.6338C340.776 15.0752 341.362 15.7959 342.534 15.7959C343.776 15.7959 344.603 15.333 345.013 14.4072V7.49023H346.639V17H345.092L345.057 16.0596ZM354.654 14.4775C354.654 14.0381 354.487 13.6982 354.153 13.458C353.825 13.2119 353.248 13.001 352.422 12.8252C351.602 12.6494 350.948 12.4385 350.462 12.1924C349.981 11.9463 349.624 11.6533 349.39 11.3135C349.161 10.9736 349.047 10.5693 349.047 10.1006C349.047 9.32129 349.375 8.66211 350.031 8.12305C350.693 7.58398 351.537 7.31445 352.562 7.31445C353.641 7.31445 354.514 7.59277 355.182 8.14941C355.855 8.70605 356.192 9.41797 356.192 10.2852H354.558C354.558 9.83984 354.367 9.45605 353.986 9.13379C353.611 8.81152 353.137 8.65039 352.562 8.65039C351.971 8.65039 351.508 8.7793 351.174 9.03711C350.84 9.29492 350.673 9.63184 350.673 10.0479C350.673 10.4404 350.828 10.7363 351.139 10.9355C351.449 11.1348 352.009 11.3252 352.817 11.5068C353.632 11.6885 354.291 11.9053 354.795 12.1572C355.299 12.4092 355.671 12.7139 355.911 13.0713C356.157 13.4229 356.28 13.8535 356.28 14.3633C356.28 15.2129 355.94 15.8955 355.261 16.4111C354.581 16.9209 353.699 17.1758 352.615 17.1758C351.854 17.1758 351.18 17.041 350.594 16.7715C350.008 16.502 349.548 16.127 349.214 15.6465C348.886 15.1602 348.722 14.6357 348.722 14.0732H350.348C350.377 14.6182 350.594 15.0518 350.998 15.374C351.408 15.6904 351.947 15.8486 352.615 15.8486C353.23 15.8486 353.723 15.7256 354.092 15.4795C354.467 15.2275 354.654 14.8936 354.654 14.4775ZM362.151 11.8936C362.151 13.2002 361.979 14.4541 361.633 15.6553C361.293 16.8506 360.769 17.9551 360.06 18.9688C359.356 19.9824 358.618 20.7031 357.845 21.1309L357.502 20.1377C358.404 19.4463 359.128 18.374 359.673 16.9209C360.224 15.4619 360.505 13.8447 360.517 12.0693V11.7881C360.517 10.5576 360.388 9.41504 360.13 8.36035C359.872 7.2998 359.512 6.35059 359.049 5.5127C358.592 4.6748 358.076 4.02148 357.502 3.55273L357.845 2.55957C358.618 2.9873 359.354 3.70215 360.051 4.7041C360.754 5.70605 361.278 6.81055 361.624 8.01758C361.976 9.22461 362.151 10.5166 362.151 11.8936Z" fill="black"/>
<path d="M200.506 32.2738C200.463 32.5464 200.648 32.8031 200.921 32.847L205.363 33.5627C205.636 33.6066 205.893 33.4212 205.936 33.1486C205.98 32.8759 205.795 32.6193 205.522 32.5754L201.573 31.9392L202.209 27.9901C202.253 27.7175 202.068 27.4609 201.795 27.417C201.523 27.3731 201.266 27.5585 201.222 27.8311L200.506 32.2738ZM221.957 16.5947L200.707 31.9481L201.293 32.7586L222.543 17.4053L221.957 16.5947Z" fill="black"/>
<path d="M119.697 159.592H115.584V171H113.905V159.592H109.801V158.203H119.697V159.592ZM122.967 162.642C123.688 161.757 124.625 161.314 125.779 161.314C127.789 161.314 128.803 162.448 128.82 164.716V171H127.194V164.707C127.188 164.021 127.03 163.515 126.72 163.187C126.415 162.858 125.938 162.694 125.287 162.694C124.76 162.694 124.297 162.835 123.898 163.116C123.5 163.397 123.189 163.767 122.967 164.224V171H121.341V157.5H122.967V162.642ZM133.021 171H131.396V161.49H133.021V171ZM131.264 158.968C131.264 158.704 131.343 158.481 131.501 158.3C131.665 158.118 131.905 158.027 132.222 158.027C132.538 158.027 132.778 158.118 132.942 158.3C133.106 158.481 133.188 158.704 133.188 158.968C133.188 159.231 133.106 159.451 132.942 159.627C132.778 159.803 132.538 159.891 132.222 159.891C131.905 159.891 131.665 159.803 131.501 159.627C131.343 159.451 131.264 159.231 131.264 158.968ZM139.446 169.849C140.026 169.849 140.533 169.673 140.967 169.321C141.4 168.97 141.641 168.53 141.688 168.003H143.226C143.196 168.548 143.009 169.066 142.663 169.559C142.317 170.051 141.854 170.443 141.274 170.736C140.7 171.029 140.091 171.176 139.446 171.176C138.151 171.176 137.12 170.745 136.353 169.884C135.591 169.017 135.21 167.833 135.21 166.333V166.061C135.21 165.135 135.38 164.312 135.72 163.591C136.06 162.87 136.546 162.311 137.179 161.912C137.817 161.514 138.57 161.314 139.438 161.314C140.504 161.314 141.389 161.634 142.092 162.272C142.801 162.911 143.179 163.74 143.226 164.76H141.688C141.641 164.145 141.406 163.641 140.984 163.248C140.568 162.85 140.053 162.65 139.438 162.65C138.611 162.65 137.97 162.949 137.513 163.547C137.062 164.139 136.836 164.997 136.836 166.122V166.43C136.836 167.525 137.062 168.369 137.513 168.961C137.964 169.553 138.608 169.849 139.446 169.849ZM147.708 166.597L146.688 167.66V171H145.062V157.5H146.688V165.665L147.559 164.619L150.521 161.49H152.498L148.798 165.463L152.929 171H151.021L147.708 166.597ZM157.947 171.176C156.658 171.176 155.609 170.754 154.801 169.91C153.992 169.061 153.588 167.927 153.588 166.509V166.21C153.588 165.267 153.767 164.426 154.124 163.688C154.487 162.943 154.991 162.363 155.636 161.947C156.286 161.525 156.989 161.314 157.745 161.314C158.981 161.314 159.942 161.722 160.628 162.536C161.313 163.351 161.656 164.517 161.656 166.034V166.711H155.214C155.237 167.648 155.51 168.407 156.031 168.987C156.559 169.562 157.227 169.849 158.035 169.849C158.609 169.849 159.096 169.731 159.494 169.497C159.893 169.263 160.241 168.952 160.54 168.565L161.533 169.339C160.736 170.563 159.541 171.176 157.947 171.176ZM157.745 162.65C157.089 162.65 156.538 162.891 156.093 163.371C155.647 163.846 155.372 164.514 155.267 165.375H160.03V165.252C159.983 164.426 159.761 163.787 159.362 163.336C158.964 162.879 158.425 162.65 157.745 162.65ZM168.143 162.949C167.896 162.908 167.63 162.888 167.343 162.888C166.276 162.888 165.553 163.342 165.172 164.25V171H163.546V161.49H165.128L165.154 162.589C165.688 161.739 166.443 161.314 167.422 161.314C167.738 161.314 167.979 161.355 168.143 161.438V162.949ZM175.877 171H174.251V161.49H175.877V171ZM174.119 158.968C174.119 158.704 174.198 158.481 174.356 158.3C174.521 158.118 174.761 158.027 175.077 158.027C175.394 158.027 175.634 158.118 175.798 158.3C175.962 158.481 176.044 158.704 176.044 158.968C176.044 159.231 175.962 159.451 175.798 159.627C175.634 159.803 175.394 159.891 175.077 159.891C174.761 159.891 174.521 159.803 174.356 159.627C174.198 159.451 174.119 159.231 174.119 158.968ZM180.025 161.49L180.078 162.686C180.805 161.771 181.754 161.314 182.926 161.314C184.936 161.314 185.949 162.448 185.967 164.716V171H184.341V164.707C184.335 164.021 184.177 163.515 183.866 163.187C183.562 162.858 183.084 162.694 182.434 162.694C181.906 162.694 181.443 162.835 181.045 163.116C180.646 163.397 180.336 163.767 180.113 164.224V171H178.487V161.49H180.025ZM200.917 166.351C200.917 167.798 200.586 168.964 199.924 169.849C199.262 170.733 198.365 171.176 197.234 171.176C196.08 171.176 195.172 170.81 194.51 170.077V174.656H192.884V161.49H194.369L194.448 162.545C195.11 161.725 196.03 161.314 197.208 161.314C198.351 161.314 199.253 161.745 199.915 162.606C200.583 163.468 200.917 164.666 200.917 166.201V166.351ZM199.291 166.166C199.291 165.094 199.062 164.247 198.605 163.626C198.148 163.005 197.521 162.694 196.725 162.694C195.74 162.694 195.002 163.131 194.51 164.004V168.548C194.996 169.415 195.74 169.849 196.742 169.849C197.521 169.849 198.14 169.541 198.597 168.926C199.06 168.305 199.291 167.385 199.291 166.166ZM206.938 171.176C205.648 171.176 204.6 170.754 203.791 169.91C202.982 169.061 202.578 167.927 202.578 166.509V166.21C202.578 165.267 202.757 164.426 203.114 163.688C203.478 162.943 203.981 162.363 204.626 161.947C205.276 161.525 205.979 161.314 206.735 161.314C207.972 161.314 208.933 161.722 209.618 162.536C210.304 163.351 210.646 164.517 210.646 166.034V166.711H204.204C204.228 167.648 204.5 168.407 205.021 168.987C205.549 169.562 206.217 169.849 207.025 169.849C207.6 169.849 208.086 169.731 208.484 169.497C208.883 169.263 209.231 168.952 209.53 168.565L210.523 169.339C209.727 170.563 208.531 171.176 206.938 171.176ZM206.735 162.65C206.079 162.65 205.528 162.891 205.083 163.371C204.638 163.846 204.362 164.514 204.257 165.375H209.021V165.252C208.974 164.426 208.751 163.787 208.353 163.336C207.954 162.879 207.415 162.65 206.735 162.65ZM217.133 162.949C216.887 162.908 216.62 162.888 216.333 162.888C215.267 162.888 214.543 163.342 214.162 164.25V171H212.536V161.49H214.118L214.145 162.589C214.678 161.739 215.434 161.314 216.412 161.314C216.729 161.314 216.969 161.355 217.133 161.438V162.949ZM224.173 168.478C224.173 168.038 224.006 167.698 223.672 167.458C223.344 167.212 222.767 167.001 221.94 166.825C221.12 166.649 220.467 166.438 219.98 166.192C219.5 165.946 219.143 165.653 218.908 165.313C218.68 164.974 218.565 164.569 218.565 164.101C218.565 163.321 218.894 162.662 219.55 162.123C220.212 161.584 221.056 161.314 222.081 161.314C223.159 161.314 224.032 161.593 224.7 162.149C225.374 162.706 225.711 163.418 225.711 164.285H224.076C224.076 163.84 223.886 163.456 223.505 163.134C223.13 162.812 222.655 162.65 222.081 162.65C221.489 162.65 221.026 162.779 220.692 163.037C220.358 163.295 220.191 163.632 220.191 164.048C220.191 164.44 220.347 164.736 220.657 164.936C220.968 165.135 221.527 165.325 222.336 165.507C223.15 165.688 223.81 165.905 224.313 166.157C224.817 166.409 225.189 166.714 225.43 167.071C225.676 167.423 225.799 167.854 225.799 168.363C225.799 169.213 225.459 169.896 224.779 170.411C224.1 170.921 223.218 171.176 222.134 171.176C221.372 171.176 220.698 171.041 220.112 170.771C219.526 170.502 219.066 170.127 218.732 169.646C218.404 169.16 218.24 168.636 218.24 168.073H219.866C219.896 168.618 220.112 169.052 220.517 169.374C220.927 169.69 221.466 169.849 222.134 169.849C222.749 169.849 223.241 169.726 223.61 169.479C223.985 169.228 224.173 168.894 224.173 168.478ZM227.486 166.157C227.486 165.226 227.668 164.388 228.031 163.644C228.4 162.899 228.91 162.325 229.561 161.921C230.217 161.517 230.964 161.314 231.802 161.314C233.097 161.314 234.143 161.763 234.939 162.659C235.742 163.556 236.144 164.748 236.144 166.236V166.351C236.144 167.276 235.965 168.108 235.607 168.847C235.256 169.579 234.749 170.15 234.087 170.561C233.431 170.971 232.675 171.176 231.819 171.176C230.53 171.176 229.484 170.728 228.682 169.831C227.885 168.935 227.486 167.748 227.486 166.271V166.157ZM229.121 166.351C229.121 167.405 229.364 168.252 229.851 168.891C230.343 169.529 230.999 169.849 231.819 169.849C232.646 169.849 233.302 169.526 233.788 168.882C234.274 168.231 234.518 167.323 234.518 166.157C234.518 165.114 234.269 164.271 233.771 163.626C233.278 162.976 232.622 162.65 231.802 162.65C230.999 162.65 230.352 162.97 229.859 163.608C229.367 164.247 229.121 165.161 229.121 166.351ZM239.721 161.49L239.773 162.686C240.5 161.771 241.449 161.314 242.621 161.314C244.631 161.314 245.645 162.448 245.662 164.716V171H244.036V164.707C244.03 164.021 243.872 163.515 243.562 163.187C243.257 162.858 242.779 162.694 242.129 162.694C241.602 162.694 241.139 162.835 240.74 163.116C240.342 163.397 240.031 163.767 239.809 164.224V171H238.183V161.49H239.721ZM248.149 170.147C248.149 169.866 248.231 169.632 248.396 169.444C248.565 169.257 248.817 169.163 249.151 169.163C249.485 169.163 249.737 169.257 249.907 169.444C250.083 169.632 250.171 169.866 250.171 170.147C250.171 170.417 250.083 170.643 249.907 170.824C249.737 171.006 249.485 171.097 249.151 171.097C248.817 171.097 248.565 171.006 248.396 170.824C248.231 170.643 248.149 170.417 248.149 170.147Z" fill="black"/>
<path d="M175.939 270.061C176.525 270.646 177.475 270.646 178.061 270.061L187.607 260.515C188.192 259.929 188.192 258.979 187.607 258.393C187.021 257.808 186.071 257.808 185.485 258.393L177 266.879L168.515 258.393C167.929 257.808 166.979 257.808 166.393 258.393C165.808 258.979 165.808 259.929 166.393 260.515L175.939 270.061ZM175.5 240L175.5 269L178.5 269L178.5 240L175.5 240Z" fill="black"/>
<path d="M129.917 221H128.229V208.203H129.917V221ZM138.987 221H137.361V207.5H138.987V221ZM143.364 221H141.738V211.49H143.364V221ZM141.606 208.968C141.606 208.704 141.686 208.481 141.844 208.3C142.008 208.118 142.248 208.027 142.564 208.027C142.881 208.027 143.121 208.118 143.285 208.3C143.449 208.481 143.531 208.704 143.531 208.968C143.531 209.231 143.449 209.451 143.285 209.627C143.121 209.803 142.881 209.891 142.564 209.891C142.248 209.891 142.008 209.803 141.844 209.627C141.686 209.451 141.606 209.231 141.606 208.968ZM148.629 216.597L147.609 217.66V221H145.983V207.5H147.609V215.665L148.479 214.619L151.441 211.49H153.419L149.719 215.463L153.85 221H151.942L148.629 216.597ZM158.868 221.176C157.579 221.176 156.53 220.754 155.722 219.91C154.913 219.061 154.509 217.927 154.509 216.509V216.21C154.509 215.267 154.688 214.426 155.045 213.688C155.408 212.943 155.912 212.363 156.557 211.947C157.207 211.525 157.91 211.314 158.666 211.314C159.902 211.314 160.863 211.722 161.549 212.536C162.234 213.351 162.577 214.517 162.577 216.034V216.711H156.135C156.158 217.648 156.431 218.407 156.952 218.987C157.479 219.562 158.147 219.849 158.956 219.849C159.53 219.849 160.017 219.731 160.415 219.497C160.813 219.263 161.162 218.952 161.461 218.565L162.454 219.339C161.657 220.563 160.462 221.176 158.868 221.176ZM158.666 212.65C158.01 212.65 157.459 212.891 157.014 213.371C156.568 213.846 156.293 214.514 156.188 215.375H160.951V215.252C160.904 214.426 160.682 213.787 160.283 213.336C159.885 212.879 159.346 212.65 158.666 212.65ZM171.138 209.188V211.49H172.913V212.747H171.138V218.645C171.138 219.025 171.217 219.312 171.375 219.506C171.533 219.693 171.803 219.787 172.184 219.787C172.371 219.787 172.629 219.752 172.957 219.682V221C172.529 221.117 172.113 221.176 171.709 221.176C170.982 221.176 170.435 220.956 170.065 220.517C169.696 220.077 169.512 219.453 169.512 218.645V212.747H167.78V211.49H169.512V209.188H171.138ZM174.214 216.157C174.214 215.226 174.396 214.388 174.759 213.644C175.128 212.899 175.638 212.325 176.288 211.921C176.944 211.517 177.691 211.314 178.529 211.314C179.824 211.314 180.87 211.763 181.667 212.659C182.47 213.556 182.871 214.748 182.871 216.236V216.351C182.871 217.276 182.692 218.108 182.335 218.847C181.983 219.579 181.477 220.15 180.814 220.561C180.158 220.971 179.402 221.176 178.547 221.176C177.258 221.176 176.212 220.728 175.409 219.831C174.612 218.935 174.214 217.748 174.214 216.271V216.157ZM175.849 216.351C175.849 217.405 176.092 218.252 176.578 218.891C177.07 219.529 177.727 219.849 178.547 219.849C179.373 219.849 180.029 219.526 180.516 218.882C181.002 218.231 181.245 217.323 181.245 216.157C181.245 215.114 180.996 214.271 180.498 213.626C180.006 212.976 179.35 212.65 178.529 212.65C177.727 212.65 177.079 212.97 176.587 213.608C176.095 214.247 175.849 215.161 175.849 216.351ZM197.426 216.351C197.426 217.804 197.092 218.973 196.424 219.857C195.756 220.736 194.859 221.176 193.734 221.176C192.533 221.176 191.604 220.751 190.948 219.901L190.869 221H189.375V207.5H191.001V212.536C191.657 211.722 192.562 211.314 193.717 211.314C194.871 211.314 195.776 211.751 196.433 212.624C197.095 213.497 197.426 214.692 197.426 216.21V216.351ZM195.8 216.166C195.8 215.059 195.586 214.203 195.158 213.6C194.73 212.996 194.115 212.694 193.312 212.694C192.24 212.694 191.47 213.192 191.001 214.188V218.302C191.499 219.298 192.275 219.796 193.33 219.796C194.109 219.796 194.716 219.494 195.149 218.891C195.583 218.287 195.8 217.379 195.8 216.166ZM205.354 220.06C204.721 220.804 203.792 221.176 202.567 221.176C201.554 221.176 200.78 220.883 200.247 220.297C199.72 219.705 199.453 218.832 199.447 217.678V211.49H201.073V217.634C201.073 219.075 201.659 219.796 202.831 219.796C204.073 219.796 204.899 219.333 205.31 218.407V211.49H206.936V221H205.389L205.354 220.06ZM211.181 221H209.555V211.49H211.181V221ZM209.423 208.968C209.423 208.704 209.502 208.481 209.66 208.3C209.824 208.118 210.064 208.027 210.381 208.027C210.697 208.027 210.938 208.118 211.102 208.3C211.266 208.481 211.348 208.704 211.348 208.968C211.348 209.231 211.266 209.451 211.102 209.627C210.938 209.803 210.697 209.891 210.381 209.891C210.064 209.891 209.824 209.803 209.66 209.627C209.502 209.451 209.423 209.231 209.423 208.968ZM215.558 221H213.932V207.5H215.558V221ZM217.772 216.166C217.772 214.707 218.118 213.535 218.81 212.65C219.501 211.76 220.406 211.314 221.525 211.314C222.639 211.314 223.521 211.695 224.171 212.457V207.5H225.797V221H224.303L224.224 219.98C223.573 220.777 222.668 221.176 221.508 221.176C220.406 221.176 219.507 220.725 218.81 219.822C218.118 218.92 217.772 217.742 217.772 216.289V216.166ZM219.398 216.351C219.398 217.429 219.621 218.272 220.066 218.882C220.512 219.491 221.127 219.796 221.912 219.796C222.943 219.796 223.696 219.333 224.171 218.407V214.039C223.685 213.143 222.938 212.694 221.93 212.694C221.133 212.694 220.512 213.002 220.066 213.617C219.621 214.232 219.398 215.144 219.398 216.351ZM228.363 220.147C228.363 219.866 228.445 219.632 228.609 219.444C228.779 219.257 229.031 219.163 229.365 219.163C229.699 219.163 229.951 219.257 230.121 219.444C230.297 219.632 230.385 219.866 230.385 220.147C230.385 220.417 230.297 220.643 230.121 220.824C229.951 221.006 229.699 221.097 229.365 221.097C229.031 221.097 228.779 221.006 228.609 220.824C228.445 220.643 228.363 220.417 228.363 220.147Z" fill="black"/>
<line y1="188.5" x2="364" y2="188.5" stroke="black"/>
</svg>
