<svg width="255" height="251" viewBox="0 0 255 251" fill="none" xmlns="http://www.w3.org/2000/svg">
<path d="M67.5 68L68.0083 129" stroke="black" stroke-width="3"/>
<circle cx="67.5" cy="47.5" r="19.5" stroke="black" stroke-width="2"/>
<path d="M67.5 90L86 78.5" stroke="black" stroke-width="2"/>
<path d="M67.5 89.5L49 78" stroke="black" stroke-width="2"/>
<path d="M67.5 128L54 143.5" stroke="black" stroke-width="2"/>
<path d="M68 128L81.5 143.5" stroke="black" stroke-width="2"/>
<circle cx="61" cy="44" r="3" fill="black"/>
<circle cx="72" cy="44" r="3" fill="black"/>
<path d="M57 53C60.3333 57.6667 68.9 64.2 76.5 53" stroke="black"/>
<path d="M120.665 4.20312L124.849 14.6445L129.032 4.20312H131.221V17H129.533V12.0166L129.691 6.6377L125.49 17H124.198L120.006 6.66406L120.173 12.0166V17H118.485V4.20312H120.665ZM137.892 17.1758C136.603 17.1758 135.554 16.7539 134.745 15.9102C133.937 15.0605 133.532 13.9268 133.532 12.5088V12.21C133.532 11.2666 133.711 10.4258 134.068 9.6875C134.432 8.94336 134.936 8.36328 135.58 7.94727C136.23 7.52539 136.934 7.31445 137.689 7.31445C138.926 7.31445 139.887 7.72168 140.572 8.53613C141.258 9.35059 141.601 10.5166 141.601 12.0342V12.7109H135.158C135.182 13.6484 135.454 14.4072 135.976 14.9873C136.503 15.5615 137.171 15.8486 137.979 15.8486C138.554 15.8486 139.04 15.7314 139.438 15.4971C139.837 15.2627 140.186 14.9521 140.484 14.5654L141.478 15.3389C140.681 16.5635 139.485 17.1758 137.892 17.1758ZM137.689 8.65039C137.033 8.65039 136.482 8.89062 136.037 9.37109C135.592 9.8457 135.316 10.5137 135.211 11.375H139.975V11.252C139.928 10.4258 139.705 9.78711 139.307 9.33594C138.908 8.87891 138.369 8.65039 137.689 8.65039ZM147.894 11.8057C147.894 10.4814 148.069 9.20996 148.421 7.99121C148.778 6.77246 149.309 5.66504 150.012 4.66895C150.715 3.67285 151.444 2.96973 152.2 2.55957L152.534 3.63184C151.679 4.28809 150.976 5.29004 150.425 6.6377C149.88 7.98535 149.581 9.49414 149.528 11.1641L149.52 11.9111C149.52 14.1729 149.933 16.1357 150.759 17.7998C151.257 18.7959 151.849 19.5752 152.534 20.1377L152.2 21.1309C151.421 20.6973 150.677 19.9707 149.968 18.9512C148.585 16.959 147.894 14.5771 147.894 11.8057ZM159.724 4.20312H161.42V13.2646C161.42 14.4893 161.051 15.4473 160.312 16.1387C159.58 16.8301 158.602 17.1758 157.377 17.1758C156.105 17.1758 155.115 16.8506 154.406 16.2002C153.697 15.5498 153.343 14.6387 153.343 13.4668H155.03C155.03 14.1992 155.229 14.7705 155.628 15.1807C156.032 15.5908 156.615 15.7959 157.377 15.7959C158.074 15.7959 158.637 15.5762 159.064 15.1367C159.498 14.6973 159.718 14.082 159.724 13.291V4.20312ZM169.91 17C169.816 16.8125 169.74 16.4785 169.682 15.998C168.926 16.7832 168.023 17.1758 166.975 17.1758C166.037 17.1758 165.267 16.9121 164.663 16.3848C164.065 15.8516 163.767 15.1777 163.767 14.3633C163.767 13.373 164.142 12.6055 164.892 12.0605C165.647 11.5098 166.708 11.2344 168.073 11.2344H169.655V10.4873C169.655 9.91895 169.485 9.46777 169.146 9.13379C168.806 8.79395 168.305 8.62402 167.643 8.62402C167.062 8.62402 166.576 8.77051 166.184 9.06348C165.791 9.35645 165.595 9.71094 165.595 10.127H163.96C163.96 9.65234 164.127 9.19531 164.461 8.75586C164.801 8.31055 165.258 7.95898 165.832 7.70117C166.412 7.44336 167.048 7.31445 167.739 7.31445C168.835 7.31445 169.693 7.58984 170.314 8.14062C170.936 8.68555 171.258 9.43848 171.281 10.3994V14.7764C171.281 15.6494 171.393 16.3438 171.615 16.8594V17H169.91ZM167.212 15.7607C167.722 15.7607 168.205 15.6289 168.662 15.3652C169.119 15.1016 169.45 14.7588 169.655 14.3369V12.3857H168.381C166.389 12.3857 165.393 12.9688 165.393 14.1348C165.393 14.6445 165.562 15.043 165.902 15.3301C166.242 15.6172 166.679 15.7607 167.212 15.7607ZM177.645 15.8486C178.225 15.8486 178.731 15.6729 179.165 15.3213C179.599 14.9697 179.839 14.5303 179.886 14.0029H181.424C181.395 14.5479 181.207 15.0664 180.861 15.5586C180.516 16.0508 180.053 16.4434 179.473 16.7363C178.898 17.0293 178.289 17.1758 177.645 17.1758C176.35 17.1758 175.318 16.7451 174.551 15.8838C173.789 15.0166 173.408 13.833 173.408 12.333V12.0605C173.408 11.1348 173.578 10.3115 173.918 9.59082C174.258 8.87012 174.744 8.31055 175.377 7.91211C176.016 7.51367 176.769 7.31445 177.636 7.31445C178.702 7.31445 179.587 7.63379 180.29 8.27246C180.999 8.91113 181.377 9.74023 181.424 10.7598H179.886C179.839 10.1445 179.604 9.64062 179.183 9.24805C178.767 8.84961 178.251 8.65039 177.636 8.65039C176.81 8.65039 176.168 8.94922 175.711 9.54688C175.26 10.1387 175.034 10.9971 175.034 12.1221V12.4297C175.034 13.5254 175.26 14.3691 175.711 14.9609C176.162 15.5527 176.807 15.8486 177.645 15.8486ZM185.906 12.5967L184.887 13.6602V17H183.261V3.5H184.887V11.665L185.757 10.6191L188.719 7.49023H190.696L186.996 11.4629L191.127 17H189.22L185.906 12.5967ZM197.095 17V4.20312H201.278C202.667 4.20312 203.71 4.49023 204.407 5.06445C205.11 5.63867 205.462 6.48828 205.462 7.61328C205.462 8.21094 205.292 8.74121 204.952 9.2041C204.612 9.66113 204.149 10.0156 203.563 10.2676C204.255 10.4609 204.8 10.8301 205.198 11.375C205.603 11.9141 205.805 12.5586 205.805 13.3086C205.805 14.457 205.433 15.3594 204.688 16.0156C203.944 16.6719 202.893 17 201.533 17H197.095ZM198.782 11.0146V15.6201H201.568C202.354 15.6201 202.972 15.418 203.423 15.0137C203.88 14.6035 204.108 14.041 204.108 13.3262C204.108 11.7852 203.271 11.0146 201.595 11.0146H198.782ZM198.782 9.66113H201.331C202.069 9.66113 202.658 9.47656 203.098 9.10742C203.543 8.73828 203.766 8.2373 203.766 7.60449C203.766 6.90137 203.561 6.3916 203.15 6.0752C202.74 5.75293 202.116 5.5918 201.278 5.5918H198.782V9.66113ZM213.926 16.0596C213.293 16.8037 212.364 17.1758 211.14 17.1758C210.126 17.1758 209.353 16.8828 208.819 16.2969C208.292 15.7051 208.025 14.832 208.02 13.6777V7.49023H209.646V13.6338C209.646 15.0752 210.231 15.7959 211.403 15.7959C212.646 15.7959 213.472 15.333 213.882 14.4072V7.49023H215.508V17H213.961L213.926 16.0596ZM222.583 8.94922C222.337 8.9082 222.07 8.8877 221.783 8.8877C220.717 8.8877 219.993 9.3418 219.612 10.25V17H217.986V7.49023H219.568L219.595 8.58887C220.128 7.73926 220.884 7.31445 221.862 7.31445C222.179 7.31445 222.419 7.35547 222.583 7.4375V8.94922ZM228.683 8.94922C228.437 8.9082 228.17 8.8877 227.883 8.8877C226.816 8.8877 226.093 9.3418 225.712 10.25V17H224.086V7.49023H225.668L225.694 8.58887C226.228 7.73926 226.983 7.31445 227.962 7.31445C228.278 7.31445 228.519 7.35547 228.683 7.4375V8.94922ZM236.057 16.0596C235.424 16.8037 234.495 17.1758 233.271 17.1758C232.257 17.1758 231.483 16.8828 230.95 16.2969C230.423 15.7051 230.156 14.832 230.15 13.6777V7.49023H231.776V13.6338C231.776 15.0752 232.362 15.7959 233.534 15.7959C234.776 15.7959 235.603 15.333 236.013 14.4072V7.49023H237.639V17H236.092L236.057 16.0596ZM245.654 14.4775C245.654 14.0381 245.487 13.6982 245.153 13.458C244.825 13.2119 244.248 13.001 243.422 12.8252C242.602 12.6494 241.948 12.4385 241.462 12.1924C240.981 11.9463 240.624 11.6533 240.39 11.3135C240.161 10.9736 240.047 10.5693 240.047 10.1006C240.047 9.32129 240.375 8.66211 241.031 8.12305C241.693 7.58398 242.537 7.31445 243.562 7.31445C244.641 7.31445 245.514 7.59277 246.182 8.14941C246.855 8.70605 247.192 9.41797 247.192 10.2852H245.558C245.558 9.83984 245.367 9.45605 244.986 9.13379C244.611 8.81152 244.137 8.65039 243.562 8.65039C242.971 8.65039 242.508 8.7793 242.174 9.03711C241.84 9.29492 241.673 9.63184 241.673 10.0479C241.673 10.4404 241.828 10.7363 242.139 10.9355C242.449 11.1348 243.009 11.3252 243.817 11.5068C244.632 11.6885 245.291 11.9053 245.795 12.1572C246.299 12.4092 246.671 12.7139 246.911 13.0713C247.157 13.4229 247.28 13.8535 247.28 14.3633C247.28 15.2129 246.94 15.8955 246.261 16.4111C245.581 16.9209 244.699 17.1758 243.615 17.1758C242.854 17.1758 242.18 17.041 241.594 16.7715C241.008 16.502 240.548 16.127 240.214 15.6465C239.886 15.1602 239.722 14.6357 239.722 14.0732H241.348C241.377 14.6182 241.594 15.0518 241.998 15.374C242.408 15.6904 242.947 15.8486 243.615 15.8486C244.23 15.8486 244.723 15.7256 245.092 15.4795C245.467 15.2275 245.654 14.8936 245.654 14.4775ZM253.151 11.8936C253.151 13.2002 252.979 14.4541 252.633 15.6553C252.293 16.8506 251.769 17.9551 251.06 18.9688C250.356 19.9824 249.618 20.7031 248.845 21.1309L248.502 20.1377C249.404 19.4463 250.128 18.374 250.673 16.9209C251.224 15.4619 251.505 13.8447 251.517 12.0693V11.7881C251.517 10.5576 251.388 9.41504 251.13 8.36035C250.872 7.2998 250.512 6.35059 250.049 5.5127C249.592 4.6748 249.076 4.02148 248.502 3.55273L248.845 2.55957C249.618 2.9873 250.354 3.70215 251.051 4.7041C251.754 5.70605 252.278 6.81055 252.624 8.01758C252.976 9.22461 253.151 10.5166 253.151 11.8936Z" fill="black"/>
<path d="M91.5064 32.2738C91.4625 32.5464 91.6479 32.8031 91.9206 32.847L96.3633 33.5627C96.6359 33.6066 96.8925 33.4212 96.9364 33.1486C96.9804 32.8759 96.795 32.6193 96.5223 32.5754L92.5732 31.9392L93.2094 27.9901C93.2533 27.7175 93.0679 27.4609 92.7953 27.417C92.5227 27.3731 92.2661 27.5585 92.2221 27.8311L91.5064 32.2738ZM112.957 16.5947L91.7073 31.9481L92.2929 32.7586L113.543 17.4053L112.957 16.5947Z" fill="black"/>
<path d="M10.6973 159.592H6.58398V171H4.90527V159.592H0.800781V158.203H10.6973V159.592ZM13.9668 162.642C14.6875 161.757 15.625 161.314 16.7793 161.314C18.7891 161.314 19.8027 162.448 19.8203 164.716V171H18.1943V164.707C18.1885 164.021 18.0303 163.515 17.7197 163.187C17.415 162.858 16.9375 162.694 16.2871 162.694C15.7598 162.694 15.2969 162.835 14.8984 163.116C14.5 163.397 14.1895 163.767 13.9668 164.224V171H12.3408V157.5H13.9668V162.642ZM24.0215 171H22.3955V161.49H24.0215V171ZM22.2637 158.968C22.2637 158.704 22.3428 158.481 22.501 158.3C22.665 158.118 22.9053 158.027 23.2217 158.027C23.5381 158.027 23.7783 158.118 23.9424 158.3C24.1064 158.481 24.1885 158.704 24.1885 158.968C24.1885 159.231 24.1064 159.451 23.9424 159.627C23.7783 159.803 23.5381 159.891 23.2217 159.891C22.9053 159.891 22.665 159.803 22.501 159.627C22.3428 159.451 22.2637 159.231 22.2637 158.968ZM30.4463 169.849C31.0264 169.849 31.5332 169.673 31.9668 169.321C32.4004 168.97 32.6406 168.53 32.6875 168.003H34.2256C34.1963 168.548 34.0088 169.066 33.6631 169.559C33.3174 170.051 32.8545 170.443 32.2744 170.736C31.7002 171.029 31.0908 171.176 30.4463 171.176C29.1514 171.176 28.1201 170.745 27.3525 169.884C26.5908 169.017 26.21 167.833 26.21 166.333V166.061C26.21 165.135 26.3799 164.312 26.7197 163.591C27.0596 162.87 27.5459 162.311 28.1787 161.912C28.8174 161.514 29.5703 161.314 30.4375 161.314C31.5039 161.314 32.3887 161.634 33.0918 162.272C33.8008 162.911 34.1787 163.74 34.2256 164.76H32.6875C32.6406 164.145 32.4062 163.641 31.9844 163.248C31.5684 162.85 31.0527 162.65 30.4375 162.65C29.6113 162.65 28.9697 162.949 28.5127 163.547C28.0615 164.139 27.8359 164.997 27.8359 166.122V166.43C27.8359 167.525 28.0615 168.369 28.5127 168.961C28.9639 169.553 29.6084 169.849 30.4463 169.849ZM38.708 166.597L37.6885 167.66V171H36.0625V157.5H37.6885V165.665L38.5586 164.619L41.5205 161.49H43.498L39.7979 165.463L43.9287 171H42.0215L38.708 166.597ZM48.9473 171.176C47.6582 171.176 46.6094 170.754 45.8008 169.91C44.9922 169.061 44.5879 167.927 44.5879 166.509V166.21C44.5879 165.267 44.7666 164.426 45.124 163.688C45.4873 162.943 45.9912 162.363 46.6357 161.947C47.2861 161.525 47.9893 161.314 48.7451 161.314C49.9814 161.314 50.9424 161.722 51.6279 162.536C52.3135 163.351 52.6562 164.517 52.6562 166.034V166.711H46.2139C46.2373 167.648 46.5098 168.407 47.0312 168.987C47.5586 169.562 48.2266 169.849 49.0352 169.849C49.6094 169.849 50.0957 169.731 50.4941 169.497C50.8926 169.263 51.2412 168.952 51.54 168.565L52.5332 169.339C51.7363 170.563 50.541 171.176 48.9473 171.176ZM48.7451 162.65C48.0889 162.65 47.5381 162.891 47.0928 163.371C46.6475 163.846 46.3721 164.514 46.2666 165.375H51.0303V165.252C50.9834 164.426 50.7607 163.787 50.3623 163.336C49.9639 162.879 49.4248 162.65 48.7451 162.65ZM59.1426 162.949C58.8965 162.908 58.6299 162.888 58.3428 162.888C57.2764 162.888 56.5527 163.342 56.1719 164.25V171H54.5459V161.49H56.1279L56.1543 162.589C56.6875 161.739 57.4434 161.314 58.4219 161.314C58.7383 161.314 58.9785 161.355 59.1426 161.438V162.949ZM66.877 171H65.251V161.49H66.877V171ZM65.1191 158.968C65.1191 158.704 65.1982 158.481 65.3564 158.3C65.5205 158.118 65.7607 158.027 66.0771 158.027C66.3936 158.027 66.6338 158.118 66.7979 158.3C66.9619 158.481 67.0439 158.704 67.0439 158.968C67.0439 159.231 66.9619 159.451 66.7979 159.627C66.6338 159.803 66.3936 159.891 66.0771 159.891C65.7607 159.891 65.5205 159.803 65.3564 159.627C65.1982 159.451 65.1191 159.231 65.1191 158.968ZM71.0254 161.49L71.0781 162.686C71.8047 161.771 72.7539 161.314 73.9258 161.314C75.9355 161.314 76.9492 162.448 76.9668 164.716V171H75.3408V164.707C75.335 164.021 75.1768 163.515 74.8662 163.187C74.5615 162.858 74.084 162.694 73.4336 162.694C72.9062 162.694 72.4434 162.835 72.0449 163.116C71.6465 163.397 71.3359 163.767 71.1133 164.224V171H69.4873V161.49H71.0254ZM91.917 166.351C91.917 167.798 91.5859 168.964 90.9238 169.849C90.2617 170.733 89.3652 171.176 88.2344 171.176C87.0801 171.176 86.1719 170.81 85.5098 170.077V174.656H83.8838V161.49H85.3691L85.4482 162.545C86.1104 161.725 87.0303 161.314 88.208 161.314C89.3506 161.314 90.2529 161.745 90.915 162.606C91.583 163.468 91.917 164.666 91.917 166.201V166.351ZM90.291 166.166C90.291 165.094 90.0625 164.247 89.6055 163.626C89.1484 163.005 88.5215 162.694 87.7246 162.694C86.7402 162.694 86.002 163.131 85.5098 164.004V168.548C85.9961 169.415 86.7402 169.849 87.7422 169.849C88.5215 169.849 89.1396 169.541 89.5967 168.926C90.0596 168.305 90.291 167.385 90.291 166.166ZM97.9375 171.176C96.6484 171.176 95.5996 170.754 94.791 169.91C93.9824 169.061 93.5781 167.927 93.5781 166.509V166.21C93.5781 165.267 93.7568 164.426 94.1143 163.688C94.4775 162.943 94.9814 162.363 95.626 161.947C96.2764 161.525 96.9795 161.314 97.7354 161.314C98.9717 161.314 99.9326 161.722 100.618 162.536C101.304 163.351 101.646 164.517 101.646 166.034V166.711H95.2041C95.2275 167.648 95.5 168.407 96.0215 168.987C96.5488 169.562 97.2168 169.849 98.0254 169.849C98.5996 169.849 99.0859 169.731 99.4844 169.497C99.8828 169.263 100.231 168.952 100.53 168.565L101.523 169.339C100.727 170.563 99.5312 171.176 97.9375 171.176ZM97.7354 162.65C97.0791 162.65 96.5283 162.891 96.083 163.371C95.6377 163.846 95.3623 164.514 95.2568 165.375H100.021V165.252C99.9736 164.426 99.751 163.787 99.3525 163.336C98.9541 162.879 98.415 162.65 97.7354 162.65ZM108.133 162.949C107.887 162.908 107.62 162.888 107.333 162.888C106.267 162.888 105.543 163.342 105.162 164.25V171H103.536V161.49H105.118L105.145 162.589C105.678 161.739 106.434 161.314 107.412 161.314C107.729 161.314 107.969 161.355 108.133 161.438V162.949ZM115.173 168.478C115.173 168.038 115.006 167.698 114.672 167.458C114.344 167.212 113.767 167.001 112.94 166.825C112.12 166.649 111.467 166.438 110.98 166.192C110.5 165.946 110.143 165.653 109.908 165.313C109.68 164.974 109.565 164.569 109.565 164.101C109.565 163.321 109.894 162.662 110.55 162.123C111.212 161.584 112.056 161.314 113.081 161.314C114.159 161.314 115.032 161.593 115.7 162.149C116.374 162.706 116.711 163.418 116.711 164.285H115.076C115.076 163.84 114.886 163.456 114.505 163.134C114.13 162.812 113.655 162.65 113.081 162.65C112.489 162.65 112.026 162.779 111.692 163.037C111.358 163.295 111.191 163.632 111.191 164.048C111.191 164.44 111.347 164.736 111.657 164.936C111.968 165.135 112.527 165.325 113.336 165.507C114.15 165.688 114.81 165.905 115.313 166.157C115.817 166.409 116.189 166.714 116.43 167.071C116.676 167.423 116.799 167.854 116.799 168.363C116.799 169.213 116.459 169.896 115.779 170.411C115.1 170.921 114.218 171.176 113.134 171.176C112.372 171.176 111.698 171.041 111.112 170.771C110.526 170.502 110.066 170.127 109.732 169.646C109.404 169.16 109.24 168.636 109.24 168.073H110.866C110.896 168.618 111.112 169.052 111.517 169.374C111.927 169.69 112.466 169.849 113.134 169.849C113.749 169.849 114.241 169.726 114.61 169.479C114.985 169.228 115.173 168.894 115.173 168.478ZM118.486 166.157C118.486 165.226 118.668 164.388 119.031 163.644C119.4 162.899 119.91 162.325 120.561 161.921C121.217 161.517 121.964 161.314 122.802 161.314C124.097 161.314 125.143 161.763 125.939 162.659C126.742 163.556 127.144 164.748 127.144 166.236V166.351C127.144 167.276 126.965 168.108 126.607 168.847C126.256 169.579 125.749 170.15 125.087 170.561C124.431 170.971 123.675 171.176 122.819 171.176C121.53 171.176 120.484 170.728 119.682 169.831C118.885 168.935 118.486 167.748 118.486 166.271V166.157ZM120.121 166.351C120.121 167.405 120.364 168.252 120.851 168.891C121.343 169.529 121.999 169.849 122.819 169.849C123.646 169.849 124.302 169.526 124.788 168.882C125.274 168.231 125.518 167.323 125.518 166.157C125.518 165.114 125.269 164.271 124.771 163.626C124.278 162.976 123.622 162.65 122.802 162.65C121.999 162.65 121.352 162.97 120.859 163.608C120.367 164.247 120.121 165.161 120.121 166.351ZM130.721 161.49L130.773 162.686C131.5 161.771 132.449 161.314 133.621 161.314C135.631 161.314 136.645 162.448 136.662 164.716V171H135.036V164.707C135.03 164.021 134.872 163.515 134.562 163.187C134.257 162.858 133.779 162.694 133.129 162.694C132.602 162.694 132.139 162.835 131.74 163.116C131.342 163.397 131.031 163.767 130.809 164.224V171H129.183V161.49H130.721ZM139.149 170.147C139.149 169.866 139.231 169.632 139.396 169.444C139.565 169.257 139.817 169.163 140.151 169.163C140.485 169.163 140.737 169.257 140.907 169.444C141.083 169.632 141.171 169.866 141.171 170.147C141.171 170.417 141.083 170.643 140.907 170.824C140.737 171.006 140.485 171.097 140.151 171.097C139.817 171.097 139.565 171.006 139.396 170.824C139.231 170.643 139.149 170.417 139.149 170.147ZM24.417 192H22.7295V179.203H24.417V192ZM33.4873 192H31.8613V178.5H33.4873V192ZM37.8643 192H36.2383V182.49H37.8643V192ZM36.1064 179.968C36.1064 179.704 36.1855 179.481 36.3438 179.3C36.5078 179.118 36.748 179.027 37.0645 179.027C37.3809 179.027 37.6211 179.118 37.7852 179.3C37.9492 179.481 38.0312 179.704 38.0312 179.968C38.0312 180.231 37.9492 180.451 37.7852 180.627C37.6211 180.803 37.3809 180.891 37.0645 180.891C36.748 180.891 36.5078 180.803 36.3438 180.627C36.1855 180.451 36.1064 180.231 36.1064 179.968ZM43.1289 187.597L42.1094 188.66V192H40.4834V178.5H42.1094V186.665L42.9795 185.619L45.9414 182.49H47.9189L44.2188 186.463L48.3496 192H46.4424L43.1289 187.597ZM53.3682 192.176C52.0791 192.176 51.0303 191.754 50.2217 190.91C49.4131 190.061 49.0088 188.927 49.0088 187.509V187.21C49.0088 186.267 49.1875 185.426 49.5449 184.688C49.9082 183.943 50.4121 183.363 51.0566 182.947C51.707 182.525 52.4102 182.314 53.166 182.314C54.4023 182.314 55.3633 182.722 56.0488 183.536C56.7344 184.351 57.0771 185.517 57.0771 187.034V187.711H50.6348C50.6582 188.648 50.9307 189.407 51.4521 189.987C51.9795 190.562 52.6475 190.849 53.4561 190.849C54.0303 190.849 54.5166 190.731 54.915 190.497C55.3135 190.263 55.6621 189.952 55.9609 189.565L56.9541 190.339C56.1572 191.563 54.9619 192.176 53.3682 192.176ZM53.166 183.65C52.5098 183.65 51.959 183.891 51.5137 184.371C51.0684 184.846 50.793 185.514 50.6875 186.375H55.4512V186.252C55.4043 185.426 55.1816 184.787 54.7832 184.336C54.3848 183.879 53.8457 183.65 53.166 183.65ZM65.6377 180.188V182.49H67.4131V183.747H65.6377V189.645C65.6377 190.025 65.7168 190.312 65.875 190.506C66.0332 190.693 66.3027 190.787 66.6836 190.787C66.8711 190.787 67.1289 190.752 67.457 190.682V192C67.0293 192.117 66.6133 192.176 66.209 192.176C65.4824 192.176 64.9346 191.956 64.5654 191.517C64.1963 191.077 64.0117 190.453 64.0117 189.645V183.747H62.2803V182.49H64.0117V180.188H65.6377ZM68.7139 187.157C68.7139 186.226 68.8955 185.388 69.2588 184.644C69.6279 183.899 70.1377 183.325 70.7881 182.921C71.4443 182.517 72.1914 182.314 73.0293 182.314C74.3242 182.314 75.3701 182.763 76.167 183.659C76.9697 184.556 77.3711 185.748 77.3711 187.236V187.351C77.3711 188.276 77.1924 189.108 76.835 189.847C76.4834 190.579 75.9766 191.15 75.3145 191.561C74.6582 191.971 73.9023 192.176 73.0469 192.176C71.7578 192.176 70.7119 191.728 69.9092 190.831C69.1123 189.935 68.7139 188.748 68.7139 187.271V187.157ZM70.3486 187.351C70.3486 188.405 70.5918 189.252 71.0781 189.891C71.5703 190.529 72.2266 190.849 73.0469 190.849C73.873 190.849 74.5293 190.526 75.0156 189.882C75.502 189.231 75.7451 188.323 75.7451 187.157C75.7451 186.114 75.4961 185.271 74.998 184.626C74.5059 183.976 73.8496 183.65 73.0293 183.65C72.2266 183.65 71.5791 183.97 71.0869 184.608C70.5947 185.247 70.3486 186.161 70.3486 187.351ZM91.9258 187.351C91.9258 188.804 91.5918 189.973 90.9238 190.857C90.2559 191.736 89.3594 192.176 88.2344 192.176C87.0332 192.176 86.1045 191.751 85.4482 190.901L85.3691 192H83.875V178.5H85.501V183.536C86.1572 182.722 87.0625 182.314 88.2168 182.314C89.3711 182.314 90.2764 182.751 90.9326 183.624C91.5947 184.497 91.9258 185.692 91.9258 187.21V187.351ZM90.2998 187.166C90.2998 186.059 90.0859 185.203 89.6582 184.6C89.2305 183.996 88.6152 183.694 87.8125 183.694C86.7402 183.694 85.9697 184.192 85.501 185.188V189.302C85.999 190.298 86.7754 190.796 87.8301 190.796C88.6094 190.796 89.2158 190.494 89.6494 189.891C90.083 189.287 90.2998 188.379 90.2998 187.166ZM99.8535 191.06C99.2207 191.804 98.292 192.176 97.0674 192.176C96.0537 192.176 95.2803 191.883 94.7471 191.297C94.2197 190.705 93.9531 189.832 93.9473 188.678V182.49H95.5732V188.634C95.5732 190.075 96.1592 190.796 97.3311 190.796C98.5732 190.796 99.3994 190.333 99.8096 189.407V182.49H101.436V192H99.8887L99.8535 191.06ZM105.681 192H104.055V182.49H105.681V192ZM103.923 179.968C103.923 179.704 104.002 179.481 104.16 179.3C104.324 179.118 104.564 179.027 104.881 179.027C105.197 179.027 105.438 179.118 105.602 179.3C105.766 179.481 105.848 179.704 105.848 179.968C105.848 180.231 105.766 180.451 105.602 180.627C105.438 180.803 105.197 180.891 104.881 180.891C104.564 180.891 104.324 180.803 104.16 180.627C104.002 180.451 103.923 180.231 103.923 179.968ZM110.058 192H108.432V178.5H110.058V192ZM112.272 187.166C112.272 185.707 112.618 184.535 113.31 183.65C114.001 182.76 114.906 182.314 116.025 182.314C117.139 182.314 118.021 182.695 118.671 183.457V178.5H120.297V192H118.803L118.724 190.98C118.073 191.777 117.168 192.176 116.008 192.176C114.906 192.176 114.007 191.725 113.31 190.822C112.618 189.92 112.272 188.742 112.272 187.289V187.166ZM113.898 187.351C113.898 188.429 114.121 189.272 114.566 189.882C115.012 190.491 115.627 190.796 116.412 190.796C117.443 190.796 118.196 190.333 118.671 189.407V185.039C118.185 184.143 117.438 183.694 116.43 183.694C115.633 183.694 115.012 184.002 114.566 184.617C114.121 185.232 113.898 186.144 113.898 187.351ZM122.863 191.147C122.863 190.866 122.945 190.632 123.109 190.444C123.279 190.257 123.531 190.163 123.865 190.163C124.199 190.163 124.451 190.257 124.621 190.444C124.797 190.632 124.885 190.866 124.885 191.147C124.885 191.417 124.797 191.643 124.621 191.824C124.451 192.006 124.199 192.097 123.865 192.097C123.531 192.097 123.279 192.006 123.109 191.824C122.945 191.643 122.863 191.417 122.863 191.147Z" fill="black"/>
<path d="M66.9393 250.061C67.5251 250.646 68.4749 250.646 69.0607 250.061L78.6066 240.515C79.1924 239.929 79.1924 238.979 78.6066 238.393C78.0208 237.808 77.0711 237.808 76.4853 238.393L68 246.879L59.5147 238.393C58.9289 237.808 57.9792 237.808 57.3934 238.393C56.8076 238.979 56.8076 239.929 57.3934 240.515L66.9393 250.061ZM66.5 220L66.5 249L69.5 249L69.5 220L66.5 220Z" fill="black"/>
</svg>
