<svg version="1.1" xmlns="http://www.w3.org/2000/svg" viewBox="0 0 392.734375 259.86328125">
  <!-- svg-source:excalidraw -->
  <defs>
    <style>
      @font-face {
        font-family: "Virgil";
        src: url("https://excalidraw.com/FG_Virgil.woff2");
      }
      @font-face {
        font-family: "Cascadia";
        src: url("https://excalidraw.com/Cascadia.woff2");
      }
    </style>
  </defs>
  <g transform="translate(10 10) rotate(0 186.3671875 119.931640625)"><path d="M-1.5809880375181586 0.706582460957151 C98.81289675421573 -3.4979815667566014, 200.26547054858915 -0.9010799920740156, 372.6413535185467 -0.16524948187283775 M-0.8974090309440175 0.3515565513275413 C104.70030681934472 -4.191096791090862, 211.74139976086778 -5.477977353542578, 372.84609415386797 -0.6804727637093403 M373.21989896796475 -2.13284706129642 C373.57124809690936 93.54956657077192, 370.12633058436046 180.46131539794501, 373.20068922564224 237.34219222595848 M372.821880311093 -0.360574323059673 C374.09091478897034 70.20977887821668, 376.30867778135325 142.99418629172123, 372.0658904141544 239.05266133500186 M370.8407588672369 240.65891364154143 C263.50500687939535 239.021931998721, 158.00766334577716 240.14906128645202, -2.405483156219907 239.9777808588529 M372.1894870288055 239.03311534547095 C277.8177655417498 238.46937837230044, 184.3537189163523 237.4573674083454, 0.18437408979266706 240.4275715068323 M-0.8697438915320832 239.68903060481105 C-2.018276032155039 172.5316596956989, 1.4673423740771745 107.30886641705146, -0.3234694401331871 2.822539705922447 M1.0452644740945156 240.59384386011993 C1.808893670574689 158.86459657871893, 1.720210949093333 77.3732295124777, -0.16369402043053777 0.1892288600105945" stroke="#000000" stroke-width="2" fill="none"></path></g><g transform="translate(152.40625 93.65690104166674) rotate(0 43.5 22.5)"><text x="0" y="32" font-family="Virgil" font-size="36px" fill="#000000" text-anchor="start" style="white-space: pre;" direction="ltr">Sana</text></g><g transform="translate(134.5078125 142.291015625) rotate(0 60 12.5)"><text x="0" y="18" font-family="Virgil" font-size="20px" fill="#000000" text-anchor="start" style="white-space: pre;" direction="ltr">Weather App</text></g></svg>