<svg version="1.1" xmlns="http://www.w3.org/2000/svg" viewBox="0 0 553.796875 337.6171875">
  <!-- svg-source:excalidraw -->
  <defs>
    <style>
      @font-face {
        font-family: "Virgil";
        src: url("https://excalidraw.com/FG_Virgil.woff2");
      }
      @font-face {
        font-family: "Cascadia";
        src: url("https://excalidraw.com/Cascadia.woff2");
      }
    </style>
  </defs>
  <rect x="0" y="0" width="553.796875" height="337.6171875" fill="#ffffff"></rect><g transform="translate(20.3515625 20.3828125) rotate(0 259.5 151.63671875)"><path d="M-0.7376215532422066 0.6700034454464913 C140.4452692809515 -1.6775239864215252, 281.0394317826257 0.01562229005247387, 519.685435192287 -1.3578331157565118 M-0.5248259149491787 0.5282594881951809 C105.43565315352754 -1.4345292745903138, 209.58933672029525 -0.6367966114357116, 518.6989228881896 -0.49326420202851295 M517.0779978489566 1.9785904345030687 C517.9128290982376 59.474811752017054, 517.7143749998681 126.37709821300723, 520.6340299399776 305.2022346110749 M517.5894629127571 -0.26200818898549444 C518.2796116814174 90.67126778292915, 517.488787076361 180.87225660967172, 518.32642569531 303.1399130081108 M518.1390301153064 301.796133454144 C351.12489930065345 298.23562480994315, 181.85084874723103 300.7315756518468, -0.4430553510785103 302.14858558923004 M518.3169790185988 302.7676442824304 C366.66168836159625 303.5162211182788, 215.3891041560098 303.6568141940311, 0.5452764667570591 302.71376432999966 M-0.23061313689485924 304.35422104824823 C-1.8584307542726421 208.9396350205296, -1.7923361903232156 122.76781262999062, -2.1073602826720825 -1.7724726141136915 M0.5809835358518974 302.8822624694455 C0.94616803266771 214.12325027790013, -0.12499508213527166 125.04766788784289, -1.0043329284497402 -0.33231714741016416" stroke="#000000" stroke-width="1" fill="none"></path></g><g transform="translate(15.82421875 15.98828125) rotate(0 263.986328125 155.814453125)"><path d="M-1.5091957166790964 0.8135601833462716 C166.2119136110694 3.0827914975346937, 329.3086012469234 4.842913176840724, 526.4182326719165 0.019462330639362337 M0.06807748451828957 -0.2317448176443577 C115.02333952976734 -1.9663680192549657, 228.4267621279949 -0.7761587020476293, 527.4385052122176 -0.0047447957098484045 M525.5766117620155 -0.1800638624733678 C528.7828739520688 84.53157803784593, 530.292543940054 166.0772145778031, 528.0953942319089 313.7088805155873 M529.2292612663057 0.8517155863511926 C530.2951932031565 72.24161760463409, 529.575782918551 144.77074630463116, 527.4730846260351 312.71856736968647 M528.5888213083148 310.53243616372345 C335.50045686428894 313.1460983489113, 143.19460432211852 313.26927849989704, 1.1803457662463188 312.0993887260556 M527.2314995445311 311.25357656106354 C360.27503290694335 311.11774569314724, 193.492166275459 311.05428221982726, -0.009393223375082017 311.00862071141603 M2.129740939603154 313.178576833856 C-3.076183314726786 196.38130151027386, 1.7227374237391775 78.52785772021421, -1.76424020721266 -0.6309434748143197 M0.24402187490223098 311.27833512434285 C-1.1089405730526642 197.31015951073806, -1.112547187491086 81.83533044934592, -0.01451425799862459 -0.9850275703577014" stroke="#000000" stroke-width="1" fill="none"></path></g><g transform="translate(10 10) rotate(0 259.11328125 151.34375)"><path d="M0.35519437044858937 -0.012544076144695283 C143.32718107933252 0.3673199986162943, 286.8976953150719 2.1302584503832622, 518.2417017385363 1.186183388531208 M-0.7117120109498501 0.1495194397866726 C176.64417869945683 4.163026635366551, 352.800036603467 2.701070730405918, 518.5705092348159 -0.5471637047827244 M519.0248568435444 0.587335031796193 C516.7107010917763 113.65302354537717, 518.7320674049967 229.15289691253471, 517.8724291548335 303.38912107076436 M517.4775979415542 -1.1549828356721898 C513.1211211332662 75.57819387889917, 513.8312294661075 150.6853653821707, 517.4532850784097 302.77523401671704 M517.6226877138018 301.8476954296231 C392.7633341957342 305.4519545567278, 269.853191798272 305.1230686676745, 0.8895020887255669 302.2428248718381 M517.8004191555083 301.92211804017427 C340.35826947587844 304.808983566665, 163.3196514429772 305.52860877742705, -0.046941813081502914 302.35924074277284 M2.0089031548137144 301.3129004128087 C0.04437597631770318 237.55851123726552, 0.3023851422196948 164.1005922150731, -0.2827697862040653 -0.3428620564355821 M0.08913227872119392 302.27106575075186 C-0.7996091849672236 186.25788475474175, 1.046755678102217 69.69261450540607, 1.1704213879994003 -0.28728188094088203" stroke="#000000" stroke-width="1" fill="none"></path></g><g transform="translate(201.0703802177154 83.36780252744504) rotate(355.35722391662176 67.53378290384012 34.76003531815299)"><text x="0" y="49" font-family="Virgil" font-size="55.61605650904478px" fill="#000000" text-anchor="start" style="white-space: pre;" direction="ltr">Sana</text></g><g transform="translate(185.75935683139528 177.40743095930225) rotate(0 84 17.5)"><text x="0" y="25" font-family="Virgil" font-size="28px" fill="#000000" text-anchor="start" style="white-space: pre;" direction="ltr">Weather App</text></g></svg>