<svg width="219" height="263" viewBox="0 0 219 263" fill="none" xmlns="http://www.w3.org/2000/svg">
<path d="M111 64C106.6 63.6 98.1667 65.8333 94.5 67C91.5 66.5 91.5 63.5 91.5 59.5C93.5 56.7 91.3333 46.6667 90 42C90.1667 41.3333 90.4 38.8 90 34C93 14.5 102 5.5 107.5 0C121.1 2.8 129.5 23.8333 132 34V42C131.167 45.8333 129.5 54.3 129.5 57.5C131.9 61.1 130.5 64.6667 129.5 66C125.167 65.5 115.4 64.4 111 64Z" fill="#00DA2B"/>
<path d="M155.5 233.5L150 226.5C155.833 219 168.3 202.8 171.5 198C182.5 211.5 183.5 214 184 227C184.5 240 165.667 256.833 154.5 263L152.5 241L155.5 233.5Z" fill="#00DA2B"/>
<path d="M65.5098 233.5L71.0098 226.5C65.1764 219 52.7098 202.8 49.5098 198C38.5098 211.5 37.5098 214 37.0098 227C36.5098 240 55.3431 256.833 66.5098 263L68.5098 241L65.5098 233.5Z" fill="#00DA2B"/>
<ellipse cx="110.5" cy="150.5" rx="70.5" ry="85.5" fill="#00DA2B"/>
<path d="M169.5 93.5L139 70.5C159 59 176 64.5 180.5 65.5C185 66.5 193 76 197.5 81.5C207 88 214.5 106.5 217 112.5C219 117.3 218.5 129.5 218 135L217 141L212.5 144C204 142.5 202 134.5 200 129.5C199.5 123 184.5 104 180.5 99C177.3 95 171.833 93.6667 169.5 93.5Z" fill="#00DA2B"/>
<path d="M48.9472 95.1894L79.4472 72.1894C59.4472 60.6894 42.4472 66.1894 37.9472 67.1894C33.4472 68.1894 25.4472 77.6894 20.9472 83.1894C11.4472 89.6894 3.9472 108.189 1.4472 114.189C-0.552795 118.989 -0.0527954 131.189 0.447205 136.689L1.4472 142.689L5.9472 145.689C14.4472 144.189 16.4472 136.189 18.4472 131.189C18.9472 124.689 33.9472 105.689 37.9472 100.689C41.1472 96.6894 46.6139 95.356 48.9472 95.1894Z" fill="#00DA2B"/>
</svg>
