<svg width="1440" height="349" viewBox="0 0 1440 349" fill="none" xmlns="http://www.w3.org/2000/svg">
<path d="M1455.54 5.86338C1455.54 5.49692 1455.9 4.764 1455.9 4.03108C1455.9 2.19878 1455.54 1.09939 1454.8 1.09939C1454.44 1.09939 1454.07 1.83231 1453.71 2.93169C1453.34 2.93169 1453.34 2.93169 1452.97 2.93169V2.56526C1453.34 2.56526 1453.34 2.19879 1453.71 1.46587C1453.71 0.732953 1453.71 0 1453.34 0C1452.97 0 1452.61 0.366471 1452.61 1.09939V1.46587C1452.61 1.46587 1452.61 1.46587 1452.24 1.46587C1451.88 1.46587 1451.88 1.83232 1451.88 2.19878C1451.51 2.19878 1451.14 2.56523 1451.14 2.93169C1451.14 2.56523 1450.78 2.56526 1450.41 2.56526C1450.05 2.56526 1450.05 2.93171 1450.05 3.29817C1450.05 3.66463 1450.05 3.66462 1450.05 4.03108C1450.05 4.03108 1450.05 4.03108 1449.68 4.03108C1449.68 4.03108 1449.68 4.03106 1449.68 3.6646C1449.68 2.93168 1449.31 2.56526 1448.95 2.56526C1448.58 2.56526 1448.58 3.29816 1448.58 4.03108C1448.58 4.39754 1448.95 4.39756 1448.95 4.39756C1448.95 4.76402 1448.95 4.76401 1448.95 5.13047C1448.95 5.13047 1448.95 5.13047 1448.58 5.13047C1448.58 4.76401 1448.58 4.39756 1448.22 4.39756C1448.22 3.66464 1448.22 2.93172 1447.85 2.56526C1447.48 2.56526 1447.12 3.29818 1447.12 4.39756C1447.12 4.39756 1447.12 4.39756 1446.75 4.39756C1446.39 4.39756 1446.02 4.76397 1446.39 5.49689C1446.39 5.49689 1446.39 5.49692 1446.39 5.86338C1446.39 5.49692 1446.39 5.49689 1446.02 5.49689C1446.02 5.13043 1445.65 4.76399 1445.65 4.76399C1445.29 4.76399 1444.92 5.13046 1445.29 5.86338L1445.65 6.22986H1445.29C1445.29 5.8634 1444.92 5.49689 1444.56 5.49689C1444.19 5.49689 1443.82 5.86336 1444.19 6.59628C1443.82 6.59628 1443.46 6.96277 1443.09 6.96277C1443.09 6.59631 1442.73 6.22986 1442.36 6.22986C1442.36 6.22986 1441.99 6.22982 1441.99 6.59628C1441.99 6.59628 1441.99 6.22986 1441.63 6.22986C1441.26 6.22986 1441.26 6.59627 1440.9 7.32919C1440.9 7.32919 1440.53 7.32923 1440.53 6.96277C1440.53 6.96277 1440.53 6.96274 1440.16 6.59628C1440.16 6.59628 1439.8 6.22984 1439.07 5.86338C1438.33 5.86338 1438.7 5.86339 1438.33 5.13047C1437.6 4.76401 1437.24 4.76399 1437.24 4.76399C1437.24 4.03107 1436.5 3.29814 1435.77 3.6646C1435.41 4.03106 1435.04 4.39756 1436.14 4.39756V4.76399C1435.77 4.76399 1435.41 4.76402 1435.04 4.39756C1435.04 4.39756 1435.41 4.39752 1435.41 3.6646C1435.41 2.93168 1435.41 2.19878 1435.04 2.19878C1434.67 2.19878 1434.67 2.56523 1434.31 2.93169C1434.31 2.93169 1433.94 2.93171 1433.94 3.29817C1433.94 2.56525 1433.58 1.8323 1433.58 1.8323C1433.21 1.8323 1433.21 2.56522 1433.21 3.6646V4.03108C1433.21 3.66462 1433.21 3.66463 1433.21 3.29817C1433.21 2.19879 1432.84 1.46587 1432.48 1.46587C1432.11 1.46587 1432.11 2.56525 1432.11 3.29817C1432.11 3.66463 1432.11 3.66462 1432.11 4.03108C1431.75 4.03108 1431.01 4.0311 1430.65 4.39756C1430.65 4.39756 1430.28 4.39756 1429.92 4.39756H1429.55C1429.55 4.39756 1429.55 4.39753 1429.55 4.76399C1429.55 4.39753 1429.55 4.39756 1429.18 4.39756C1428.82 4.39756 1428.45 4.764 1428.45 5.86338C1428.45 5.86338 1428.45 5.86335 1428.45 5.49689C1428.45 4.76397 1428.09 4.03108 1427.72 4.03108C1427.35 4.03108 1427.35 4.764 1427.35 5.86338C1426.99 5.86338 1426.99 5.86338 1426.62 5.86338C1426.62 5.49692 1426.62 5.49689 1426.62 5.49689C1426.62 5.13043 1426.26 5.13047 1425.89 5.13047C1425.89 4.39755 1425.89 3.6646 1425.89 3.6646C1425.52 3.6646 1425.16 4.39752 1424.79 5.49689C1424.79 4.76397 1424.43 3.6646 1424.43 3.6646C1424.43 3.6646 1423.69 4.39755 1424.06 5.13047C1423.69 5.13047 1423.69 5.13047 1423.33 5.13047C1423.33 4.39755 1422.96 4.03106 1422.96 3.6646C1422.6 3.6646 1422.6 4.03107 1422.23 4.76399C1421.86 4.76399 1421.5 4.76399 1421.13 4.76399C1421.13 4.39753 1420.77 4.39756 1420.77 4.39756L1420.4 4.76399H1420.03C1420.03 4.03107 1419.67 3.6646 1419.3 3.6646C1418.94 3.6646 1418.94 4.03107 1418.94 4.76399H1418.57C1418.2 4.76399 1418.2 4.39753 1417.84 4.76399C1417.47 4.76399 1416.74 4.76399 1416.37 4.76399L1416.01 4.39756C1416.01 4.39756 1415.64 4.39753 1415.64 4.76399C1415.64 4.76399 1415.64 4.76399 1415.28 4.76399C1415.28 4.76399 1415.28 4.39754 1415.64 4.03108C1415.64 3.29816 1415.64 2.93169 1415.28 2.93169C1414.91 2.93169 1414.54 3.29816 1414.54 4.03108C1414.54 4.39754 1414.54 4.76399 1414.54 4.76399C1413.81 4.76399 1412.71 5.13047 1411.98 5.13047C1411.98 4.76401 1411.62 4.39756 1411.62 4.39756C1411.25 4.39756 1411.25 4.76397 1411.25 5.49689C1411.25 5.13043 1411.25 5.13047 1410.88 5.13047C1410.88 5.13047 1410.88 5.13047 1410.52 5.13047C1410.52 5.13047 1410.52 4.76399 1410.15 4.76399C1409.79 4.76399 1409.42 5.13046 1409.42 5.86338C1409.42 5.13046 1409.42 4.76399 1409.05 4.76399C1409.05 4.76399 1408.69 4.76397 1408.69 5.49689C1408.69 5.49689 1408.69 5.13047 1408.32 5.13047C1408.32 5.13047 1407.96 5.13043 1407.96 5.49689C1407.96 5.13043 1407.96 5.13047 1407.59 5.13047C1407.22 5.13047 1406.86 5.86336 1406.49 6.59628V6.96277V6.59628C1406.49 5.49691 1406.13 4.76399 1405.76 4.76399C1405.39 4.76399 1405.39 5.49691 1405.39 6.59628C1405.39 6.96274 1405.39 6.96273 1405.39 7.32919C1405.39 7.32919 1405.39 7.32919 1405.03 7.32919C1405.03 7.32919 1405.03 6.96274 1405.03 6.59628C1405.03 5.86336 1405.03 4.76399 1404.66 4.76399C1404.3 4.76399 1403.93 5.13048 1403.93 6.22986C1403.56 6.22986 1403.56 6.59631 1403.56 6.96277C1403.56 7.32923 1403.56 7.32921 1403.56 7.69567C1403.56 7.69567 1403.56 7.69567 1403.2 7.69567C1403.2 6.96275 1402.83 6.59628 1402.83 6.59628C1402.83 6.59628 1402.83 6.22986 1402.47 6.22986C1402.47 6.22986 1402.1 6.59631 1402.1 6.96277C1402.1 6.96277 1402.1 6.96277 1401.73 6.96277C1401.73 6.96277 1401.73 6.59628 1401.37 6.59628C1401 6.59628 1401 6.96275 1400.64 7.69567C1400.64 7.32921 1400.64 7.32923 1400.27 6.96277C1400.27 6.96277 1399.9 6.96273 1399.9 7.32919C1399.9 6.96273 1399.9 6.59628 1399.54 6.59628C1399.54 6.59628 1399.17 6.59631 1398.81 6.96277C1398.44 6.96277 1398.07 7.32924 1398.07 8.06216C1397.71 7.6957 1397.34 7.32919 1397.34 7.32919V7.69567C1397.34 7.32921 1397.34 6.59628 1396.98 6.59628C1396.61 6.59628 1396.61 6.59627 1396.61 7.32919C1396.61 7.32919 1396.61 6.96277 1396.24 6.96277C1396.24 6.96277 1395.88 6.96273 1395.88 7.32919C1395.88 6.96273 1395.51 6.96277 1395.51 6.96277C1395.15 6.96277 1395.15 7.32919 1395.15 7.32919C1395.15 6.96273 1394.78 6.96277 1394.78 6.96277C1394.41 6.96277 1394.41 7.32924 1394.05 8.06216H1393.68C1393.68 7.6957 1393.68 7.69567 1393.32 7.69567H1392.95C1392.95 7.32921 1392.58 6.96277 1392.58 6.96277C1392.22 6.96277 1392.22 7.32921 1392.22 7.69567C1392.22 6.96275 1391.85 6.59628 1391.85 6.59628C1391.49 6.59628 1391.49 7.32924 1391.49 8.06216C1391.49 8.06216 1391.49 8.06216 1391.12 8.06216C1391.12 8.06216 1390.75 8.06212 1390.75 8.42858C1390.75 7.69566 1390.39 6.96277 1390.39 6.96277C1390.39 6.96277 1390.02 6.96273 1390.02 7.32919C1390.02 7.32919 1390.02 6.96277 1389.66 6.96277C1389.29 6.96277 1389.29 7.32924 1389.29 8.06216C1389.29 7.6957 1388.92 7.32919 1388.92 7.32919C1388.56 7.32919 1388.56 7.69566 1388.56 8.42858C1388.56 8.42858 1388.56 8.4286 1388.56 8.79506C1388.19 8.79506 1387.46 8.79506 1387.09 8.79506C1387.09 7.69569 1387.09 6.96277 1386.73 6.96277C1386.36 6.96277 1386 7.69569 1386 8.79506C1386 8.06215 1385.63 7.32919 1385.63 7.32919C1385.26 7.32919 1385.26 8.06215 1385.26 8.79506H1384.9C1384.9 8.06215 1384.53 7.32919 1384.53 7.32919C1384.17 7.32919 1384.17 7.69566 1384.17 8.42858L1383.8 8.06216C1383.8 7.6957 1383.43 7.32919 1383.43 7.32919C1383.07 7.32919 1383.07 7.6957 1382.7 8.06216C1382.7 7.6957 1382.34 7.32919 1382.34 7.32919C1382.34 7.32919 1381.97 7.32921 1381.97 7.69567C1381.97 7.69567 1381.6 8.06212 1381.6 8.42858C1381.24 8.42858 1381.24 8.79503 1381.24 9.16149H1380.87C1380.51 8.79503 1380.51 8.42858 1380.14 8.42858L1379.77 8.79506C1379.41 8.4286 1379.41 8.42858 1379.04 8.42858C1379.04 8.42858 1378.68 8.4286 1378.68 8.79506C1378.68 8.4286 1378.31 8.06216 1378.31 8.06216C1377.94 8.06216 1377.94 8.4286 1377.94 8.79506C1377.94 9.16152 1377.94 9.16151 1377.94 9.52797C1377.58 9.52797 1377.58 9.52797 1377.21 9.52797C1377.21 8.79505 1377.21 8.06216 1376.85 8.06216C1376.85 8.06216 1376.85 8.06216 1376.48 8.06216C1376.48 7.6957 1376.11 7.32921 1376.11 7.69567C1376.11 7.32921 1375.75 8.42859 1375.75 9.52797C1375.38 9.52797 1375.02 9.52797 1374.65 9.52797C1374.65 9.52797 1374.65 9.16149 1374.28 9.16149C1374.28 8.42857 1373.92 8.06216 1373.92 8.06216C1373.55 8.06216 1373.55 8.42857 1373.55 9.16149C1373.55 8.79503 1373.19 8.79506 1373.19 8.79506C1373.19 8.79506 1372.82 9.16151 1372.82 9.52797H1372.45C1372.45 9.52797 1372.45 9.16149 1372.09 9.16149C1372.09 9.16149 1371.72 9.16151 1371.72 9.52797C1371.36 8.79505 1370.99 8.06216 1370.99 8.06216C1370.62 8.06216 1370.62 8.79505 1370.62 9.52797C1370.26 9.52797 1369.89 9.52797 1369.53 9.52797C1369.53 8.79505 1369.16 8.06216 1369.16 8.06216L1368.79 8.42858C1368.79 8.06212 1368.43 7.69567 1368.43 7.69567C1368.06 7.69567 1368.06 8.42859 1368.06 9.52797C1368.06 8.06213 1367.7 7.32919 1367.33 7.32919C1366.96 7.32919 1366.96 8.42859 1366.96 9.52797C1366.96 8.79505 1366.6 8.06216 1366.23 8.06216C1365.87 8.06216 1365.87 8.79505 1365.87 9.52797C1365.87 8.42859 1365.5 7.69567 1365.13 7.69567C1365.13 6.5963 1365.13 5.49689 1364.77 5.49689C1364.4 5.49689 1364.04 6.59628 1364.04 8.42858C1364.04 8.79504 1364.04 8.79503 1364.04 9.16149C1364.04 8.79503 1364.04 8.42858 1363.67 8.42858C1363.67 8.42858 1363.3 8.79503 1363.3 9.16149C1362.94 8.42857 1362.94 8.06216 1362.57 8.06216C1362.57 7.6957 1362.21 7.32919 1362.21 7.32919C1361.84 7.32919 1361.84 8.06211 1361.84 9.16149C1361.84 7.69565 1361.47 6.59631 1361.11 6.96277C1360.74 6.96277 1360.74 7.69565 1360.74 9.16149C1360.74 9.52795 1360.74 9.89442 1360.74 10.2609C1360.74 10.2609 1360.38 10.2609 1360.38 10.6274C1360.01 9.89444 1360.01 9.16149 1359.64 9.16149C1359.28 9.16149 1359.28 10.2609 1359.28 11.3603C1359.28 9.89443 1358.91 8.79503 1358.55 9.16149C1358.55 9.16149 1358.18 9.52799 1358.18 9.89445C1358.18 9.89445 1358.18 9.52797 1357.81 9.52797C1357.45 9.52797 1357.45 10.9938 1357.45 12.4597C1357.45 12.4597 1357.45 12.4596 1357.08 12.8261C1357.08 12.4596 1357.08 12.0932 1357.08 11.7268C1357.08 10.9938 1357.08 10.2609 1356.72 10.2609C1356.72 9.89442 1356.35 9.52797 1356.35 9.52797C1355.98 9.52797 1355.98 10.2609 1355.98 11.7268C1355.98 12.0932 1355.98 12.4596 1355.98 12.8261C1355.98 13.1925 1355.98 13.559 1355.98 14.292C1355.62 14.6584 1355.62 14.6584 1355.25 15.0249C1355.25 14.6584 1355.25 14.6584 1355.25 14.292C1355.25 14.292 1355.25 13.9255 1355.25 13.5591C1355.25 12.4597 1355.62 11.7267 1355.25 11.3603C1355.25 11.3603 1354.52 11.7267 1354.52 12.4597C1354.52 12.4597 1354.52 12.0932 1354.15 12.0932C1354.15 12.0932 1353.79 12.4596 1353.79 12.8261C1353.79 12.8261 1353.42 13.1926 1353.06 13.5591C1353.06 13.1926 1353.06 12.8261 1352.69 12.8261C1352.32 12.8261 1352.32 13.1926 1351.96 13.5591C1351.59 13.5591 1350.86 14.2919 1350.49 15.7578C1350.49 15.3913 1350.13 15.0249 1350.13 15.0249C1350.13 15.0249 1349.76 15.3913 1349.76 15.7578V16.1243C1349.76 15.7578 1349.76 15.7578 1349.76 15.7578C1349.4 15.7578 1349.03 16.4907 1349.03 17.2236C1349.03 16.8572 1348.66 16.1243 1348.66 16.1243C1348.3 16.1243 1347.93 16.8572 1347.93 17.9566C1347.93 18.323 1347.93 18.323 1347.93 18.6895C1347.93 19.0559 1347.57 19.0559 1347.57 19.4224C1347.57 19.0559 1347.57 18.6894 1347.57 18.323C1347.57 17.2236 1347.57 16.1243 1347.2 16.1243C1347.2 16.1243 1346.83 16.4907 1346.83 16.8572C1346.47 16.8572 1346.1 17.5901 1346.1 18.6895C1346.1 18.323 1346.1 17.9566 1346.1 17.9566C1345.74 17.9566 1345.74 18.323 1345.37 19.4224C1345.37 18.6895 1345.37 17.9566 1345.37 17.9566C1345.37 17.9566 1345 17.9565 1345 18.323C1345 18.323 1345 17.9566 1344.64 17.9566C1344.64 17.9566 1344.27 18.323 1344.27 18.6895C1344.27 18.323 1343.91 17.9566 1343.91 17.9566C1343.54 17.9566 1343.54 18.323 1343.17 19.0559C1343.17 18.6895 1343.17 18.6895 1342.81 18.6895C1342.44 18.6895 1342.44 19.0559 1342.08 19.7889C1341.71 19.7889 1341.34 20.5217 1341.34 21.2547V21.6212C1341.34 21.6212 1341.34 21.6211 1341.34 21.9876C1341.71 20.8882 1341.71 19.7889 1341.34 19.7889C1340.98 19.7889 1340.61 20.5217 1340.25 21.9876C1340.25 22.354 1340.25 22.7205 1340.25 22.7205C1340.25 22.7205 1340.25 22.7205 1340.25 22.3541C1340.25 21.2547 1339.88 20.5218 1339.88 20.5218C1339.88 20.5218 1339.51 20.5218 1339.51 20.8882C1339.51 20.8882 1339.51 20.5218 1339.15 20.5218C1338.78 20.5218 1338.42 21.2547 1338.42 22.3541V22.7205H1338.05C1338.05 21.6212 1338.05 20.8882 1337.68 20.5218C1337.32 20.5218 1336.95 21.6211 1336.95 23.087C1336.95 23.087 1336.95 23.087 1336.59 23.087C1336.59 22.7205 1336.59 22.3541 1336.22 22.3541C1335.85 22.3541 1335.49 22.7205 1335.49 23.4534C1335.49 23.087 1335.12 22.7205 1335.12 22.7205C1335.12 22.7205 1334.76 22.7205 1334.76 23.087C1334.76 22.7205 1334.76 22.7205 1334.39 22.7205C1334.39 22.7205 1334.02 23.087 1333.66 23.4534V23.087C1333.66 23.087 1332.93 23.4534 1332.56 24.1864V23.8199C1332.19 23.8199 1331.83 24.1864 1331.46 25.2857C1331.46 25.2857 1331.46 24.9193 1331.1 24.9193C1330.73 24.9193 1330.73 25.2857 1330.36 25.6522C1330.73 24.5528 1330.73 23.4534 1330.36 23.087C1330 23.087 1329.63 23.8199 1329.27 24.9193C1328.9 24.9193 1328.53 25.2858 1328.17 26.3851V26.7516C1328.17 26.3851 1328.17 26.0186 1327.8 25.6522C1327.44 25.6522 1327.07 26.0186 1327.07 26.7516C1327.07 27.118 1327.07 27.4845 1327.07 27.4845H1326.7H1326.34C1326.34 27.118 1326.34 27.118 1326.34 26.7516C1327.07 25.6522 1327.44 24.5528 1327.07 24.1864C1327.07 23.8199 1326.34 24.9193 1325.61 26.0187C1325.24 26.0187 1325.24 26.3851 1325.24 27.4845C1324.87 27.4845 1324.87 27.4845 1324.51 27.4845C1324.51 27.4845 1324.51 27.118 1324.51 26.7516C1324.51 26.0186 1324.51 25.6522 1324.14 25.6522C1323.78 25.6522 1323.41 26.0186 1323.41 26.7516V27.118H1323.04C1323.04 26.0187 1323.04 25.2857 1323.04 25.2857C1322.68 25.2857 1322.31 26.0186 1322.31 26.7516C1322.31 26.7516 1322.31 26.7516 1322.31 26.3851C1322.31 25.6522 1321.95 24.9193 1321.58 24.9193C1321.21 24.9193 1321.21 25.6522 1321.21 26.3851V26.7516C1321.21 26.3851 1321.21 26.0187 1320.85 26.0187C1320.48 25.2857 1320.12 24.5528 1320.12 24.5528C1319.75 24.5528 1319.75 25.6522 1320.12 26.3851V26.7516C1319.75 26.7516 1319.02 26.7516 1318.65 26.7516C1318.65 25.6522 1318.65 24.5528 1318.29 24.5528C1317.92 24.5528 1317.92 25.2858 1317.55 26.3851L1317.19 26.0187C1317.19 26.0187 1317.19 26.0187 1316.82 26.0187V25.6522C1316.82 24.9193 1316.46 24.5528 1316.09 24.5528C1315.72 24.5528 1315.72 25.2857 1315.72 26.0187C1315.72 26.3851 1315.72 26.3851 1315.72 26.7516C1315.36 26.7516 1314.99 26.7516 1314.63 26.7516C1314.26 26.0186 1313.89 25.2857 1313.89 25.2857C1313.89 24.9193 1313.89 24.5528 1313.53 24.5528C1313.16 24.5528 1312.8 25.2858 1312.8 26.3851C1312.8 26.0187 1312.43 26.0187 1312.43 26.0187C1312.06 26.0187 1312.06 26.3851 1312.06 26.3851C1311.7 26.3851 1311.7 26.3851 1311.33 26.3851C1311.7 24.9193 1311.33 23.4534 1311.33 23.4534C1310.97 23.4534 1310.6 24.5528 1310.23 26.3851H1309.87V26.0187C1309.87 24.9193 1309.87 23.8199 1309.5 23.8199C1309.5 23.4534 1309.5 23.4534 1309.14 23.4534C1308.77 23.4534 1308.4 24.5528 1308.4 25.6522C1308.4 26.0186 1308.4 26.0187 1308.4 26.3851H1308.04C1308.04 25.6522 1308.04 24.9193 1307.67 24.9193V24.5528C1307.31 24.5528 1306.94 25.2858 1306.57 26.3851H1306.21C1306.21 25.6522 1306.21 24.9193 1305.84 24.9193C1305.84 24.5528 1305.48 24.1864 1305.48 24.1864C1305.48 24.1864 1305.11 24.1864 1305.11 24.5528C1305.11 24.1864 1305.11 24.1863 1304.74 23.8199C1304.74 23.8199 1304.38 24.1864 1304.38 24.5528C1304.38 24.1864 1304.38 23.8199 1304.38 23.8199H1304.01C1304.01 23.8199 1304.01 23.8199 1303.65 23.8199C1303.65 23.8199 1303.28 24.1864 1303.28 24.5528C1303.28 24.9193 1302.91 25.2857 1302.91 25.6522C1302.91 25.6522 1302.91 25.6522 1302.91 26.0187C1302.91 25.2857 1302.55 24.5528 1302.55 24.5528L1302.18 24.9193C1301.82 24.5528 1301.82 24.1864 1301.45 24.1864C1301.08 24.1864 1301.08 24.9193 1301.45 25.6522C1301.45 25.6522 1301.08 25.6522 1301.08 26.0187C1301.08 24.9193 1301.08 24.1864 1301.08 24.1864C1301.08 24.1864 1300.72 24.5528 1300.72 24.9193C1300.72 24.5528 1300.72 24.1864 1300.35 24.1864C1300.35 24.1864 1299.99 24.5528 1299.99 24.9193C1299.99 24.5528 1299.99 24.1864 1299.62 24.1864C1299.25 24.1864 1298.89 25.2857 1298.89 26.7516C1298.89 25.6522 1298.52 24.5528 1298.16 24.5528C1297.79 24.5528 1297.79 25.6522 1297.79 26.7516H1297.42C1297.79 25.6522 1297.79 24.9193 1297.42 24.5528C1297.06 24.5528 1296.69 25.2858 1296.33 26.3851C1296.33 26.3851 1295.96 26.3851 1295.96 26.7516C1295.59 26.7516 1295.59 26.7516 1295.23 26.7516C1295.23 26.3851 1295.23 26.3851 1294.86 26.3851C1294.86 26.3851 1294.5 26.3851 1294.5 26.7516H1294.13C1294.13 25.6522 1294.13 24.9193 1294.13 24.5528C1293.76 24.5528 1293.4 25.2857 1293.4 26.7516C1293.4 26.7516 1293.4 26.7516 1293.03 26.7516C1293.03 26.3851 1293.03 25.6522 1292.67 25.6522C1292.3 25.6522 1292.3 26.0186 1291.93 26.7516C1291.93 26.0186 1291.93 25.2857 1291.57 25.2857C1291.57 25.2857 1291.2 25.2857 1291.2 25.6522C1290.84 25.6522 1290.84 26.0187 1290.84 26.3851C1290.84 26.7516 1290.84 26.7516 1291.2 26.7516H1290.47C1290.84 25.2857 1291.2 23.8199 1290.84 23.8199C1290.47 23.8199 1290.1 24.1864 1289.74 25.2857C1289.74 25.2857 1289.37 25.6522 1289.37 26.0187C1289.37 25.6522 1289.37 25.2857 1289.37 25.2857C1289.37 25.2857 1289.01 25.6522 1288.64 26.0187C1288.64 26.0187 1288.27 26.3851 1287.91 26.7516C1287.91 26.0186 1287.54 25.6522 1287.54 25.6522C1287.54 25.6522 1287.18 26.0187 1287.18 26.3851C1287.18 25.6522 1287.18 24.9193 1286.81 24.9193C1286.44 24.9193 1286.08 26.0187 1286.08 27.118C1286.08 27.118 1286.08 27.118 1285.71 27.118C1285.71 26.7516 1285.71 26.0187 1285.71 26.0187C1285.71 25.2857 1285.71 24.5528 1285.35 24.5528C1284.98 24.5528 1284.61 24.9193 1284.61 25.6522C1284.61 25.2857 1284.61 24.9193 1284.25 24.9193C1283.88 24.9193 1283.52 25.6522 1283.52 26.3851C1283.52 25.6522 1283.52 24.9193 1283.15 24.9193C1283.15 24.9193 1282.78 25.2857 1282.78 25.6522C1282.78 24.9193 1282.78 24.1864 1282.42 24.1864C1282.42 24.1864 1282.05 24.5528 1282.05 24.9193C1282.05 24.5528 1282.05 24.5528 1282.05 24.5528C1281.69 24.5528 1281.32 24.9193 1280.95 26.0187C1280.95 25.6522 1280.95 25.2857 1280.59 24.9193C1280.59 24.9193 1280.22 24.9193 1280.22 25.2857V24.9193C1280.22 24.9193 1279.86 24.9193 1279.86 25.2857C1279.86 24.5528 1279.86 24.1864 1279.49 24.1864C1279.49 24.1864 1279.49 24.1864 1279.12 24.1864C1279.12 23.087 1279.12 22.3541 1279.12 22.3541C1278.76 22.3541 1278.39 23.4535 1278.03 24.5528C1278.03 24.5528 1278.03 24.5528 1277.66 24.5528C1277.66 23.4535 1277.66 22.7205 1277.29 22.7205C1277.29 22.7205 1276.93 22.7205 1276.93 23.087C1276.93 22.7205 1276.93 22.7205 1276.56 22.7205C1276.56 22.3541 1276.56 22.3541 1276.2 22.3541C1276.2 22.3541 1275.83 22.7205 1275.46 23.4534C1275.1 23.4534 1275.1 24.1863 1275.1 24.9193C1275.1 23.8199 1275.1 22.7205 1274.73 22.7205C1274.37 22.7205 1274.37 23.4535 1274 24.5528C1274 24.5528 1274 24.5528 1274 24.9193H1273.63C1273.63 24.1863 1273.63 23.8199 1273.27 23.8199C1273.27 23.8199 1272.9 24.1864 1272.9 24.5528H1272.54C1272.54 23.4535 1272.54 22.3541 1272.17 22.3541C1272.17 22.3541 1271.8 22.7205 1271.8 23.087C1271.8 22.354 1271.8 21.6212 1271.44 21.6212C1271.07 21.6212 1271.07 22.354 1270.71 23.8199C1270.71 23.8199 1270.71 24.1864 1270.34 24.1864C1270.34 23.4534 1270.34 23.087 1269.97 23.087C1269.97 23.087 1269.61 23.4534 1269.61 23.8199C1269.24 23.8199 1268.88 24.9193 1268.88 26.7516C1268.88 26.7516 1268.51 27.118 1268.51 27.4845C1268.51 27.118 1268.51 27.118 1268.14 27.118C1267.78 27.118 1267.78 27.8509 1267.78 28.5839C1267.41 28.9503 1267.05 29.3168 1266.68 29.6833C1266.68 28.2174 1266.68 27.118 1266.31 26.7516C1265.95 26.7516 1265.58 27.8509 1265.58 29.3168C1265.58 29.6832 1265.58 30.0497 1265.58 30.7826C1265.58 30.7826 1265.58 30.7826 1265.58 30.4162C1265.58 28.5839 1265.58 26.7516 1265.22 26.7516C1264.85 26.7516 1264.85 27.4845 1264.48 28.5839C1264.48 28.2174 1264.48 28.2174 1264.12 28.2174C1263.75 28.2174 1263.75 28.9504 1263.39 30.0497C1263.39 28.5839 1263.39 27.851 1263.02 27.851C1262.65 27.851 1262.65 28.5839 1262.29 30.0497V29.6833C1261.92 29.6833 1261.56 31.1491 1261.56 33.3478C1261.56 32.6149 1261.56 31.882 1261.19 31.882C1260.82 31.882 1260.82 32.6149 1260.46 33.3478C1260.46 33.3478 1260.09 33.7143 1260.09 34.0808C1260.09 34.0808 1260.09 34.0808 1259.73 34.4472C1259.73 33.7143 1259.73 33.3478 1259.36 33.3478C1258.99 33.3478 1258.63 34.4472 1258.26 36.2795C1258.26 36.646 1258.26 37.0124 1258.26 37.7453C1257.9 37.7453 1257.9 38.1118 1257.53 38.1118C1257.53 37.3789 1257.53 37.0125 1257.9 36.2795C1258.26 34.4472 1258.63 32.9814 1258.26 32.6149C1257.9 32.6149 1257.16 34.0808 1256.8 36.2795C1256.8 36.646 1256.8 36.646 1256.8 37.0124C1256.8 36.646 1256.8 36.2795 1256.43 36.2795C1256.07 36.2795 1255.7 37.0125 1255.7 38.1118C1255.7 38.1118 1255.33 38.1118 1255.33 38.4783C1255.33 38.1118 1255.33 38.1118 1254.97 38.1118C1254.6 38.1118 1254.6 38.8448 1254.24 39.9441C1254.24 39.5777 1253.87 39.2112 1253.87 39.2112C1253.5 39.2112 1253.5 39.9441 1253.14 41.0435C1253.14 40.3106 1253.14 39.5776 1252.77 39.5776C1252.77 39.5776 1252.41 39.9441 1252.41 40.3106C1252.04 40.3106 1252.04 41.0435 1251.67 41.7764C1251.67 41.7764 1251.67 41.7764 1251.31 41.4099H1250.94C1250.58 41.4099 1250.58 41.7764 1250.21 42.8758C1250.21 42.8758 1250.21 42.8758 1249.84 43.2422C1249.84 42.1429 1249.48 41.0435 1249.48 41.0435C1249.11 41.0435 1248.75 42.1429 1248.75 43.9752C1248.75 43.9752 1248.75 43.9752 1248.38 43.9752C1248.38 42.8758 1248.01 42.1429 1248.01 42.1429C1248.01 42.1429 1247.65 42.8758 1247.65 43.6087C1247.65 43.2423 1247.65 43.2422 1247.28 43.2422C1246.92 43.2422 1246.55 43.9752 1246.55 45.0745C1246.55 45.0745 1246.55 45.0746 1246.55 45.441L1246.18 45.0745C1245.82 45.0745 1245.45 45.441 1245.45 45.441V45.8074C1245.09 46.1739 1244.72 46.174 1244.35 46.5404V46.1739C1244.72 46.1739 1245.09 45.441 1245.09 45.0745C1245.09 44.3416 1245.09 43.9752 1244.72 43.6087C1244.35 43.6087 1243.99 43.9752 1243.99 44.7081V45.0745C1243.62 45.0745 1243.62 45.441 1243.26 46.1739C1243.26 46.1739 1243.26 46.1739 1242.89 46.1739C1242.89 45.441 1242.89 44.7081 1242.52 44.3416C1242.52 44.3416 1242.16 44.3417 1242.16 44.7081C1242.16 44.7081 1242.16 44.7081 1241.79 44.7081C1241.79 43.9752 1241.79 43.6087 1241.43 43.6087C1241.06 43.6087 1241.06 44.3416 1240.69 45.0745C1240.69 44.3416 1240.33 43.9752 1240.33 43.9752C1239.96 43.9752 1239.6 45.0746 1239.6 46.5404C1239.6 47.2733 1239.6 48.0062 1239.96 48.7391C1239.6 48.7391 1239.6 49.1056 1239.23 49.1056C1238.86 46.9069 1239.23 45.441 1238.86 45.0745C1238.86 45.0745 1238.86 45.0746 1238.5 45.441C1238.5 45.0746 1238.5 45.0745 1238.13 45.0745C1237.77 45.0745 1237.77 46.5404 1237.77 48.3727C1237.77 48.7392 1237.77 49.4721 1237.77 49.8385C1237.77 49.4721 1237.77 49.1056 1237.77 48.3727C1237.77 46.5404 1237.77 45.0745 1237.4 45.0745C1237.4 45.0745 1237.4 45.441 1237.03 45.441C1236.67 45.441 1236.67 46.1739 1236.67 47.2733C1236.67 46.9069 1236.3 46.5404 1236.3 46.5404C1236.3 46.5404 1235.94 46.5404 1235.94 46.9068C1235.94 46.5404 1235.94 46.5404 1235.57 46.5404C1235.2 46.5404 1235.2 46.9068 1234.84 47.6397C1234.84 47.2733 1234.47 46.9068 1234.47 46.9068C1234.11 46.9068 1234.11 47.2733 1234.11 48.0062C1234.11 46.9069 1233.74 46.5404 1233.74 46.5404C1233.74 46.5404 1233.37 47.2733 1233.37 48.0062C1233.01 48.0062 1232.64 48.7392 1232.64 49.8385C1232.64 49.8385 1232.64 50.205 1232.28 50.205C1232.28 49.8386 1232.28 49.8385 1232.28 49.8385C1231.91 49.8385 1231.91 50.205 1231.54 50.9379C1231.54 51.3044 1231.18 51.6708 1231.18 52.4037C1231.18 52.4037 1230.81 52.7702 1230.81 53.1366C1230.81 52.4037 1230.81 52.0373 1230.45 52.0373C1230.08 52.0373 1230.08 52.7702 1229.71 53.8696C1229.71 53.5031 1229.71 53.1366 1229.35 53.1366C1229.35 53.1366 1228.98 53.5031 1228.98 53.8696C1228.98 53.5031 1228.98 53.1367 1228.98 52.7702C1228.98 51.6708 1228.98 50.9379 1228.62 50.9379C1228.62 50.9379 1228.25 51.3044 1228.25 51.6708C1228.25 51.6708 1227.88 52.0373 1227.88 52.4037C1227.88 51.6708 1227.88 51.3043 1227.52 51.3043C1227.15 51.3043 1226.79 52.4037 1226.42 54.236C1226.42 54.236 1226.42 54.6025 1226.05 54.6025C1226.05 54.6025 1226.05 54.6025 1225.69 54.236C1225.32 54.236 1225.32 54.6025 1225.32 54.9689C1225.32 54.9689 1224.96 54.969 1224.96 55.3354C1224.96 55.3354 1224.59 55.3354 1224.59 55.7019C1224.59 54.969 1224.59 54.6025 1224.22 54.6025C1223.86 54.6025 1223.49 55.7019 1223.49 56.8012C1223.49 56.8012 1223.13 57.1677 1223.13 57.5342C1223.13 56.8013 1223.13 56.4348 1222.76 56.4348C1222.76 56.4348 1222.39 56.8013 1222.39 57.1677C1222.03 57.1677 1222.03 57.9006 1221.66 58.6335C1221.3 58.6335 1221.3 59 1221.3 59.3665C1221.3 59 1220.93 59 1220.93 59C1220.93 59 1220.56 59 1220.56 59.3665C1220.56 59.3665 1220.2 59.7329 1220.2 60.0994C1220.2 59.7329 1220.2 59.7329 1219.83 59.7329C1219.83 59.7329 1219.83 59.7329 1219.47 59.7329C1219.47 59.3665 1219.47 59.3665 1219.1 59.3665C1219.1 59.3665 1218.73 59.7329 1218.37 60.0994C1218.37 60.0994 1218.37 59.7329 1218 59.7329C1217.64 59.7329 1217.27 60.8323 1217.27 61.9317C1217.27 62.6646 1217.27 63.0311 1217.27 63.3975C1217.27 63.3975 1217.27 63.3975 1216.9 63.3975V63.0311C1216.9 61.9317 1216.9 60.8323 1216.54 60.8323C1216.17 60.8323 1216.17 61.5652 1215.81 62.2981C1215.81 62.2981 1215.81 62.2981 1215.44 62.2981C1215.44 61.9317 1215.07 61.5652 1215.07 61.5652C1214.71 61.5652 1214.71 62.6646 1214.71 63.3975C1214.71 64.1304 1214.71 64.4969 1214.71 64.8634L1214.34 65.2298C1214.34 64.1304 1214.34 63.3975 1213.98 63.3975C1213.98 63.3975 1213.61 63.764 1213.61 64.1304C1213.61 63.764 1213.61 63.3975 1213.24 63.3975C1212.88 63.3975 1212.51 64.1305 1212.51 64.8634C1212.15 64.8634 1212.15 65.5963 1212.15 66.3292C1212.15 66.6957 1212.15 66.6957 1212.15 67.0621L1211.78 67.4286C1211.78 67.0621 1211.78 66.6956 1211.78 65.9627C1212.15 64.1304 1212.15 62.6646 1211.78 62.6646C1211.78 62.6646 1211.41 62.6646 1211.41 63.3975C1211.41 62.6646 1211.41 62.6646 1211.41 62.6646C1211.05 62.6646 1210.68 64.1305 1210.32 66.6957C1210.32 67.0622 1210.32 67.0621 1210.32 67.4286C1210.32 66.3292 1210.32 65.5963 1209.95 65.5963C1209.95 65.5963 1209.58 65.9628 1209.58 66.3292C1209.58 65.9628 1209.58 65.9627 1209.22 65.9627C1208.85 65.9627 1208.49 67.0622 1208.49 68.528V68.8944C1208.49 68.8944 1208.49 68.528 1208.12 68.528C1208.12 68.1615 1208.12 67.7951 1207.75 67.4286V67.0621C1207.39 67.0621 1207.02 67.7951 1206.66 69.2609C1206.66 68.8944 1206.66 68.528 1206.29 68.528L1205.92 68.8944V68.528C1205.92 68.528 1205.56 68.528 1205.56 68.8944C1205.56 68.528 1205.56 68.528 1205.19 68.528C1204.83 68.528 1204.46 69.2609 1204.09 70.7267C1203.73 70.7267 1203.36 71.4596 1203.36 72.559C1203.36 71.4596 1203 70.7267 1203 70.7267C1202.63 70.7267 1202.26 71.8261 1202.26 73.2919V73.6584C1202.26 73.2919 1202.26 72.9255 1201.9 72.9255C1201.9 72.9255 1201.53 73.2919 1201.17 73.6584C1201.17 73.2919 1201.17 73.2919 1200.8 73.2919C1200.43 73.2919 1200.07 74.0248 1200.07 75.1242C1200.07 74.3913 1200.07 74.0249 1200.07 73.6584C1199.7 73.6584 1199.34 74.3913 1198.97 75.4907C1198.97 75.4907 1198.97 75.8572 1198.6 75.8572C1198.6 75.4907 1198.6 75.1242 1198.24 75.1242C1197.87 75.1242 1197.51 76.5901 1197.14 78.4224V78.7888C1197.14 78.7888 1197.14 78.7888 1196.77 79.1553C1196.77 79.1553 1196.77 79.1553 1196.77 78.7888C1196.77 77.6894 1196.77 76.5901 1196.41 76.5901C1196.41 76.2236 1196.41 75.8572 1196.04 75.8572C1195.68 75.8572 1195.31 76.5901 1195.31 77.323C1195.31 77.323 1194.94 77.6895 1194.58 78.4224C1194.21 78.4224 1194.21 78.7889 1193.85 79.5218C1193.85 78.7889 1193.85 78.4224 1193.85 78.0559C1193.48 78.0559 1193.11 78.7888 1192.75 79.8882C1192.38 79.8882 1192.02 80.6212 1192.02 81.3541C1191.65 81.3541 1191.65 82.087 1191.28 82.8199C1191.28 82.4534 1191.28 82.4534 1190.92 82.4534C1190.55 82.4534 1190.55 82.8199 1190.19 83.5528C1190.19 83.5528 1189.82 83.9193 1189.45 84.2857C1189.45 83.9193 1189.45 83.5528 1189.09 83.5528C1188.72 83.5528 1188.36 84.2857 1188.36 85.3851C1188.36 85.0186 1188.36 85.0187 1187.99 85.0187C1187.62 85.0187 1187.26 85.7516 1187.26 86.851V87.2174C1187.26 87.2174 1186.89 87.2174 1186.89 87.5839C1186.89 87.5839 1186.89 87.2174 1186.53 87.2174C1186.53 87.2174 1186.16 87.2174 1186.16 87.5839C1185.79 87.5839 1185.43 88.6833 1185.06 90.1491C1184.7 90.1491 1184.33 90.882 1184.33 91.9814C1184.33 92.3478 1184.33 92.3478 1184.33 92.7143C1184.33 92.7143 1184.33 92.3479 1183.96 92.3479C1183.6 92.3479 1183.6 93.0808 1183.23 93.8137C1183.23 92.7143 1183.23 91.9814 1182.87 91.9814C1182.5 91.9814 1182.5 92.7143 1182.13 93.4472C1181.77 93.4472 1181.4 94.1802 1181.4 94.9131C1181.4 94.5466 1181.4 94.1802 1181.04 94.1802C1181.04 94.1802 1180.67 94.1801 1180.67 94.5466C1180.67 93.8137 1180.3 93.4472 1179.94 93.4472C1179.94 93.4472 1179.57 93.8137 1179.57 94.5466C1179.57 93.8137 1179.57 93.4472 1179.21 93.4472C1179.21 93.4472 1178.84 93.8137 1178.84 94.1802C1178.84 93.8137 1178.47 93.4472 1178.47 93.4472C1178.47 93.0807 1178.11 93.0808 1178.11 93.0808C1178.11 93.0808 1177.74 93.4472 1177.74 94.1802C1177.74 93.4472 1177.74 93.0808 1177.38 93.0808C1177.38 93.0808 1177.38 93.0808 1177.01 93.0808C1177.01 92.7143 1176.64 92.3479 1176.64 92.3479C1176.28 92.3479 1176.28 93.0808 1175.91 93.8137C1175.91 93.4472 1175.91 93.4472 1175.55 93.4472C1175.55 93.4472 1175.55 93.4472 1175.18 93.4472C1175.18 93.4472 1175.18 93.4472 1175.18 93.0808C1175.18 92.3479 1175.18 91.6149 1175.18 91.2485C1174.81 91.2485 1174.45 92.3478 1174.08 93.8137V93.4472C1174.08 91.9814 1174.08 90.882 1173.72 90.882C1173.72 90.882 1173.35 91.2485 1173.35 91.9814C1173.35 90.882 1172.98 90.1491 1172.98 90.1491C1172.62 90.1491 1172.62 90.882 1172.62 91.9814C1172.62 91.6149 1172.62 91.6149 1172.25 91.6149C1171.89 91.6149 1171.89 91.9814 1171.52 93.0808C1171.52 91.9814 1171.15 90.882 1171.15 90.882C1171.15 90.882 1170.79 91.2484 1170.79 91.6149C1170.79 91.6149 1170.79 91.6149 1170.42 91.6149C1170.42 91.2484 1170.42 90.882 1170.06 90.882C1170.06 90.882 1169.69 91.2484 1169.69 91.6149C1169.69 91.6149 1169.69 91.2485 1169.32 91.2485C1169.32 91.2485 1168.96 91.6149 1168.96 91.9814V91.6149C1168.96 90.5155 1168.96 89.7826 1168.59 89.7826C1168.23 89.7826 1168.23 90.5155 1167.86 91.6149C1167.86 91.9814 1167.49 92.3478 1167.49 92.7143C1167.49 92.3478 1167.13 91.9814 1166.76 91.9814C1166.76 91.9814 1166.4 91.9814 1166.4 92.3479C1166.4 91.9814 1166.4 91.9814 1166.03 91.9814C1166.03 91.2485 1165.66 90.882 1165.66 90.882C1165.3 90.882 1165.3 91.2485 1164.93 91.9814C1164.93 91.9814 1164.93 91.9814 1164.57 91.9814C1164.57 91.9814 1164.2 91.9814 1164.2 92.3479C1164.2 92.3479 1164.2 92.3479 1163.83 92.3479C1163.83 92.3479 1163.47 92.3478 1163.47 92.7143C1163.47 92.3478 1163.1 91.9814 1163.1 91.9814C1163.1 91.9814 1162.74 92.3478 1162.74 92.7143C1162.74 92.7143 1162.74 92.3479 1162.37 92.3479C1162.37 91.6149 1162.37 91.2485 1162 91.2485C1161.64 91.2485 1161.27 92.3478 1161.27 93.8137C1161.27 92.3478 1161.27 91.2485 1160.91 91.2485C1160.54 91.2485 1160.54 91.9814 1160.17 92.7143C1160.17 92.7143 1160.17 92.3479 1159.81 92.3479C1159.44 92.3479 1159.44 92.7143 1159.08 93.4472C1159.08 92.7143 1158.71 92.3479 1158.71 92.3479C1158.34 92.3479 1158.34 92.7143 1158.34 93.4472C1158.34 93.4472 1158.34 93.4472 1157.98 93.4472L1157.61 93.8137C1157.61 93.8137 1157.61 93.8137 1157.25 93.8137C1157.25 93.8137 1156.88 93.8137 1156.88 94.1802C1156.88 93.4472 1156.88 93.0808 1156.51 93.0808C1156.15 93.0808 1156.15 93.4472 1155.78 94.1802C1155.78 93.8137 1155.78 93.8137 1155.42 93.8137C1155.42 93.8137 1155.05 93.8137 1155.05 94.1802C1155.05 93.8137 1155.05 93.8137 1154.68 93.8137C1154.32 93.8137 1153.95 94.9131 1153.95 96.0125V96.3789H1153.59C1153.59 95.2795 1153.59 94.5466 1153.59 94.5466C1153.22 94.5466 1152.85 95.646 1152.49 97.1118C1152.49 97.1118 1152.49 97.1118 1152.49 96.7454C1152.49 95.646 1152.85 94.5466 1152.49 94.1802C1152.12 94.1802 1151.76 94.9131 1151.76 95.646C1151.76 95.2795 1151.76 95.2795 1151.39 95.2795C1151.39 94.913 1151.39 94.5466 1151.02 94.5466C1151.02 94.5466 1150.66 94.9131 1150.29 96.0125C1150.29 95.646 1150.29 95.646 1149.93 95.646C1149.93 95.646 1149.56 96.0125 1149.19 96.7454C1149.19 96.3789 1149.19 96.0125 1148.83 96.0125C1148.83 96.0125 1148.46 96.3789 1148.46 96.7454C1148.46 96.7454 1148.46 96.3789 1148.1 96.3789C1147.73 96.3789 1147.36 97.4783 1147.36 98.5777C1147.36 98.5777 1147 98.9441 1147 99.3106C1147 98.9441 1146.63 98.9441 1146.63 98.9441C1146.27 98.9441 1146.27 99.677 1146.27 101.143C1146.27 100.043 1146.27 99.3106 1145.9 99.3106C1145.9 99.3106 1145.53 99.677 1145.53 100.41C1145.53 100.044 1145.53 99.6771 1145.17 99.6771C1144.8 99.6771 1144.8 100.776 1144.44 101.876C1144.44 102.242 1144.07 102.242 1144.07 102.609C1144.07 101.876 1144.07 101.509 1143.7 101.143C1143.34 101.143 1142.97 101.876 1142.97 103.342C1142.97 103.708 1142.97 103.708 1142.97 104.075C1142.61 104.075 1142.61 104.441 1142.24 104.807C1142.24 104.807 1142.24 104.441 1141.87 104.441C1141.87 104.441 1141.51 104.441 1141.51 104.807C1141.51 103.708 1141.51 102.975 1141.14 102.975C1140.78 102.975 1140.41 104.075 1140.41 105.907C1140.04 105.907 1139.68 106.64 1139.68 107.739C1139.68 108.106 1139.68 108.106 1139.68 108.106C1139.68 108.106 1139.68 108.106 1139.31 107.739C1138.95 107.739 1138.95 108.106 1138.58 108.839C1138.58 108.106 1138.58 107.373 1138.21 107.373C1137.85 107.373 1137.48 107.739 1137.48 108.839C1137.48 108.472 1137.48 108.472 1137.12 108.472L1136.75 108.839C1136.75 108.106 1136.75 107.739 1136.38 107.739C1136.38 107.739 1136.02 108.106 1135.65 108.839C1133.09 109.205 1133.09 111.037 1133.09 113.236C1130.89 108.839 1126.5 111.037 1124.67 111.037V113.236C1122.48 111.037 1126.87 108.839 1122.48 108.839C1122.48 111.037 1122.48 111.037 1122.48 113.236C1122.48 111.037 1122.48 111.037 1120.28 111.037C1122.48 115.435 1115.89 111.037 1115.89 115.435C1115.89 113.236 1115.89 113.236 1115.89 111.037C1118.08 113.236 1113.69 115.435 1113.69 117.634C1113.69 111.037 1107.1 124.23 1107.1 115.435C1104.91 122.031 1098.69 117.634 1094.29 122.031C1094.29 119.832 1094.29 119.832 1094.29 117.634C1089.9 117.634 1087.71 119.832 1083.68 124.23C1081.48 126.429 1079.29 126.429 1077.09 126.429C1079.29 128.627 1074.9 130.826 1079.29 130.826C1074.9 128.627 1072.7 133.025 1068.67 133.025C1068.67 130.826 1070.87 130.826 1073.07 130.826L1070.87 128.627C1058.06 137.056 1043.05 133.025 1029.88 137.056C1029.88 134.857 1029.88 134.857 1029.88 132.658C1027.68 137.056 1021.46 132.658 1019.26 137.056L1017.07 134.857C1019.26 134.857 1021.46 134.857 1023.66 134.857C1019.26 137.056 1015.24 132.658 1013.04 137.056C1013.04 134.857 1013.04 134.857 1013.04 132.658C1008.65 141.087 1000.23 147.683 995.84 156.478C993.644 154.28 991.448 152.081 989.252 149.882C991.448 156.478 984.86 147.683 984.86 152.081C984.86 149.882 984.86 149.882 984.86 147.683C978.272 147.683 969.854 141.087 963.266 147.683C963.266 145.484 963.266 143.286 961.07 141.087C961.07 143.286 961.07 143.286 961.07 145.485C961.07 143.286 961.07 143.286 961.07 141.087C963.266 141.087 967.658 141.087 969.488 141.087C965.096 141.087 969.488 143.286 967.292 145.485C960.704 141.087 950.09 145.484 943.502 141.087H945.698C937.28 138.888 928.496 138.888 920.078 143.286C915.686 143.286 909.464 145.484 905.072 141.087H907.268C902.876 138.888 898.85 138.888 894.458 136.689C883.844 141.087 875.06 138.888 864.446 138.888C847.244 134.491 832.238 134.491 815.036 134.491C815.036 136.689 815.036 136.689 815.036 138.888C810.644 132.292 800.03 134.491 793.442 130.46C795.638 132.658 789.05 132.658 791.246 134.857C786.854 132.658 782.828 139.255 776.24 134.857C761.234 141.453 739.64 141.453 722.438 134.857C715.85 137.056 707.432 139.255 700.844 140.354C693.158 141.82 685.838 143.286 679.25 147.683C666.44 147.683 653.63 152.081 640.454 149.882C640.454 152.081 640.454 152.081 640.454 154.28L638.258 152.081C636.062 156.478 631.67 154.28 627.644 154.28C627.644 156.478 627.644 158.677 625.448 158.677C618.86 156.478 614.834 160.876 610.442 163.075V160.876C603.854 165.273 595.436 160.876 588.848 169.304C578.234 169.304 565.058 173.702 554.444 167.106L552.248 169.304C552.248 167.106 550.052 167.106 547.856 167.106C545.66 167.106 545.66 169.304 545.66 171.503C547.856 171.503 547.856 171.503 547.856 169.304C541.268 169.304 535.046 173.702 528.458 171.503V169.304C526.262 171.503 530.654 173.702 526.262 173.702C526.262 171.503 526.262 171.503 526.262 169.304C521.87 171.503 515.648 171.503 512.354 171.87C507.596 172.236 502.838 171.503 498.446 169.304C498.446 171.503 496.25 171.503 494.054 171.503L496.25 173.702C472.46 169.304 449.036 156.478 425.246 167.106C418.658 160.509 408.044 152.081 414.632 141.453C412.436 139.255 410.24 134.857 406.214 134.857C406.214 137.056 406.214 137.056 406.214 139.255C404.018 137.056 404.018 137.056 401.822 134.857C401.822 137.056 399.626 137.056 397.43 137.056C397.43 134.857 397.43 134.857 397.43 132.658C390.842 134.857 386.816 128.261 380.228 130.46C378.032 126.062 373.64 126.062 369.614 126.062C369.614 128.261 369.614 128.261 369.614 130.46C369.614 126.062 363.026 123.863 365.222 119.832L363.026 122.031C363.026 119.832 363.026 119.832 363.026 117.634C360.83 117.634 358.634 117.634 356.438 119.832C358.634 115.435 356.438 111.404 352.046 109.205C352.046 109.205 352.046 111.404 352.412 111.037C354.242 104.807 345.824 102.609 345.824 96.0125C345.824 98.2112 345.824 98.2112 345.824 100.41C345.824 98.2112 345.824 96.0125 345.824 96.0125C339.236 89.4162 335.21 83.1863 326.426 78.7888C324.23 78.7888 322.034 78.7888 319.838 78.7888C317.642 76.5901 315.446 74.3913 311.786 74.3913C311.786 73.6584 311.786 73.2919 311.42 73.2919C311.42 73.2919 311.42 73.2919 311.054 73.2919C311.054 73.2919 311.054 72.9255 310.688 72.9255C310.688 72.9255 310.688 72.9255 310.322 72.9255C310.322 72.9255 310.322 72.9255 309.956 73.2919C309.956 72.9255 309.956 72.559 309.59 72.559C309.224 72.559 309.224 72.9255 308.858 73.6584C308.858 72.1926 308.858 71.0932 308.492 71.0932C308.492 71.0932 308.126 71.4596 307.76 72.559C307.76 71.8261 307.76 71.0932 307.394 71.0932C307.76 69.9938 307.76 68.8944 307.394 68.8944C307.394 68.8944 307.028 68.8944 307.028 69.2609C307.028 69.2609 307.028 68.8944 306.662 68.8944C306.662 68.528 306.662 68.1615 306.296 68.1615C306.296 68.1615 306.296 68.1615 305.93 68.528C305.564 68.528 305.564 68.528 305.564 68.8944C305.564 68.8944 305.564 68.528 305.198 68.528H304.832C304.832 68.528 304.832 68.1615 304.832 67.795C304.832 67.0621 304.832 66.6957 304.466 66.6957C304.466 66.6957 304.466 66.6957 304.1 66.6957L303.734 66.3292H303.368C303.368 65.5963 303.368 65.2298 303.002 65.2298C303.002 64.8634 302.636 64.4969 302.636 64.1304C302.27 64.1304 301.904 64.4969 301.904 65.2298C301.904 65.9627 301.904 66.3292 302.27 66.3292C301.904 66.3292 301.904 65.9627 301.538 65.9627C301.538 65.5963 301.538 65.5963 301.538 65.2298C301.538 64.4969 301.538 63.764 301.172 63.764C301.172 63.764 301.172 63.764 300.806 63.764C300.806 63.764 300.44 63.764 300.44 64.1304C300.44 64.1304 300.44 64.1304 300.074 64.1304C300.074 64.1304 300.074 63.764 299.708 63.764C299.708 63.3975 299.342 63.3975 299.342 63.3975C299.342 63.3975 298.976 63.3975 298.976 63.764C298.976 63.3975 298.976 63.0311 298.61 63.0311C298.244 63.0311 297.878 63.3975 297.878 64.1304V64.4969C297.878 64.4969 297.878 64.4969 297.512 64.4969V64.1304C297.512 63.3975 297.512 62.6646 297.146 62.6646C297.146 62.6646 296.78 62.6646 296.78 63.0311C296.414 63.0311 296.414 63.3975 296.048 63.764L295.682 63.3975C295.682 63.0311 295.682 62.6646 295.316 62.6646C295.316 62.6646 294.95 62.6646 294.95 63.0311C294.95 62.2982 294.584 61.9317 294.218 61.9317C294.218 61.9317 293.852 61.9317 293.852 62.2981C293.852 62.2981 293.852 62.2981 293.486 62.2981C293.486 62.2981 293.486 62.2981 293.12 62.2981C293.12 62.2981 292.754 62.2982 292.754 62.6646V62.2981C292.754 61.5652 292.754 61.1988 292.388 61.1988C292.022 61.1988 291.656 61.5652 291.656 62.2981V62.6646C291.656 62.6646 291.656 63.0311 291.29 63.3975L290.924 63.0311C290.558 63.0311 290.558 63.0311 290.558 63.0311C290.558 63.0311 290.192 63.0311 290.192 63.3975C290.192 63.3975 289.826 63.3976 290.192 63.0311C290.192 62.6646 289.826 62.2981 289.826 62.2981C289.46 62.2981 289.46 62.6646 289.46 63.0311C289.46 63.0311 289.46 63.0311 289.094 63.0311C289.094 62.6646 289.094 62.6646 288.728 62.6646C288.728 62.6646 288.728 62.6646 288.362 62.6646C288.362 62.2982 287.996 61.9317 287.996 61.9317C287.63 61.9317 287.63 62.2982 287.63 62.6646C287.63 62.6646 287.63 62.2981 287.264 62.2981C286.898 62.2981 286.898 62.2982 286.532 62.6646C286.532 62.2982 286.166 62.2981 286.166 62.2981C285.8 62.2981 285.8 62.6646 285.8 63.0311C285.8 63.0311 285.8 63.0311 285.434 62.6646C285.434 62.6646 285.434 62.6646 285.068 62.6646C285.068 62.2982 284.702 61.9317 284.336 61.9317C283.97 61.9317 283.97 62.2982 283.97 62.6646L283.604 62.2981H283.238H282.872H282.506C282.506 62.2981 282.506 62.2981 282.14 62.2981C282.14 62.2981 282.14 62.2981 281.774 62.2981H281.408C281.408 62.2981 281.408 61.9317 281.042 61.9317C281.042 61.9317 281.042 61.9317 280.676 61.9317C280.676 61.9317 280.676 61.5652 280.31 61.5652C279.944 61.5652 279.944 61.9317 279.578 62.2981C279.578 61.5652 279.578 60.8323 279.212 60.8323C278.846 60.4659 278.114 59.733 277.748 61.1988C277.748 61.5653 277.382 61.5652 277.382 61.9317L277.016 61.5652C277.016 61.1988 277.016 60.8323 276.65 60.8323H276.284C276.284 60.8323 276.284 60.8323 275.918 60.8323C275.918 60.8323 275.918 60.8323 275.552 60.8323C275.552 60.8323 275.186 60.8323 275.186 61.1988C275.186 60.8323 275.186 60.8323 275.186 60.8323C275.186 60.8323 275.186 60.8323 274.82 60.8323C274.454 60.8323 273.722 60.8323 274.088 61.1988C274.088 61.1988 274.088 60.8323 273.722 60.8323H273.356C273.356 60.4659 273.356 60.4659 272.99 60.0994C272.99 59.7329 272.624 60.0994 272.258 60.4658C272.258 60.0994 272.258 60.0994 272.258 59.7329V59.3665C272.258 59.3665 271.892 59.3665 271.16 59V59.3665C271.526 58.6336 271.16 57.9006 270.794 57.9006C270.794 57.9006 270.428 57.9007 270.428 58.2671C270.062 58.2671 270.062 58.6336 269.696 59.3665C269.696 59 269.33 59 269.33 59C269.33 59 268.964 59 268.964 59.3665C268.964 58.6336 268.964 57.9006 268.964 57.9006C268.964 57.9006 268.964 57.5342 268.598 57.5342C268.232 57.5342 268.232 57.5342 268.232 57.9006C268.232 57.5342 268.232 57.5342 267.866 57.1677L267.5 56.8012H267.134C267.134 56.4348 266.768 56.0683 266.768 56.0683C266.768 56.0683 266.402 56.0684 266.402 56.4348C266.402 56.4348 266.402 56.0683 266.036 56.0683C266.036 56.0683 266.036 56.0683 265.67 56.0683C265.67 55.3354 265.67 54.6025 265.304 54.6025C264.938 54.6025 264.938 54.969 264.572 56.0683C264.572 55.7019 264.206 55.3354 263.84 55.3354V54.9689C264.206 54.236 263.84 53.8696 263.474 53.5031C263.84 53.1367 262.376 53.5031 262.742 54.6025C262.742 54.6025 262.742 54.6025 262.742 54.9689C262.742 54.9689 262.742 54.9689 262.376 54.9689C262.01 54.9689 262.01 54.9689 261.644 54.9689C261.644 54.9689 261.644 54.6025 261.278 54.6025C261.278 54.2361 260.912 54.236 260.912 54.236C260.912 53.8696 260.546 53.5031 260.546 53.5031C260.546 53.5031 260.18 53.5031 260.18 53.8696C260.18 53.1367 259.814 52.7702 259.814 53.1366C259.814 53.1366 259.448 53.1367 259.448 53.5031C259.448 52.7702 259.082 52.4037 259.082 52.4037C259.082 52.4037 258.716 52.7702 258.716 53.5031C257.984 53.8696 257.984 54.2361 257.984 54.6025C257.984 54.6025 257.984 54.6025 257.618 54.6025C257.618 54.6025 257.618 54.6025 257.252 54.9689C257.252 54.9689 257.252 54.9689 256.886 54.9689C256.886 54.9689 256.52 54.9689 255.788 54.9689C255.788 54.6025 255.422 54.6025 255.422 54.6025C255.422 54.2361 255.056 53.8696 255.056 53.8696C254.69 53.8696 254.69 54.6025 254.324 55.3354C254.324 55.3354 254.324 55.3354 254.324 55.7019H253.958C253.958 55.7019 253.958 55.7019 253.958 55.3354C253.958 54.969 253.958 54.236 253.592 54.236C253.226 54.236 252.86 54.6025 252.86 54.9689V55.3354H252.494C252.494 55.3354 252.494 54.969 252.494 54.6025C252.494 54.2361 252.128 54.2361 252.494 54.6025C252.128 54.6025 252.128 54.9689 251.762 54.9689H251.396C251.396 54.6025 251.396 54.236 251.03 54.236C250.664 54.236 250.664 54.2361 250.298 54.6025C250.298 54.2361 250.298 54.2361 249.932 53.8696C249.932 53.5031 249.2 53.8696 249.2 54.9689C249.2 54.9689 249.2 54.969 249.2 55.3354C249.2 54.6025 249.2 54.236 248.834 54.236C248.834 54.236 248.468 54.2361 248.468 54.6025C248.468 54.6025 248.468 54.236 248.102 54.236V53.8696C248.102 53.5031 247.736 53.1366 247.736 53.1366C247.37 53.1366 247.37 53.5031 247.37 54.236C247.37 53.8696 247.004 53.8696 247.004 53.5031C247.004 53.1367 247.004 53.1366 246.638 53.1366C246.638 53.1366 246.272 53.1367 246.272 53.5031C246.272 51.6708 246.272 50.5714 245.906 50.5714C245.906 50.5714 245.54 50.5715 245.54 50.9379C245.54 50.5715 245.54 50.5714 245.174 50.5714C244.808 50.5714 244.808 51.6708 244.808 53.5031C244.808 53.8696 244.808 53.8696 244.808 53.8696C244.808 53.5031 244.808 53.1366 244.442 53.1366C244.076 53.1366 243.71 53.5031 243.71 53.8696C243.71 53.1367 243.71 52.7702 243.344 52.7702C243.344 52.7702 243.344 52.7702 242.978 52.7702C242.978 52.4038 242.612 52.0373 242.612 52.0373C242.246 52.0373 242.246 52.4037 241.88 53.1366C241.88 53.1366 241.88 52.7702 241.514 52.7702C241.148 52.7702 241.148 53.1367 241.148 53.5031C240.782 53.5031 240.782 53.8696 240.416 54.6025V54.9689V54.6025C240.416 54.2361 240.416 53.8696 240.416 53.8696C240.416 53.1367 240.05 52.7702 240.05 52.7702C240.05 52.7702 239.684 53.1367 239.684 53.5031C239.684 53.5031 239.684 53.1366 239.318 53.1366C239.318 53.1366 238.952 53.1367 238.952 53.5031C238.952 52.7702 238.952 52.4037 238.586 52.4037C238.586 52.4037 238.22 52.4038 238.22 52.7702C237.854 52.7702 237.854 53.1367 237.854 53.5031C237.854 53.5031 237.854 53.5031 237.488 53.5031L237.122 53.8696C237.122 53.1367 236.756 52.7702 236.756 52.7702C236.756 52.4038 236.39 52.4037 236.39 52.4037C236.024 52.4037 236.024 53.1367 236.024 53.8696C236.024 53.5031 235.658 53.5031 235.658 53.5031C235.658 53.5031 235.292 53.5031 235.292 53.8696C234.926 53.1367 234.926 52.7702 234.56 52.7702C234.56 52.7702 234.194 53.1367 234.194 53.5031C234.194 53.1367 233.828 53.1366 233.828 53.1366L233.462 53.5031C233.462 52.7702 233.096 52.0373 232.73 52.0373L232.364 52.4037C231.998 52.4037 231.632 52.0373 231.632 52.4037C231.632 52.0373 231.632 52.0373 231.632 52.0373V51.6708H231.266C231.266 50.5714 230.9 49.8385 230.9 49.8385C230.9 49.8385 230.534 50.205 230.534 50.9379C230.9 50.205 230.168 50.5714 229.802 51.3043C229.802 51.3043 229.802 50.9379 229.436 50.9379C229.436 50.5715 229.436 50.205 229.436 49.8385C229.436 48.3727 229.07 46.9068 229.07 46.9068C229.07 46.9068 228.704 46.9069 228.704 47.2733C228.338 47.2733 227.972 48.7392 227.972 50.9379C227.972 51.6708 227.972 52.0373 227.972 52.7702C227.972 52.4038 227.606 51.6708 227.606 50.9379C226.874 50.5715 226.508 50.9379 226.508 51.3043C226.508 51.3043 226.508 51.3044 226.142 51.6708L225.776 51.3043C225.776 51.6708 225.776 51.6708 225.776 52.0373V52.4037C225.776 52.4037 225.776 52.4037 225.41 52.4037C225.41 52.0373 225.41 51.6708 225.044 51.6708C225.044 51.6708 224.678 52.0373 224.678 52.4037C224.678 52.4037 224.678 52.4037 224.312 52.4037C224.312 52.0373 223.946 51.6708 223.946 51.6708C223.946 51.6708 223.58 52.0373 223.58 52.7702L223.214 52.4037C223.214 52.4037 223.214 52.4038 222.848 52.7702C222.848 52.0373 222.482 51.6708 222.116 51.6708C221.75 51.6708 221.75 52.0373 221.75 52.7702V52.4037C221.75 50.5714 221.384 49.472 221.384 49.472C221.018 49.472 221.018 50.9379 220.652 52.7702C220.286 52.7702 220.652 52.7702 220.652 53.1366C220.286 52.4037 220.286 52.0373 219.92 52.0373C219.92 52.0373 219.92 52.0373 219.554 52.4037L219.188 52.7702C219.188 52.7702 219.188 52.7702 218.822 52.7702C218.09 52.0373 218.09 52.7702 218.09 53.5031C218.09 53.8696 218.09 53.8696 218.09 53.8696C218.09 53.5031 217.724 53.1366 217.358 53.1366H216.992H216.626V52.7702C216.992 51.3044 216.626 51.3044 216.26 52.0373C216.26 51.3044 216.26 50.9379 215.894 50.9379C215.894 50.9379 215.894 51.3044 215.528 51.6708C215.528 51.3044 215.162 51.3043 215.162 51.3043C215.162 51.3043 215.162 51.3044 214.796 51.6708C214.796 51.3044 214.796 51.3043 214.43 51.3043C214.43 49.8385 214.43 48.7391 214.064 48.7391C213.698 48.7391 213.332 49.8385 213.332 50.9379C213.332 51.3044 213.332 51.6708 213.332 52.0373C213.332 52.0373 212.966 52.0373 212.966 52.4037C212.966 51.6708 212.6 51.3043 212.234 51.3043L211.868 51.6708C211.868 51.3044 211.502 51.3043 211.502 51.3043C211.502 51.3043 211.502 51.3044 211.136 51.6708C211.136 51.3044 210.77 51.3043 210.77 51.3043L210.404 51.6708C210.404 51.3044 210.038 51.3043 210.038 51.3043C210.038 51.3043 209.672 51.3044 209.672 51.6708C209.672 51.3044 209.306 50.9379 209.306 50.9379C209.306 49.8385 209.306 49.1056 208.94 48.7391C208.574 48.7391 208.574 49.4721 208.208 50.5714C208.208 50.5714 208.208 50.5715 208.208 50.9379C208.208 50.9379 207.842 50.9379 207.842 50.5714C207.842 50.205 207.476 50.205 207.476 50.205C207.476 50.205 207.11 50.205 207.11 50.5714C207.11 49.8385 206.744 49.472 206.378 49.472C206.012 49.472 206.012 49.8386 206.012 50.205H205.646C205.646 49.4721 205.28 49.1056 205.28 49.1056C204.914 49.1056 204.914 49.1056 204.548 49.8385C204.182 49.8385 204.182 49.8385 204.182 49.472C204.182 49.472 204.182 49.1056 203.816 49.1056L203.45 48.7391C203.45 48.7391 203.084 48.7392 203.084 49.1056C203.084 48.3727 202.718 47.6397 202.352 47.6397C202.352 47.6397 201.986 48.0063 201.986 48.3727C201.62 48.3727 201.254 49.1056 201.254 50.205C201.254 49.8386 201.254 49.472 200.888 49.472C200.522 49.472 200.156 50.205 200.156 50.9379H199.79V50.5714C199.79 49.4721 199.79 48.3727 199.424 48.3727C199.424 48.3727 199.424 48.3727 199.058 48.3727C199.058 48.3727 199.058 48.0062 198.692 48.0062C198.326 48.0062 197.96 48.7392 197.96 49.8385C197.96 50.205 197.96 50.205 197.96 50.205C197.594 50.205 197.594 50.205 197.228 50.205V49.8385C197.594 48.7392 197.594 48.0062 197.228 48.0062H196.862C196.862 48.0062 196.862 47.6398 196.496 48.0062C196.13 48.0062 196.13 48.3727 196.13 49.1056L195.764 48.7391C195.764 48.0062 195.398 47.2733 195.398 47.2733C195.398 47.2733 195.032 47.6398 195.032 48.0062C194.666 48.3727 194.666 49.1056 194.666 49.8385C194.666 49.8385 194.666 49.8386 194.666 50.205V49.8385C194.666 48.7392 194.666 48.0062 194.3 48.0062C194.3 48.0062 193.934 48.0063 193.934 48.3727C193.934 48.0063 193.934 47.6398 193.568 47.2733C193.568 47.2733 193.202 47.6398 193.202 48.0062C193.202 48.0062 192.836 48.0063 192.836 48.3727C192.836 48.0063 192.836 47.6397 192.47 47.6397C192.47 47.6397 192.104 47.6398 192.104 48.0062C191.738 48.0062 191.738 48.7391 191.372 49.472C191.372 48.3727 191.372 47.2733 191.006 47.2733C190.64 47.2733 190.64 48.0062 190.274 49.472C190.274 48.7391 189.908 48.0062 189.908 48.0062C189.908 48.0062 189.542 48.0063 189.542 48.3727C189.542 48.0063 189.542 47.6397 189.176 47.6397C188.81 47.6397 188.81 48.0062 188.444 49.1056H188.078C188.078 49.1056 188.078 49.1056 187.712 49.1056C187.712 48.7392 187.712 48.3727 187.346 48.3727C187.346 48.3727 186.98 48.3727 186.98 48.7391C186.98 48.3727 186.98 48.0063 186.614 48.3727C186.248 48.3727 186.248 48.7391 185.882 49.472C185.882 49.472 185.882 49.4721 185.516 49.8385C185.516 48.7392 185.516 48.0062 185.15 48.0062C185.15 47.6398 185.15 47.6397 184.784 47.6397C184.784 47.6397 184.418 47.6398 184.418 48.0062C184.418 47.6398 184.052 46.9068 184.052 46.9068C183.686 46.9068 183.686 47.2733 183.32 48.0062C183.32 47.6398 183.32 47.6397 182.954 47.6397C182.588 47.6397 182.588 48.0063 182.588 48.3727C182.588 48.0063 182.588 47.6397 182.222 47.6397C181.856 47.6397 181.49 48.0062 181.49 48.7391C181.49 48.7391 181.124 48.7392 181.124 49.1056C181.124 49.1056 181.124 48.7391 180.758 48.7391H180.392C180.392 48.7391 180.026 48.7392 180.026 49.1056L179.66 48.7391H179.294C179.294 48.7391 179.294 48.7391 178.928 48.7391C178.928 48.7391 178.928 48.3727 178.562 48.3727H178.196L177.83 48.0062C177.83 48.0062 177.464 48.0063 177.464 48.3727C177.464 48.3727 177.464 48.3727 177.098 48.3727C177.098 48.0063 176.732 47.6397 176.732 47.6397C176.732 47.6397 176.366 47.6398 176.366 48.0062C176.366 48.0062 176 48.0062 176 47.6397C176 47.6397 175.634 47.6398 175.634 48.0062C174.902 47.6398 174.17 47.6398 173.438 47.2733C171.608 46.9069 169.778 46.9068 167.948 46.9068L167.582 46.5404C167.582 46.5404 167.216 46.5404 167.216 46.9068C167.216 46.9068 167.216 46.9068 166.85 46.9068C166.484 46.9068 166.118 46.5404 166.118 46.5404C166.118 46.174 166.118 45.8074 165.752 45.8074C165.386 45.8074 165.386 46.174 165.02 46.5404H164.654C164.654 46.5404 164.654 46.1739 164.288 46.1739H163.922C163.922 46.1739 163.922 46.1739 163.922 45.8074C163.922 45.441 163.922 44.7081 163.556 44.7081C163.19 44.7081 163.19 45.0746 162.824 45.441C162.824 45.0746 162.824 44.3416 162.458 44.3416C162.092 44.3416 162.092 44.7081 161.726 45.0745C161.726 45.0745 161.726 45.0745 161.36 45.0745H160.994C160.994 44.7081 160.628 44.7081 160.628 44.7081C160.628 44.7081 160.262 44.7081 160.262 45.0745C160.262 44.7081 159.896 44.3416 159.896 44.3416L159.53 44.7081L159.164 44.3416C159.164 43.9752 158.798 43.9752 158.798 43.9752C158.432 43.9752 158.432 44.3417 158.432 44.7081L158.066 45.0745C156.968 44.3416 155.504 44.3416 154.406 45.0745C154.406 45.0745 154.04 45.0746 154.04 45.441C153.674 45.8075 153.308 46.174 153.308 46.5404H152.942C152.942 46.5404 152.576 46.5404 152.576 46.9068C152.576 46.5404 152.576 46.1739 152.21 46.1739C151.844 46.1739 151.844 46.5404 151.478 47.6397C151.478 47.2733 151.112 47.2733 151.112 47.2733C151.112 46.9069 150.746 46.5404 150.746 46.5404C150.38 46.5404 150.38 46.9068 150.014 47.6397C150.014 47.6397 150.014 47.6397 149.648 47.6397C149.648 47.6397 149.648 47.6397 149.282 47.6397C149.282 47.2733 149.282 46.9068 148.916 46.9068C148.916 46.9068 148.55 46.9069 148.55 47.2733C148.55 47.2733 148.184 47.2733 148.184 47.6397C148.184 47.2733 147.818 47.2733 147.818 47.2733C147.452 47.2733 147.452 48.0063 147.452 48.3727V48.0062C147.452 48.0062 147.452 48.0062 147.086 48.0062C147.086 47.6398 147.086 47.6398 146.72 47.2733C146.72 47.2733 146.354 47.2733 146.354 47.6397C146.354 47.2733 145.988 46.9069 145.988 47.2733C145.622 47.2733 145.622 48.0063 145.622 48.3727C145.622 48.0063 145.622 47.6397 145.622 47.6397C145.622 47.6397 145.256 47.6398 144.89 48.0062C144.89 47.2733 144.524 46.9068 144.524 46.9068C144.524 46.9068 144.158 46.9069 144.158 47.2733C143.792 47.2733 143.792 47.6398 143.426 48.7391C143.426 48.7391 143.426 48.7391 143.06 48.7391C143.426 47.6398 143.426 46.9068 143.06 46.9068C143.06 46.9068 142.694 46.9069 142.694 47.2733C142.694 47.2733 142.694 46.9068 142.328 46.9068C141.962 46.9068 141.962 47.2733 141.962 47.6397C141.596 46.9068 141.23 46.174 140.864 46.5404V46.9068C140.864 46.5404 140.864 46.1739 140.498 46.1739C140.498 46.1739 140.132 46.5404 139.766 47.2733C139.766 47.2733 139.766 46.9069 139.766 46.5404C139.766 46.174 139.766 45.441 139.4 45.441L139.034 45.0745C138.668 44.7081 138.668 44.7081 138.302 44.7081C138.302 44.7081 138.302 45.0746 138.302 45.441C138.302 45.0746 138.302 45.0745 137.936 45.0745V44.7081C137.936 43.9752 137.57 43.2422 137.204 43.2422C137.204 43.2422 137.204 43.2423 136.838 43.6087C136.838 43.2423 136.472 42.8758 136.472 42.8758C136.472 42.8758 136.106 42.8758 136.106 43.2422C136.106 42.8758 135.74 42.5093 135.74 42.5093C135.374 42.5093 135.374 42.8758 135.374 43.6087C135.374 43.2423 135.374 43.2422 135.374 43.2422C135.374 42.1429 135.374 41.4099 135.008 41.4099C134.642 41.4099 134.642 42.1429 134.276 43.2422C134.276 42.8758 133.91 42.5093 133.91 42.5093C133.544 42.5093 133.544 43.6087 133.544 44.7081C133.544 44.7081 133.544 44.7081 133.178 44.7081C132.446 44.7081 131.714 44.7081 131.348 45.0745C131.348 45.0745 131.348 45.0745 130.982 45.0745C130.982 45.0745 130.616 45.0746 130.616 45.441C130.616 45.0746 130.25 45.0745 130.25 45.0745C129.884 45.0745 129.884 45.441 129.518 46.1739C129.518 45.8075 129.152 45.441 129.152 45.441C128.786 45.441 128.786 45.8075 128.786 46.1739C128.786 45.441 128.42 45.0745 128.42 45.0745C128.42 44.7081 128.42 44.7081 128.054 44.7081C128.054 44.7081 127.688 44.7081 127.688 45.0745C127.688 45.0745 127.688 44.7081 127.322 44.7081C127.322 44.7081 126.956 44.7081 126.956 45.0745C126.956 44.7081 126.59 44.3416 126.59 44.3416C126.59 44.3416 126.59 44.3417 126.224 44.7081C126.224 44.3417 125.858 44.3416 125.858 44.3416C125.858 43.6087 125.858 43.2422 125.858 43.2422C125.858 43.2422 125.492 43.2423 125.492 43.6087C125.492 43.2423 125.492 42.8758 125.492 42.8758C125.126 42.8758 124.76 43.6087 124.394 44.7081C124.394 44.7081 124.394 44.7081 124.028 44.7081C124.028 44.7081 123.662 44.7081 123.662 45.0745C123.662 44.7081 123.296 44.7081 123.296 44.7081C123.296 43.9752 122.93 43.6087 122.564 43.6087C122.198 43.2423 122.198 43.2423 122.198 43.6087C122.198 43.9752 122.198 43.9752 121.832 44.3416L121.466 43.9752C121.466 43.6087 121.466 43.2422 121.1 43.2422C121.1 42.5093 121.1 42.1429 120.734 42.1429C120.734 42.1429 120.368 42.1429 120.368 42.5093C120.368 42.1429 120.002 41.7764 120.002 41.7764C120.002 41.7764 119.636 41.7764 119.636 42.1429C119.636 42.1429 119.636 42.1429 119.27 42.1429C119.27 42.1429 118.904 42.1429 118.904 42.5093C118.904 42.1429 118.538 42.1429 118.538 42.1429V41.7764C118.538 41.41 118.172 41.0435 118.172 41.0435C118.172 41.0435 117.806 41.0435 117.806 41.4099L117.44 41.0435C117.44 41.0435 117.44 41.0435 117.44 40.677V40.3106C117.44 39.5776 117.074 39.2112 116.708 39.2112C116.342 39.2112 116.342 39.5777 116.342 39.9441C116.342 39.2112 116.342 38.8447 115.976 38.8447C115.976 38.8447 115.976 38.8447 115.61 38.8447C115.61 37.7454 115.61 37.0124 115.244 37.0124C114.878 37.0124 114.878 37.7454 114.512 38.8447C114.512 38.4783 114.512 38.4783 114.146 38.4783C114.146 37.3789 114.146 36.646 113.78 36.646C113.414 36.646 113.048 37.7454 113.048 39.2112C113.048 38.8448 112.682 38.4783 112.682 38.4783C112.682 38.4783 112.316 38.4783 112.316 38.8447C112.316 38.8447 112.316 38.8447 111.95 38.8447C111.95 38.8447 111.584 38.8448 111.584 39.2112C111.584 38.4783 111.584 38.1118 111.218 38.1118C111.218 38.1118 110.852 38.1118 110.852 38.4783C110.852 38.1118 110.486 37.7453 110.12 37.7453C110.12 37.7453 109.754 38.1118 109.754 38.4783C109.754 38.1118 109.388 38.1118 109.388 38.1118C109.388 37.7454 109.022 37.3789 109.022 37.3789C109.022 37.3789 109.022 37.3789 108.656 37.3789C108.656 37.3789 108.656 37.3789 108.29 37.3789C108.29 37.3789 107.924 37.3789 107.924 37.7453C107.924 37.3789 107.924 37.0124 107.558 37.0124C107.192 37.0124 106.826 37.7454 106.826 38.1118C106.826 37.7454 106.46 37.0124 106.46 37.0124C106.46 36.646 106.094 36.2795 106.094 36.2795C106.094 36.2795 105.728 36.2795 105.728 36.646C105.362 36.646 104.996 37.0124 104.996 37.7453C104.996 37.3789 104.63 36.646 104.264 36.646L103.898 37.0124C103.898 36.646 103.532 36.2795 103.532 36.646C103.166 36.646 102.8 37.0125 102.8 37.3789C102.8 37.3789 102.8 37.3789 102.434 37.3789H102.068C102.068 37.3789 102.068 37.3789 102.068 37.0124C102.068 36.646 100.97 37.0125 99.506 37.3789C99.14 37.3789 99.14 37.3789 98.774 37.7453C98.774 37.3789 98.408 37.0124 98.408 37.0124C98.042 37.0124 98.042 37.3789 98.042 37.7453C97.676 37.7453 97.31 38.1118 97.31 38.4783C97.31 38.4783 97.31 38.4783 96.944 38.4783C97.31 37.7453 97.676 37.0124 97.31 37.0124C97.31 37.0124 96.944 37.0125 96.578 37.3789C96.212 37.3789 96.212 37.7454 95.846 38.1118L95.48 38.4783C95.48 37.7453 95.48 37.3789 95.114 37.3789C95.114 37.3789 94.748 37.7454 94.382 38.1118C94.016 38.1118 94.016 38.4783 93.65 39.2112C93.65 38.8448 93.65 38.4783 93.284 38.4783C93.284 37.7453 93.284 37.3789 92.918 37.3789C92.552 37.3789 92.186 38.4783 92.186 39.9441C92.186 39.2112 92.186 38.8447 91.82 38.8447C91.454 38.8447 91.088 39.9441 91.088 41.0435C91.088 40.6771 91.088 40.3106 91.088 40.3106C90.722 40.3106 90.356 41.0435 89.99 41.7764L89.624 42.1429C88.892 42.8758 88.526 43.6087 88.526 44.3416C88.526 44.7081 88.16 45.0746 88.16 45.441C88.16 45.0746 88.16 44.7081 87.794 44.7081C87.428 44.7081 87.062 45.441 87.062 46.5404C87.062 45.8075 87.062 45.0745 86.696 45.0745C86.33 45.0745 86.33 45.441 85.964 46.1739L85.598 46.5404C85.598 46.5404 85.232 46.5404 85.232 46.9068C85.232 46.9068 85.232 46.5404 84.866 46.5404C84.866 46.5404 84.866 46.1739 84.5 46.1739C84.5 46.1739 84.134 46.174 84.134 46.5404C84.134 46.5404 84.134 46.5404 83.768 46.5404C83.768 46.174 83.768 46.1739 83.768 46.1739C83.402 46.1739 83.402 46.1739 83.036 46.9068C83.036 46.5404 83.036 46.1739 82.67 46.1739C82.67 46.1739 82.304 46.174 82.304 46.5404C82.304 46.5404 82.304 46.5404 81.938 46.5404C81.572 46.5404 81.206 47.2733 81.206 48.3727V48.0062C81.206 47.6398 80.84 47.2733 80.84 47.2733C80.84 46.5404 80.84 46.1739 80.84 46.1739C80.84 46.1739 80.474 46.5404 80.108 47.2733C80.108 47.2733 80.108 47.2733 79.742 47.2733C79.376 47.2733 79.376 47.6398 79.01 48.3727C79.01 48.0063 79.01 48.0062 78.644 48.0062H78.278H77.912C77.912 47.2733 77.912 46.9068 77.546 46.9068C77.18 46.9068 76.814 47.6398 76.814 48.3727C76.814 48.3727 76.814 48.7392 76.448 49.1056C76.448 49.1056 76.448 48.7391 76.082 48.7391C76.082 48.3727 75.716 48.3727 75.716 48.7391C75.716 48.3727 75.716 48.3727 75.35 48.0062C74.984 48.0062 74.618 48.3727 74.618 48.7391C74.618 48.7391 74.618 48.3727 74.252 48.3727C74.252 48.3727 74.252 48.3727 73.886 48.3727C73.886 48.0063 73.52 47.6397 73.52 47.6397C73.52 47.6397 73.154 48.0063 73.154 48.3727C73.154 48.0063 72.788 48.0062 72.788 47.6397C72.788 47.6397 72.422 47.6398 72.422 48.0062L72.056 47.6397L71.69 48.0062C70.958 47.6398 70.226 46.9069 69.128 46.5404C69.128 46.5404 69.128 46.5404 68.762 46.5404C68.396 46.5404 68.03 46.5404 67.664 46.1739C67.664 45.441 67.664 45.8075 67.298 46.1739C66.932 46.1739 66.932 46.1739 66.566 46.1739C66.566 45.8075 66.566 45.8075 66.2 46.1739C66.2 46.1739 66.2 46.1739 65.834 46.1739C65.468 45.8075 66.932 45.8075 64.736 45.441V45.8074C64.004 45.8074 63.272 45.8074 62.54 45.8074C61.808 45.8074 61.076 45.8075 60.71 46.1739H60.344C60.344 45.8075 60.344 45.8075 59.978 46.1739C59.978 45.8075 59.978 45.8075 59.978 45.441C59.978 45.441 59.978 45.0746 59.978 44.7081C58.514 44.3417 58.88 44.7081 58.88 45.0745H58.514C58.514 44.7081 58.514 43.9752 58.514 43.9752C58.514 43.9752 58.148 43.9752 57.782 44.7081C57.782 44.3417 57.782 43.9752 57.416 43.9752C57.05 43.9752 57.05 44.3417 57.05 44.7081C57.05 44.7081 56.684 44.7081 56.684 45.0745C56.684 45.0745 56.318 45.0746 56.318 44.7081C56.318 44.3417 56.318 44.3416 56.318 43.9752C56.318 43.6087 56.318 43.6087 55.952 43.6087C55.952 43.6087 55.586 43.9752 55.586 44.3416C55.22 44.3416 54.854 44.3416 54.854 43.9752C54.854 43.2422 54.854 42.8758 54.488 42.8758C54.488 42.8758 54.122 42.8758 54.122 43.2422C54.122 42.8758 54.122 42.5093 53.756 42.5093C53.39 42.5093 53.39 42.8758 53.024 43.6087C53.024 43.6087 53.024 43.6087 52.658 43.6087C52.658 42.8758 52.658 42.1429 52.292 42.1429C52.292 42.1429 51.926 42.1429 51.56 42.8758C51.56 43.2423 51.194 43.2423 51.194 43.6087C51.194 43.6087 51.194 43.6087 50.828 43.6087C50.828 42.8758 50.828 42.5093 50.462 42.5093H50.096C50.096 42.1429 49.73 42.1429 49.73 42.1429C49.73 42.1429 49.364 42.1429 49.364 42.5093L48.998 42.1429C48.998 42.1429 48.632 42.5094 48.632 42.8758C48.632 42.5094 48.266 42.1429 48.266 42.1429C48.266 42.1429 48.266 42.1429 47.9 42.1429C47.9 42.1429 47.9 41.7764 47.534 41.7764C47.168 41.7764 46.802 42.5093 46.802 43.2422C46.802 42.8758 46.802 42.5093 46.802 42.5093C46.802 41.7764 46.802 41.0435 46.436 41.0435L46.07 41.4099C46.07 40.677 46.07 40.3106 45.704 40.3106C45.704 40.3106 45.704 39.9441 45.338 39.9441C44.972 39.9441 44.606 41.0435 44.606 42.1429C44.606 42.5093 44.606 42.5094 44.606 42.8758C44.606 42.5094 44.606 42.5093 44.24 42.5093C44.24 42.5093 43.874 42.5093 43.874 43.2422C43.874 42.8758 43.874 42.5093 43.508 42.5093C43.142 42.5093 42.776 43.2423 42.776 44.3416V44.7081C42.41 44.7081 42.41 45.0745 42.044 45.8074C42.41 44.3416 42.044 42.8758 42.044 42.8758C41.678 42.8758 41.678 43.6087 41.312 44.3416C41.312 44.3416 41.312 44.3416 40.946 44.3416C40.946 44.3416 40.946 43.9752 40.58 43.9752C40.58 43.9752 40.214 43.9752 40.214 44.3416C40.214 43.9752 40.214 43.6087 39.848 43.6087C39.848 43.6087 39.848 43.6087 39.482 43.6087C39.482 43.2423 39.482 42.8758 39.116 42.8758C38.75 42.8758 38.75 43.2423 38.384 44.3416C38.384 43.9752 38.384 43.9752 38.018 43.9752C37.652 43.9752 37.286 44.7081 37.286 45.8074C36.92 45.8074 36.92 46.5404 36.92 46.9068C36.92 46.5404 36.92 46.5404 36.554 46.5404C36.554 46.5404 36.188 46.5404 36.188 46.9068C35.09 46.9068 33.992 46.9068 32.894 46.9068C32.894 46.1739 32.528 45.8074 32.528 45.8074C32.162 45.8074 32.162 46.1739 31.796 46.9068C31.43 46.9068 31.064 46.9068 30.698 46.9068C30.698 46.1739 30.332 45.441 30.332 45.441V45.0745C30.332 44.7081 30.332 44.3417 29.966 44.7081C29.966 44.7081 29.966 44.7081 29.6 44.7081H29.234C28.868 43.9752 28.868 44.3416 28.868 45.0745C28.868 45.0745 28.502 45.0745 28.136 45.0745C27.77 45.0745 28.868 44.7081 27.404 44.7081H27.038C26.672 44.3417 27.404 43.6087 26.672 43.2422C26.672 43.2422 26.672 43.2422 26.306 43.2422H25.94C25.94 43.2422 25.94 43.2423 25.94 43.6087C25.574 43.6087 25.574 43.9752 25.94 43.9752C25.94 43.6087 25.574 43.6087 25.574 43.6087C25.208 43.6087 25.208 44.3416 25.208 45.441C25.208 45.441 25.208 45.441 24.842 45.441V45.0745C24.842 43.9752 24.842 43.2422 24.476 43.2422C24.11 43.2422 24.11 43.6087 24.11 43.9752C24.11 42.8758 24.11 42.1429 23.744 41.7764C23.378 41.7764 23.012 42.5093 23.012 43.6087C23.012 43.2423 23.012 43.2422 22.646 43.2422C22.646 43.2422 22.646 43.2422 22.28 43.2422C22.28 42.5093 21.914 41.7764 21.914 41.7764C21.548 41.7764 21.548 42.5093 21.182 43.2422C21.182 42.8758 20.816 42.5093 20.816 42.5093C20.816 42.5093 20.816 42.5093 20.45 42.5093C20.45 41.7764 20.45 41.4099 20.084 41.4099C19.718 41.4099 19.718 41.7764 19.352 42.5093C19.352 42.1429 18.986 41.7764 18.986 41.4099C18.986 41.4099 18.62 41.41 18.62 41.7764C18.62 41.0435 18.254 40.3106 18.254 40.3106C18.254 40.3106 17.888 40.6771 17.888 41.0435C17.522 41.0435 17.522 41.41 17.522 41.7764C17.522 41.0435 17.522 40.677 17.156 40.677C17.156 39.9441 16.79 39.5776 16.79 39.5776L16.424 39.9441C16.424 39.9441 16.424 39.5776 16.058 39.5776C16.058 39.5776 16.058 39.5776 15.692 39.5776C15.692 38.8447 15.326 38.1118 15.326 38.1118C14.96 38.1118 14.594 39.2112 14.594 40.677V41.0435H14.228C14.228 41.0435 14.228 41.0435 13.862 41.0435V40.677C14.228 40.3106 14.228 39.9441 13.862 39.9441C13.862 39.9441 14.228 39.5776 13.496 39.5776C13.496 39.2112 13.496 39.2112 13.13 39.2112C13.13 38.8448 13.13 38.4783 12.764 38.4783C12.764 37.7453 12.764 37.0124 12.764 37.0124C12.398 37.0124 12.398 37.3789 12.032 38.1118H11.666C11.666 37.0125 11.666 36.2795 11.3 36.2795C10.934 36.2795 10.934 36.646 10.568 37.7453C10.568 37.3789 10.568 37.0124 10.202 37.0124C9.836 37.0124 9.836 37.3789 9.47 37.7453C9.47 37.3789 9.47 37.0124 9.104 37.0124C9.104 36.646 9.104 36.646 8.738 36.646C8.738 36.646 8.372 36.646 8.372 37.0124C8.372 36.646 8.372 36.646 8.006 36.646C8.006 36.646 7.64 37.0125 7.274 37.3789C7.274 37.3789 7.274 37.0124 6.908 37.0124C6.908 37.0124 6.542 37.0125 6.542 37.3789C6.176 37.3789 5.81 37.3789 5.444 37.3789H5.078C5.078 37.0125 4.712 36.646 4.712 36.646C4.712 36.646 4.712 36.646 4.346 36.646C4.346 36.646 4.346 36.646 3.98 36.646C3.98 36.646 3.614 36.646 3.614 37.0124C3.614 36.646 3.248 36.2795 3.248 36.2795C3.248 36.2795 2.882 36.2795 2.882 36.646C2.882 36.646 2.882 36.646 2.516 36.646C2.516 36.646 2.516 36.646 2.516 37.0124C2.516 37.3789 2.15 37.7454 2.15 38.1118H1.784C2.15 37.0125 2.15 36.2795 1.784 35.9131C1.784 35.9131 1.784 35.9131 1.418 35.9131C1.418 35.5466 1.418 35.1801 1.418 35.1801C1.052 35.1801 0.686 35.9131 0.32 37.0124H-0.046C0.32 35.9131 0.32 34.8137 -0.412 35.1801C-0.778 35.1801 -0.778 35.1802 -0.778 35.5466C-0.778 35.1802 -0.778 34.8137 -0.778 34.8137C-0.778 34.8137 -0.778 34.8137 -1.144 34.8137H-1.51C-1.876 34.4472 -1.876 34.4472 -1.876 34.8137C-1.876 34.8137 -1.876 34.8137 -1.876 34.4472C-1.876 33.7143 -2.242 33.3478 -2.608 33.3478C-2.608 33.3478 -2.608 33.3479 -2.974 33.7143C-2.974 32.9814 -3.34 32.6149 -3.34 32.6149C-3.34 32.6149 -3.706 32.9814 -3.706 33.3478C-3.706 33.3478 -3.706 33.3479 -4.072 33.7143C-4.072 32.9814 -4.072 32.6149 -4.438 32.6149C-4.438 32.6149 -4.804 32.6149 -4.804 32.9814C-4.804 32.6149 -5.17 32.6149 -5.17 32.6149C-5.17 31.882 -5.536 31.1491 -5.902 31.1491C-5.902 31.1491 -6.268 31.5156 -6.268 31.882C-6.268 31.5156 -6.634 31.1491 -6.634 31.1491C-7 31.1491 -7 31.5155 -7 32.2485C-7 32.2485 -7 32.2485 -7 32.6149V708H1457V6.22986C1456.27 6.22986 1455.9 6.22984 1455.54 5.86338Z" fill="#79A5BE"/>
</svg>
