<svg width="1355" height="491" viewBox="0 0 1355 491" fill="none" xmlns="http://www.w3.org/2000/svg">
<path d="M1387.81 66.3848C1384.12 64.172 1380.06 62.328 1376.74 59.7463C1373.79 58.2711 1376.74 57.1647 1368.99 55.3207L1363.46 58.6399C1355.71 62.328 1346.48 58.6399 1339.1 52.739C1331.35 47.207 1324.34 39.4621 1314.38 34.2988C1309.58 31.7172 1302.94 30.242 1297.04 32.4548C1294.82 32.8236 1293.34 34.2988 1291.5 35.4052C1290.76 33.93 1289.29 32.4548 1289.66 31.7172C1287.44 26.5539 1284.49 21.7595 1282.28 16.5962C1281.17 14.0146 1280.06 11.4329 1279.32 8.85129L1278.22 4.79444L1277.85 3.68805C1275.63 3.31924 1283.01 4.05683 1272.68 2.95042V3.31922L1272.31 3.68805L1271.21 5.53207C1268.62 10.3265 1264.56 14.7522 1261.61 20.2843C1260.5 21.7595 1260.14 23.2347 1259.4 24.7099L1259.03 24.3411C1255.71 19.1778 1252.39 14.0146 1248.7 8.85129L1243.53 1.4752L1242.79 0.368799L1242.42 0C1232.09 0 1239.47 0.368799 1236.89 0.368799L1235.78 2.21282C1235.04 3.31924 1234.31 4.42566 1233.2 5.53207C1225.45 14.7522 1214.38 21.3906 1206.26 32.8236C1198.51 44.6253 1197.04 58.6399 1191.87 70.0729C1187.07 81.5058 1176 90.3571 1166.04 98.8396C1155.34 106.953 1143.53 115.067 1130.62 118.386C1127.66 119.124 1124.34 119.493 1122.13 118.755C1111.06 122.074 1116.22 125.394 1112.17 128.713C1108.84 135.351 1106.26 142.359 1103.68 148.997L1100.36 158.955L1097.78 157.48C1091.5 153.792 1084.86 150.472 1078.96 146.415C1066.41 138.671 1054.23 129.819 1042.43 120.23C1018.81 101.421 996.669 79.293 978.957 53.4767L978.219 52.3702L977.85 52.0014C982.647 52.7391 971.208 50.895 972.315 51.2638L971.577 51.6326L969.363 53.8455L964.935 57.9023L956.448 66.3848C950.913 71.9169 945.009 77.8178 939.105 82.981C927.297 93.6764 914.382 102.159 898.515 105.109C890.766 106.953 882.279 108.429 874.161 111.379C870.102 112.485 866.043 114.698 862.353 116.542L858.294 119.124C857.187 117.28 856.449 115.805 856.08 114.698C856.818 114.698 856.449 114.698 856.08 114.698L855.711 112.485C857.187 112.854 842.796 108.429 848.7 110.273L848.331 110.641L847.962 111.379L847.224 112.854C845.01 116.542 842.796 120.23 840.951 123.918C837.261 131.663 834.309 139.777 831.726 147.891L829.881 154.16L829.512 155.267C826.191 154.529 823.239 153.792 820.287 152.316C812.907 149.366 806.265 145.309 800.361 139.777C780.435 136.458 768.627 135.72 754.236 126.131C750.915 124.287 747.594 122.074 744.642 119.493C743.166 118.386 742.059 116.911 740.583 115.805C733.572 111.379 735.417 114.329 732.465 113.223C725.085 112.854 718.443 108.797 711.801 104.74C708.48 102.528 705.528 99.9461 702.207 97.7332L701.469 97.3644C705.897 96.9956 695.196 97.3644 696.303 97.7332L695.934 98.102L694.827 99.2084L692.613 101.421L688.185 105.478C682.65 111.01 676.746 116.542 670.842 120.968C659.034 130.557 644.643 137.564 630.252 140.146C615.492 142.359 599.625 140.515 583.758 145.678C579.699 146.415 576.378 149.366 572.688 151.21L568.26 155.267C563.094 149.735 556.452 145.678 549.441 143.096C534.312 137.933 519.183 138.302 505.161 136.458C477.486 133.507 453.132 113.961 425.457 108.797C412.173 104.372 397.782 103.265 387.081 97.3644C376.38 92.5699 363.096 80.0306 348.336 86.3003C313.65 129.082 263.097 133.876 221.031 145.678C137.268 173.707 70.11 197.31 22.14 209.112C14.022 211.325 7.011 213.169 0 214.644V1012H1476V95.5204C1474.89 95.1516 1473.79 94.7828 1472.68 94.0452C1450.54 83.7187 1419.54 79.293 1387.81 66.3848Z" fill="#BBD0C9"/>
</svg>
