<svg width="19" height="19" viewBox="0 0 24 24" fill="none" xmlns="http://www.w3.org/2000/svg">
<g clip-path="url(#clip0)">
<path d="M6.763 10.036C6.763 10.332 6.795 10.571 6.851 10.746C6.915 10.922 6.995 11.114 7.107 11.322C7.147 11.385 7.163 11.449 7.163 11.505C7.163 11.585 7.115 11.665 7.011 11.745L6.508 12.08C6.44721 12.1238 6.37489 12.1489 6.3 12.152C6.22 12.152 6.14 12.112 6.061 12.04C5.95358 11.9245 5.85747 11.7989 5.774 11.665C5.68461 11.5116 5.60186 11.3545 5.526 11.194C4.904 11.928 4.121 12.295 3.179 12.295C2.509 12.295 1.974 12.104 1.583 11.721C1.192 11.337 0.993 10.827 0.993 10.188C0.993 9.51 1.232 8.958 1.719 8.544C2.206 8.129 2.852 7.921 3.674 7.921C3.946 7.921 4.225 7.945 4.52 7.985C4.816 8.025 5.12 8.089 5.438 8.161V7.578C5.438 6.971 5.311 6.548 5.063 6.301C4.808 6.053 4.377 5.934 3.763 5.934C3.483 5.934 3.195 5.965 2.9 6.037C2.605 6.109 2.317 6.197 2.038 6.309C1.94703 6.34973 1.8535 6.38447 1.758 6.413C1.71687 6.42625 1.67417 6.43399 1.631 6.436C1.519 6.436 1.463 6.356 1.463 6.189V5.798C1.463 5.67 1.479 5.574 1.519 5.518C1.57941 5.4454 1.65617 5.38816 1.743 5.351C2.022 5.207 2.357 5.087 2.748 4.991C3.15502 4.8868 3.57387 4.83604 3.994 4.84C4.944 4.84 5.638 5.056 6.085 5.487C6.524 5.917 6.747 6.572 6.747 7.45V10.036H6.763ZM3.523 11.25C3.786 11.25 4.057 11.202 4.345 11.106C4.632 11.01 4.888 10.835 5.103 10.596C5.231 10.444 5.327 10.276 5.375 10.084C5.422 9.893 5.455 9.661 5.455 9.39V9.055C5.21274 8.99594 4.96735 8.95054 4.72 8.919C4.47124 8.88739 4.22076 8.87136 3.97 8.871C3.435 8.871 3.044 8.975 2.78 9.191C2.517 9.406 2.39 9.709 2.39 10.108C2.39 10.483 2.485 10.763 2.685 10.954C2.876 11.154 3.155 11.25 3.523 11.25ZM9.933 12.112C9.789 12.112 9.693 12.088 9.629 12.032C9.565 11.984 9.509 11.872 9.461 11.721L7.586 5.55C7.54953 5.44653 7.52536 5.33912 7.514 5.23C7.514 5.102 7.578 5.03 7.705 5.03H8.488C8.639 5.03 8.743 5.055 8.798 5.11C8.863 5.158 8.911 5.27 8.958 5.422L10.3 10.706L11.545 5.422C11.585 5.262 11.633 5.158 11.696 5.11C11.7919 5.05116 11.9037 5.02323 12.016 5.03H12.654C12.806 5.03 12.91 5.055 12.974 5.11C13.037 5.158 13.094 5.27 13.125 5.422L14.386 10.77L15.767 5.422C15.815 5.262 15.871 5.158 15.927 5.11C16.0196 5.05119 16.1285 5.02319 16.238 5.03H16.981C17.108 5.03 17.181 5.095 17.181 5.23C17.181 5.27 17.172 5.31 17.164 5.358C17.1515 5.42623 17.1327 5.49318 17.108 5.558L15.185 11.728C15.137 11.888 15.081 11.991 15.017 12.039C14.9269 12.0968 14.8209 12.1248 14.714 12.119H14.027C13.876 12.119 13.772 12.095 13.707 12.039C13.644 11.983 13.588 11.879 13.557 11.719L12.319 6.571L11.089 11.711C11.049 11.871 11.002 11.975 10.939 12.031C10.874 12.087 10.762 12.111 10.619 12.111L9.933 12.112ZM20.189 12.327C19.774 12.327 19.359 12.279 18.96 12.184C18.561 12.088 18.25 11.984 18.042 11.864C17.914 11.793 17.827 11.713 17.795 11.641C17.7638 11.5704 17.7475 11.4942 17.747 11.417V11.01C17.747 10.843 17.811 10.763 17.93 10.763C17.978 10.763 18.026 10.771 18.074 10.787C18.122 10.803 18.194 10.835 18.274 10.867C18.545 10.987 18.84 11.082 19.152 11.146C19.471 11.21 19.782 11.242 20.102 11.242C20.604 11.242 20.996 11.154 21.267 10.978C21.3969 10.8995 21.5037 10.788 21.5766 10.6549C21.6495 10.5218 21.6859 10.3717 21.682 10.22C21.6849 10.1172 21.6674 10.0149 21.6305 9.91895C21.5936 9.82299 21.538 9.73532 21.467 9.661C21.323 9.51 21.051 9.374 20.66 9.246L19.503 8.886C18.92 8.703 18.489 8.432 18.226 8.073C17.9686 7.74168 17.828 7.33455 17.826 6.915C17.826 6.58 17.899 6.285 18.042 6.029C18.186 5.774 18.377 5.55 18.617 5.375C18.857 5.191 19.127 5.055 19.447 4.96C19.767 4.864 20.102 4.824 20.453 4.824C20.628 4.824 20.812 4.832 20.988 4.856C21.171 4.88 21.338 4.912 21.506 4.944C21.666 4.984 21.818 5.024 21.961 5.071C22.105 5.119 22.217 5.167 22.297 5.215C22.3912 5.26244 22.4733 5.33086 22.537 5.415C22.5885 5.49265 22.6135 5.58495 22.608 5.678V6.053C22.608 6.221 22.544 6.309 22.424 6.309C22.3178 6.29682 22.2149 6.26422 22.121 6.213C21.6388 5.99997 21.1161 5.89387 20.589 5.902C20.134 5.902 19.774 5.973 19.527 6.125C19.279 6.277 19.152 6.508 19.152 6.835C19.152 7.059 19.232 7.251 19.392 7.402C19.551 7.554 19.846 7.706 20.269 7.842L21.403 8.2C21.977 8.384 22.393 8.64 22.64 8.967C22.887 9.294 23.007 9.669 23.007 10.084C23.007 10.427 22.935 10.739 22.8 11.01C22.656 11.282 22.464 11.521 22.217 11.713C21.969 11.913 21.674 12.056 21.331 12.16C20.971 12.271 20.597 12.327 20.189 12.327ZM21.698 16.207C19.072 18.147 15.256 19.176 11.976 19.176C7.378 19.176 3.236 17.476 0.106 14.65C-0.141 14.427 0.082 14.123 0.378 14.299C3.762 16.262 7.937 17.452 12.255 17.452C15.169 17.452 18.369 16.845 21.315 15.6C21.754 15.4 22.129 15.887 21.698 16.207ZM22.792 14.961C22.456 14.531 20.572 14.754 19.718 14.858C19.463 14.89 19.423 14.666 19.655 14.498C21.155 13.445 23.622 13.748 23.909 14.099C24.196 14.459 23.829 16.925 22.424 18.106C22.209 18.29 22.001 18.194 22.097 17.955C22.417 17.165 23.127 15.385 22.792 14.961Z" fill="#6F6E6E"/>
</g>
<defs>
<clipPath id="clip0">
<rect width="24" height="24" fill="white"/>
</clipPath>
</defs>
</svg>
