<svg width="17" height="18" viewBox="0 0 17 18" fill="none" xmlns="http://www.w3.org/2000/svg">
<path d="M0 15.0561C0.0304583 15.4731 0.162917 15.8924 0.508583 16.455C0.919417 17.1229 1.62492 17.4895 2.13987 16.9011C2.48696 16.5038 6.24396 9.20979 8.05446 6.44515C8.10414 6.36611 8.17026 6.30156 8.24721 6.25699C8.32417 6.21242 8.40967 6.18914 8.49646 6.18914C8.58325 6.18914 8.66875 6.21242 8.7457 6.25699C8.82266 6.30156 8.88878 6.36611 8.93846 6.44515C10.749 9.20979 14.506 16.5038 14.853 16.9011C15.368 17.4895 16.0735 17.1229 16.4843 16.455C16.8881 15.798 17 15.3378 17 14.8453C17 14.5101 11.1492 2.41621 10.5598 1.40917C9.99317 0.441465 9.82033 0.230616 8.86196 0.195999H8.13096C7.17258 0.230616 6.99975 0.440678 6.43238 1.40917C5.85579 2.39496 0.23375 14.0129 0 14.8091V15.0561Z" fill="#6F6E6E"/>
</svg>
