<svg width="19" height="19" viewBox="0 0 17 17" fill="none" xmlns="http://www.w3.org/2000/svg">
<path d="M0 0H17V17H0V0ZM15.6074 12.9455C15.4835 12.1699 14.9784 11.5182 13.4803 10.9105C12.959 10.6661 12.3795 10.4961 12.2074 10.103C12.143 9.86921 12.133 9.74171 12.1748 9.60358C12.2811 9.146 12.823 9.00858 13.248 9.13608C13.5242 9.22108 13.7792 9.43358 13.9393 9.77358C14.6717 9.29475 14.6717 9.29475 15.1824 8.97671C14.9912 8.67921 14.8962 8.551 14.7673 8.42421C14.3211 7.92483 13.7268 7.66983 12.7599 7.69179L12.2605 7.75483C11.7817 7.87171 11.3255 8.12671 11.0493 8.46671C10.2418 9.38117 10.4748 10.9749 11.4523 11.6337C12.4192 12.3562 13.833 12.5148 14.0137 13.1955C14.1837 14.0243 13.3974 14.2899 12.6211 14.1943C12.0466 14.0668 11.7286 13.7792 11.378 13.248L10.0817 13.9924C10.2305 14.3324 10.4005 14.4805 10.6555 14.778C11.888 16.0218 14.9692 15.958 15.5224 14.0668C15.543 14.003 15.6924 13.5674 15.5748 12.898L15.6074 12.9455ZM9.24446 7.81362H7.65212C7.65212 9.18637 7.64575 10.5506 7.64575 11.9255C7.64575 12.7982 7.69037 13.5993 7.548 13.8458C7.31425 14.3338 6.71217 14.2715 6.43875 14.1858C6.15825 14.047 6.01587 13.8557 5.85083 13.5802C5.80621 13.5058 5.77292 13.4413 5.76088 13.4413L4.46817 14.2382C4.68421 14.6845 4.99942 15.0684 5.406 15.3127C6.01162 15.674 6.8255 15.7909 7.67762 15.5996C8.23225 15.4395 8.71037 15.1102 8.96042 14.6002C9.32167 13.9414 9.24517 13.1339 9.24162 12.2301C9.25012 10.7752 9.24162 9.31954 9.24162 7.85329L9.24446 7.81362Z" fill="#6F6E6E"/>
</svg>
