<svg width="19" height="19" viewBox="0 0 19 19" fill="none" xmlns="http://www.w3.org/2000/svg">
<g clip-path="url(#clip0)">
<path d="M11.3288 0.1425L12.0413 0.300833L12.6192 0.506667L13.0863 0.744167L13.4425 0.9975L13.7117 1.26667L13.9096 1.53583L14.0363 1.79708L14.1154 2.03458L14.1471 2.24042L14.1629 2.39875L14.155 2.50167V6.72917L14.1154 7.22792L14.0125 7.66333L13.8463 8.0275L13.6404 8.32833L13.4029 8.57375L13.1417 8.77167L12.8646 8.92208L12.5875 9.03292L12.3263 9.11208L12.0888 9.1675L11.8829 9.19917L11.7167 9.215H6.99042L6.44417 9.25458L5.97708 9.36542L5.58125 9.53958L5.25667 9.75333L4.99542 10.0067L4.78167 10.2838L4.62333 10.5688L4.50458 10.8617L4.42542 11.1388L4.37 11.3921L4.33833 11.6058L4.3225 11.7721V14.1946H2.55708L2.39083 14.1708L2.16917 14.1154L1.91583 14.0204L1.63875 13.8779L1.35375 13.6721L1.06875 13.3871L0.791667 13.0229L0.538333 12.5558L0.316667 11.9779L0.150417 11.2812L0.0395833 10.45L0 9.47625L0.0475 8.51042L0.174167 7.68708L0.364167 6.99833L0.6175 6.43625L0.9025 5.985L1.21917 5.63667L1.55167 5.37542L1.88417 5.18542L2.20083 5.05875L2.48583 4.97958L2.73917 4.94L2.92917 4.93208H3.05583L3.10333 4.94H9.56333V4.28292H4.94L4.93208 2.10583L4.91625 1.81292L4.95583 1.54375L5.04292 1.29833L5.1775 1.07667L5.37542 0.870833L5.62083 0.68875L5.92167 0.530417L6.27 0.387917L6.67375 0.269167L7.13292 0.174167L7.63958 0.095L8.20167 0.0475L8.81125 0.0158333L9.47625 0L10.4817 0.0395833L11.3288 0.1425ZM6.34125 1.71L6.15917 1.97125L6.09583 2.29583L6.15917 2.62042L6.34125 2.88958L6.6025 3.06375L6.92708 3.135L7.25167 3.06375L7.51292 2.88958L7.695 2.62042L7.75833 2.29583L7.695 1.97125L7.51292 1.71L7.25167 1.53583L6.92708 1.46458L6.6025 1.53583L6.34125 1.71ZM16.7042 4.83708L16.9258 4.88458L17.1792 4.97958L17.4562 5.12208L17.7413 5.33583L18.0263 5.61292L18.3033 5.985L18.5567 6.45208L18.7783 7.03L18.9446 7.72667L19.0554 8.55L19.095 9.52375L19.0475 10.4975L18.9208 11.3208L18.7308 12.0017L18.4775 12.5638L18.1925 13.015L17.8758 13.3713L17.5433 13.6325L17.2108 13.8225L16.8942 13.9492L16.6092 14.0204L16.3558 14.06L16.1658 14.0758L16.0392 14.0679H9.53167V14.7171H14.155L14.1629 16.9021L14.1788 17.1871L14.1392 17.4562L14.0521 17.7017L13.9175 17.9312L13.7196 18.1292L13.4742 18.3192L13.1733 18.4775L12.825 18.6121L12.4213 18.7308L11.9621 18.8338L11.4554 18.905L10.8933 18.9604L10.2838 18.9921L9.61875 19L8.61333 18.9683L7.76625 18.8575L7.05375 18.6992L6.47583 18.5013L6.00875 18.2638L5.6525 18.0025L5.38333 17.7333L5.18542 17.4642L5.05875 17.2029L4.97958 16.9654L4.94792 16.7675L4.93208 16.6092L4.94 16.5063V12.2788L4.97958 11.7721L5.0825 11.3446L5.24875 10.9804L5.45458 10.6796L5.69208 10.4263L5.95333 10.2363L6.23042 10.0779L6.5075 9.96708L6.76875 9.88792L7.00625 9.84042L7.21208 9.80875L7.37833 9.79292L7.48125 9.785H12.1046L12.6508 9.74542L13.1179 9.63458L13.5138 9.46833L13.8383 9.24667L14.0996 8.99333L14.3133 8.71625L14.4717 8.43125L14.5904 8.14625L14.6696 7.86917L14.725 7.61583L14.7567 7.39417L14.7725 7.22792V4.80542H16.4271L16.5379 4.81333L16.7042 4.83708ZM11.5821 16.1183L11.4 16.3796L11.3367 16.7042L11.4 17.0288L11.5821 17.29L11.8433 17.4721L12.1679 17.5354L12.4925 17.4721L12.7538 17.29L12.9358 17.0288L12.9992 16.7042L12.9358 16.3796L12.7538 16.1183L12.4925 15.9362L12.1679 15.8729L11.8433 15.9362L11.5821 16.1183Z" fill="#6F6E6E"/>
</g>
<defs>
<clipPath id="clip0">
<rect width="19" height="19" fill="white"/>
</clipPath>
</defs>
</svg>
