<svg width="19" height="19" viewBox="0 0 19 19" fill="none" xmlns="http://www.w3.org/2000/svg">
<path d="M9.5 7.80662C9.27762 7.80662 9.05742 7.85042 8.85197 7.93552C8.64652 8.02062 8.45985 8.14536 8.3026 8.3026C8.14536 8.45985 8.02063 8.64652 7.93553 8.85197C7.85043 9.05742 7.80663 9.27762 7.80663 9.5C7.80663 9.72238 7.85043 9.94258 7.93553 10.148C8.02063 10.3535 8.14536 10.5402 8.3026 10.6974C8.45985 10.8546 8.64652 10.9794 8.85197 11.0645C9.05742 11.1496 9.27762 11.1934 9.5 11.1934C9.72238 11.1934 9.94258 11.1496 10.148 11.0645C10.3535 10.9794 10.5402 10.8546 10.6974 10.6974C10.8546 10.5402 10.9794 10.3535 11.0645 10.148C11.1496 9.94258 11.1934 9.72238 11.1934 9.5C11.1934 9.27762 11.1496 9.05742 11.0645 8.85197C10.9794 8.64652 10.8546 8.45985 10.6974 8.3026C10.5402 8.14536 10.3535 8.02062 10.148 7.93552C9.94258 7.85042 9.72238 7.80662 9.5 7.80662ZM4.75633 12.8685L4.38267 12.7735C1.59758 12.0697 0 10.8751 0 9.49683C0 8.11854 1.59758 6.92391 4.38267 6.22012L4.75633 6.12592L4.86163 6.49642C5.14376 7.46835 5.50464 8.41568 5.94067 9.329L6.02063 9.49762L5.94067 9.66625C5.50391 10.5793 5.14301 11.5266 4.86163 12.4988L4.75633 12.8685ZM4.20929 7.08541C2.09238 7.67996 0.79325 8.58958 0.79325 9.49683C0.79325 10.4033 2.09238 11.3129 4.20929 11.9082C4.46819 11.0849 4.78077 10.2793 5.14504 9.49683C4.78036 8.71451 4.46776 7.90895 4.20929 7.08541ZM14.2437 12.8685L14.1384 12.4972C13.8565 11.5254 13.4954 10.5782 13.0585 9.66546L12.9786 9.49683L13.0585 9.32821C13.4952 8.41507 13.8564 7.46771 14.1384 6.49562L14.2437 6.12512L14.6181 6.21933C17.4024 6.92312 19 8.11775 19 9.49683C19 10.8759 17.4024 12.0697 14.6181 12.7735L14.2437 12.8685ZM13.855 9.49683C14.235 10.3194 14.5493 11.1277 14.7907 11.9082C16.9084 11.3129 18.2067 10.4033 18.2067 9.49683C18.2067 8.58958 16.9076 7.68075 14.7907 7.08541C14.5322 7.90892 14.2196 8.71448 13.855 9.49683ZM4.20375 7.08146L4.09846 6.71175C3.3155 3.952 3.553 1.97442 4.75 1.28408C5.92404 0.606415 7.809 1.40679 9.78421 3.43425L10.0534 3.71054L9.78421 3.98683C9.08236 4.71644 8.4411 5.50199 7.86679 6.33571L7.75992 6.4885L7.57388 6.50433C6.56364 6.58397 5.56153 6.74547 4.57742 6.98725L4.20375 7.08146ZM5.70475 1.83271C5.49258 1.83271 5.30496 1.87862 5.14663 1.96967C4.35971 2.42329 4.22038 4.00029 4.76267 6.12829C5.6063 5.94061 6.46126 5.80812 7.32212 5.73166C7.81884 5.02541 8.36151 4.35262 8.94662 3.71767C7.71163 2.51512 6.54233 1.83271 5.70475 1.83271ZM13.296 17.9526C13.2952 17.9526 13.2952 17.9526 13.296 17.9526C12.1679 17.9526 10.7192 17.1032 9.21579 15.5594L8.94662 15.2831L9.21579 15.0068C9.91746 14.277 10.5585 13.4912 11.1324 12.6572L11.2393 12.5044L11.4245 12.4885C12.4353 12.4093 13.438 12.2481 14.4226 12.0064L14.7963 11.9122L14.9023 12.2827C15.6837 15.0409 15.447 17.0192 14.25 17.7088C13.9592 17.8732 13.63 17.9573 13.296 17.9526ZM10.0534 15.276C11.2884 16.4785 12.4577 17.161 13.2953 17.161H13.296C13.5074 17.161 13.6958 17.115 13.8534 17.024C14.6403 16.5704 14.7804 14.9926 14.2373 12.8646C13.3935 13.0525 12.5382 13.185 11.6771 13.2612C11.181 13.968 10.6385 14.641 10.0534 15.276ZM14.7963 7.08146L14.4226 6.98725C13.4381 6.74478 12.4354 6.58326 11.4245 6.50433L11.2393 6.4885L11.1324 6.33571C10.5587 5.50173 9.91773 4.71614 9.21579 3.98683L8.94662 3.71054L9.21579 3.43425C11.1902 1.40758 13.0744 0.607207 14.25 1.28408C15.447 1.97442 15.6845 3.952 14.9023 6.71096L14.7963 7.08146ZM11.6771 5.73166C12.5812 5.814 13.4401 5.94779 14.2373 6.12829C14.7804 4.00029 14.6403 2.42329 13.8534 1.96967C13.0712 1.51762 11.6011 2.21033 10.0534 3.71767C10.6382 4.35264 11.1806 5.02543 11.6771 5.73166ZM5.70475 17.9526C5.3705 17.9575 5.04099 17.8733 4.75 17.7088C3.553 17.0192 3.3155 15.0417 4.09846 12.2827L4.20296 11.9122L4.57663 12.0064C5.491 12.2368 6.49958 12.3991 7.57308 12.4885L7.75912 12.5044L7.86521 12.6572C8.43961 13.4911 9.08086 14.2769 9.78263 15.0068L10.0518 15.2831L9.78263 15.5594C8.28004 17.1032 6.83129 17.9526 5.70475 17.9526ZM4.76267 12.8646C4.21958 14.9926 4.35971 16.5704 5.14663 17.024C5.928 17.4697 7.39733 16.7825 8.94662 15.276C8.36174 14.6406 7.81908 13.9675 7.32212 13.2612C6.46122 13.1851 5.60623 13.0526 4.76267 12.8646ZM9.5 13.3617C8.84846 13.3617 8.17871 13.3332 7.50817 13.2778L7.32212 13.262L7.21525 13.1092C6.83597 12.5642 6.47941 12.0038 6.1465 11.4293C5.81457 10.8543 5.50661 10.2659 5.22342 9.66546L5.14425 9.49683L5.22342 9.32821C5.50657 8.72774 5.81453 8.13929 6.1465 7.56437C6.47425 6.99754 6.83446 6.43229 7.21525 5.88446L7.32212 5.73166L7.50817 5.71583C8.83394 5.60342 10.1669 5.60342 11.4926 5.71583L11.6779 5.73166L11.784 5.88446C12.5433 6.97463 13.2098 8.12659 13.7766 9.32821L13.8565 9.49683L13.7766 9.66546C13.2112 10.8678 12.5446 12.0199 11.784 13.1092L11.6779 13.262L11.4926 13.2778C10.8221 13.3332 10.1515 13.3617 9.5 13.3617ZM7.76071 12.5036C8.93238 12.5915 10.0676 12.5915 11.2401 12.5036C11.8947 11.5467 12.4758 10.5415 12.9786 9.49683C12.4767 8.4515 11.8952 7.44629 11.2393 6.49008C10.0814 6.4022 8.91857 6.4022 7.76071 6.49008C7.10448 7.44611 6.52299 8.45134 6.02142 9.49683C6.52472 10.5414 7.10614 11.5465 7.76071 12.5036Z" fill="#6F6E6E"/>
</svg>
